<svg xmlns="http://www.w3.org/2000/svg" xmlns:xlink="http://www.w3.org/1999/xlink" version="1.1" id="Слой_1" x="0px" y="0px" viewBox="0 0 1900 550" style="enable-background:new 0 0 1900 550;" xml:space="preserve"> <style type="text/css"> .st0{fill:#C4E9FB;} .st1{fill:#7CB1BB;} .st2{fill:#488282;} .st3{fill:#53727A;} .st4{fill:#3B6270;} .st5{fill:#3E5A66;} .st6{fill:#BEE6F0;} .st7{fill:#343031;} .st8{opacity:0.43;fill:#7CB1BB;enable-background:new ;} .st9{opacity:0.71;fill:#FFFFFF;enable-background:new ;} .st10{fill:#FFFFFF;} .st11{opacity:0.77;fill:#343031;enable-background:new ;} .st12{fill:#3B4A46;} .st13{fill:#231F20;} .st14{opacity:0.31;fill:#231F20;enable-background:new ;} .st15{opacity:0.38;fill:#231F20;enable-background:new ;} </style> <g id="Слой_2_1_"> <g id="Vrstva_1"> <rect class="st0" width="1900" height="550"/> <path class="st1" d="M1007.9,138.9L981.1,126l-14.3,5.1l-20.4-12.6l-14.3,10.6l-35.7-41.8l-13.2,16.5L865,77.1l-19.4,26.7 l-6.7-4.8L802.8,124l-11.4-2.8L767.8,136L747,147.1l-66.3,37.5c70,14,141.3,21.2,212.7,21.3c65.9,0.1,131.6-5.8,196.4-17.5 L1007.9,138.9z"/> <path class="st2" d="M899.8,214.7l-50,10l-72.4,1.2l-106,13.2c0,0-112.1-25.5-115.2-25.5s-160-24-160-24l0.6-9.6l-253.4-29.6 l-10.8-15.7l15,1.5L132,117.7l14.8,1.5l-15.4-19.8l15.2,1.5l-15.8-19l13,1.3L122,51.5l-1-1.4l-0.1,3.3v-3.2l-1,1.4L97.3,82.7l13-1 l-16.2,18.7l15.3-1.2l-15.8,19.5l14.8-1.2l-16.1,18.3l15-1.2l-7.8,10.8L0,133.8V41.6l17.1-8.1c7.9-0.5,15.9-0.9,24-1.2 c8.9-0.4,17.6-0.6,26.2-0.8l33-6.9l19.7,3.1l33.8-7.2l16.1,9.6c3.1,0.9,5.8,1.8,8.2,2.4l23.6,6.1l17.2-2.1l15.4,8.2 c5.7,0.3,11.4,0.5,17.1,0.8l6.1,0.9l15-2.2l4.9,6.5l16.7,8.2h28.6l7.4,4.3l9.7,0.5l44.2,15.1l41.2,14.1l48.2,9l15.8,12.5l8.9-1.6 l22.4,6l23.4,5h34.7l19.4,9.4l10.8-9.4l11.6-5l17.3,10l28.5,4.4h9.5l18.1,12.2l21.1-0.9l14.2,10l28.7,11.7l30.2,10 c1.9,1.4,3.8,2.9,5.7,4.3l26.5,9.2l24.7,3.6h30l12.5,9.2L899.8,214.7z"/> <path class="st3" d="M1216.5,105.4l-41.8-1.6l-24.4-5.5l-24.5,12.9h-19.4l-13.2,1.4l-10.2,6l-20.4,10.2h-17.3l-12.2,15h-8.1 l-31.3,20l-24.9,6.1c0,0-23.6,0.2-25,0s-20,13.9-20,13.9s-10.6,12.9-15,10s-30,6.7-30,6.7s-30.9,2.5-30,3.3s-22.5,17.1-22.5,17.1 l-16.3,5.1l163-5.1l67.3,5.1l89.7-4.1l58.1-10.3L1216.5,105.4z"/> <path class="st4" d="M1331.4,60.9L1293,48.3h-33.6l-23.4-7.9l-52,53.4l-9.2,10l-18.3,10l-13.2,4.7l-13.2,10.2l-11.2,7.5 l-22.4,17.5l-20.4,10l-25.5,20l-32.6,46.3c0,0,2,21.4,9.2,20.4c7.2-1,229.3-52,229.3-52l96.8-14.7l64.2-20l-37.7-49.9L1331.4,60.9 z"/> <path class="st5" d="M1900,23.9V239l-308.8,4.9l-17.7,26l-248.7,56.5l-213,12.7l-116.2-33.6v-49.9l8.2-27.5l-21.6-7.9l43.8-33.1 l45.9-12.2l31.9-9.9l25.5-13.2l32.5-5.1l25.5-6.8l14.3-12.1l20.4,4.6l20.4-4.7l18.3-21.8l18.3-18.3l47.9-20.4l27.5-36.7l11.4-17.3 l43.1,8.3l29.1,32.5l30.6-13.2l5.1,4.6l9.2-4.6l16.3,17.3l34.7-34.7l15.1,7.6l30.9-15.1l38.3,10.9l38.2-10.9l34.2,13.9l12.4-8.8 l7.5,4.8l13.4-4.8l31.9,9.8l12.6-9.8l11.8,4.8l33-9.9l23.1,10.9l9.1-5.8l12.1,6.8l19.1,1l9-7.8C1885.3,20.7,1892.6,22.1,1900,23.9 z"/> <polygon class="st6" points="1158.4,259 1105,300.8 863.9,307.2 523.6,307.2 506.3,253.9 526.3,228.3 585.1,216.6 811.5,212.6 960.7,212.6 1051.5,227.3 "/> <path class="st3" d="M706,259.3l-202.8-18.4l-30.6-9.2l-16.5,0.4c1.4,14.1,2.6,27.4,2.1,29c-0.2,0.9-18.7,0-46.5-1.8l3.8,2.7 c-13,1.1-26.1-0.6-38.4-5c-91.2-6.5-227.1-17.8-230.5-18.9C143,236.9,49,218.2,0,208.4V66.2l9-2.5L31.1,53l29.1,10.7l16.2-10.4 l6.9,6.1l28.8-19.1c6.3,5.2,17,3.8,17,3.8l20.5,28.4l13.1-8.9l15.3,8.9H194l10-5l10.1,9.4l12.8,4.7l9.3-4.7l10.1,1.7l17.2,5.1 l17-4.7l23.1,17.6l25.1-3l29.1,18.1l15.1,15.1l15.1-11l18.1,25.1l12.1,11.1l10.1,8.1l24.1-17.4l16.3,16.3l30.6-3.1l25.5-13.2 l20.4,8.8h17.3l9.2-8.8l12.2,8.8c6.1,3.9,12.2,7.9,18.3,11.9c4.1,7.8,8.2,15.6,12.2,23.4l26.4,9.2c3.8,8.1,7.6,16.3,11.3,24.4 L706,259.3z"/> <path class="st7" d="M1720.4,190.2l179.6-8.2V550H0V177.7l480.8,31.9h16.3l9.2,10.2h17.3l17.3,9.3h18.3l34.6,4.9l19.4,6.1 l14.3-5.1l19.4,10.2h251.7l24.7,9.2l19.1,11.2h83.6l37.7,6.1l12.2-13.2l17.3,3l34.7-15.3h18.3l20.4-1l12.2-6.1l24.4-10l46.9-0.7 l54-8.7l27.5-7.1l25.5-8.1l24.5,1l85.2-5.3l81.2-6.6L1720.4,190.2z"/> <polygon class="st8" points="918.6,212.6 893.5,229.6 877.5,220.6 859.2,235.6 840.8,219.9 830.4,228.5 812.9,212.6 "/> <path class="st9" d="M878.2,221l15.2,8.6l12.7-8.6l-13,3.6L878.2,221z"/> <polygon class="st9" points="837.4,222.7 830.4,228.5 823.1,221.8 830.2,224.1 "/> <polygon class="st9" points="845.6,224.1 859.2,235.6 873.2,224.1 865.8,225.9 859.4,222.7 854.7,225.2 "/> <path class="st10" d="M849.6,98.3L865,77.1l14.5,21.2l-6.6-4.2l-8.3,4.2l-7.3-4.5L849.6,98.3z"/> <polyline class="st10" points="887.3,98.8 896.6,87.3 909.6,102.5 898.5,98.3 883.3,103.8 "/> <polygon class="st10" points="828.2,106.4 838.9,98.9 845.6,103.8 838.6,103.8 "/> <path class="st7" d="M823.3,168.7l2.3-5.5l2.3-4.6l0.7-2.2l-1.7-1.9l-1-1.4l-2.7-0.6l-2.3-1.7l-1.4-1.2l-1-3.9v-3.3h4l-5.4-3.2 l-3-3l-1.8-4.6v-3.6l2.3-1.5l1.2-3.2l1.1-1.8l-0.3,2.5l-0.1,1.4l1.7-2.2l2.2-2.5l-1.6,3.3l-0.4,1.2l1.2,0.3l-1.4,1.4l-1.2,3.3 l0.1,3.4l0.7,1.8l1,0.6l0.4-3.2l-0.5-1.2l1.7-1.7l1.4-4.8l1.9-3l-1,3.7l-1.2,4.7l-0.4,3.9c-0.1,1.1-0.1,2.3,0,3.4 c0.2,0.5,0.4,0.9,0.7,1.4l6.8,4.1l1.4-0.6v-4.8l1.2-4.7l1.1-1.6v10.2l0.7,2.8l2.5,0.8l3-0.8h2.6v-8.5l0.8-3.6v-1.5l1,1.5v6.9 l1.2,3.2l3.2-1.8l5-2.4l1.1-4.6v-10.5l1.2,4v3.6l0.7,2.5v2.8l1.9-2.1v-6.2l-2.1-2.3l1.4-0.4l-1-4.6l-0.1-2.1l1.8,3.6l1.5,3l1-0.6 v2.1l1,3.3v3.3l-1,2.8l-3.5,2.9l-5.5,2.9l-3.3,1.7l-3.3,2.9l3.5-1.2l3.3-1.6l4-1.8l1.2,0.6l-0.3,2.7l-0.8,3.9l-2.8,2.8l-4.3,0.8 l-0.8,2.2l0.1,3.6c0.1,1.4,0.2,2.8,0.1,4.1c-0.1,0.6-0.3,2.5-0.3,2.5l-0.3,10l-0.8,5.5l-2.5,7l-3.2,5.5l-5,13.9l-7.2,5.5l-1.7,6.6 l-1.5,7.3l-0.3,4.8l-0.8,4.7l-0.1,7.9l-0.1,11l1.5,5.7h-5.9c0,0,0.3-8.7,0.5-9.4s-1.4-12-1.4-12l-1.7-10.5l-1-8.3l-1,3.2l-0.3,7.2 l-1.4,5l-1,6.2l-1.2,9.9l-1.4,7.6l-4.3-0.4l2.2-14.5l1.2-10.2l-1.9-8.8l-1.4-8.5l-1-3.3l-9.4,0.6l-11.6-0.6l-7.3-2.1l-4.7,10.2 l-2.5,9.1l1.4,4.4c0,0,4.3,7.3,4.7,7.9s4.7,6.8,4.8,7.2s3.7,7.3,3.7,7.3l-8.8-0.1l-3-7.4l-7.8-13.5l-5.8-7.4l1.7-7l0.5-6.5 l-11.9,6.8l-8,4l-2.9,3.2l-1.4,4.3l-2.3,22.9l2.2,4.4H727l1.5-4.5l1.1-15.6l0.8-11.9l0.8-11l12.5-8.4l-5.2-9.5l-0.7-15l3-5.5 l7.2-3.3l9.2-4.6l10.2-2.4l2.9,0.3l8.7,0.7l7.5-0.1l7.3,1.5l10.6-0.7l10.1-1L823.3,168.7z"/> <path class="st10" d="M1175.4,61.6h0.2c0,9.5-7.7,17.2-17.2,17.2h-85.7c-9.5,0-17.2-7.7-17.2-17.2l0,0c0-8.2,6.6-14.8,14.8-14.8 c0.5,0,1.1,0,1.6,0.1c3.4-8.5,11.6-14,20.8-14c1,0,2.1,0.1,3.1,0.2c7.5-15.5,26.2-21.9,41.7-14.4c8.5,4.1,14.6,11.8,16.7,21 c0.6-0.1,1.2-0.1,1.8-0.1c10.8,0,19.6,8.8,19.6,19.6C1175.6,60,1175.5,60.8,1175.4,61.6z"/> <polygon class="st11" points="217.3,186.1 218.9,187.9 217.2,187.5 204.8,184.9 200.9,184.1 200.6,184 200.6,184.3 200.7,185.7 201.3,220.8 192.6,219.9 187.3,220.4 182.8,220.7 183,216.9 184.3,183.9 167.9,187 166,187.4 167.9,185.3 175.4,177 179.8,172.1 183.8,167.7 177.1,169 166.6,171.1 172.2,163.3 174.2,160.4 179.2,153.5 180.2,152.1 178.4,152.3 165.2,153.3 173,144.4 173.5,143.8 180.1,136.3 181.2,135 179.1,135.1 166.4,136.1 173.1,127.9 174.1,126.7 180,119.4 182.2,116.7 178.1,117 167,117.9 173.2,110.7 175.1,108.6 180.4,102.3 183.2,99.2 178.2,99.6 170.2,100.2 174.1,94.7 176.6,91.3 180,86.6 192.7,69.1 193.8,67.6 193.8,70.9 193.9,67.5 194.9,69 209.5,90.2 214.8,97.9 215.4,98.8 216.7,100.6 214.1,100.4 203.7,99.3 209.2,106 219.5,118.4 213.4,117.8 204.2,116.8 209.1,123.1 219.6,136.6 212.3,135.9 204.8,135.1 208.8,139.9 220.5,153.9 211.8,153 205.5,152.3 208.8,157.1 215.3,166.6 215.9,167.5 218.7,171.6 213.2,170.4 205.1,168.6 201.5,167.8 202.6,169.1 208.4,175.8 214.7,183 "/> <path class="st12" d="M248.5,182.4l3.5,4.1l-11.9-2.5l-2.7-0.6l-3.6-0.8l0.5,29.1l-3.1,7.1l-7.4-7.1l-4.7,6.4l-2.8-2.9l1.1-27.7 l0.1-1.4l0.1-3.6l-2.8,0.5l-9.9,1.9l-4.1,0.8l-1.5,0.3l1.5-1.6l0.2-0.2l7.5-8.3l4.9-5.4l2.6-2.9l1.1-1.2l-1.7,0.3l-10.1,2 l-2.5,0.5l-2.9,0.6l9-12.6l3-4.1l1.6-2.2l-15,1.2l10.5-12l3.5-4l2-2.3l-14.8,1.1l9.5-11.7l4.3-5.3l2-2.5l-15.3,1.2l9.1-10.5 l4.9-5.6l1.4-1.6l0.9-1l-1.5,0.1l-11.5,0.9l6.2-8.5l16.4-22.7l1-1.4v3.2l0.1-3.3l1,1.4l16.6,24.1l3.6,5.3l1.6,2.3l-13-1.3l7.4,9 l6,7.2l1,1.2l1.3,1.6l-2.4-0.2l-12.8-1.3l6.8,8.8l6.3,8.2l0.4,0.5l1.8,2.4l-3.6-0.4l-11.1-1.1l5.9,7.1l9.7,11.6l-5-0.5l0,0l-10-1 l5.2,7.6l5.1,7.4l1.8,2.6l1.1,1.6l-2.1-0.5l-9.3-2l-2.8-0.6l-3-0.7l8.8,10.2L248.5,182.4z"/> <polygon class="st7" points="179.8,172.1 185.9,179.2 175.4,177 167.7,175.4 167.9,185.3 167.9,187 168.2,205.1 168.3,212.2 162.2,211.6 159.7,211.3 149.9,212.1 151.4,175.3 133.1,178.7 141.5,169.4 143.4,167.3 150.9,159.1 138.3,161.5 133.6,162.4 136.1,159 140.5,152.9 142.8,149.7 147.2,143.5 139,144.1 132.2,144.7 136.2,140.1 140.1,135.6 143.6,131.6 148.3,126.3 139.8,127 133.5,127.5 136.8,123.4 140.8,118.6 143.6,115.1 149.3,108 138.8,108.9 134,109.2 136.7,106.2 141.7,100.4 144,97.7 150.2,90.5 138.8,91.4 137.2,91.6 138,90.5 143.4,83.1 143.6,82.8 159.8,60.4 160.8,59 160.8,62.2 160.9,58.9 161.9,60.3 180,86.6 183.8,92 176.6,91.3 170.8,90.7 174.1,94.7 178.2,99.6 180.4,102.3 186.5,109.7 175.1,108.6 171.3,108.2 173.2,110.7 178.1,117 180,119.4 186.6,128 174.1,126.7 171.9,126.5 173.1,127.9 179.1,135.1 180.1,136.3 187.5,145.2 173.5,143.8 172.5,143.7 173,144.4 178.4,152.3 179.2,153.5 185.7,162.9 174.2,160.4 168.6,159.2 172.2,163.3 177.1,169 "/> <polygon class="st11" points="106.1,176.8 87.9,172.9 88.5,207.6 88.5,209.7 86.7,209.5 79.9,208.8 70,209.6 71.5,172.8 55.1,175.9 53.2,176.3 55.1,174.2 60.9,167.7 66,162.1 71,156.6 62.7,158.2 53.8,160 58.5,153.4 60.1,151.2 65.7,143.4 67.4,141 64.2,141.3 52.4,142.2 66.4,126.3 68.4,123.9 64.6,124.2 53.7,125 59.4,118 59.7,117.7 66.3,109.4 69.5,105.6 63.7,106 54.2,106.8 59.5,100.6 60.5,99.5 66.7,92.3 70.4,88.1 63.7,88.6 57.4,89.1 60.5,84.8 62.4,82.2 66.5,76.6 80,57.9 81,56.5 81,59.8 81.1,56.4 82.1,57.8 98.3,81.4 99.1,82.6 103.8,89.3 103.9,89.5 103.6,89.5 91,88.2 97.7,96.3 100.6,99.9 104.8,104.9 106.7,107.3 103.1,106.9 91.5,105.7 97.6,113.7 101,118.1 104.2,122.2 106.8,125.5 101.8,125 92.1,124 97.2,130.2 101.3,135.1 104.4,138.8 107.7,142.7 101.9,142.2 92.7,141.2 97.5,148.3 100.3,152.3 104.1,157.8 105.9,160.5 102.4,159.7 88.8,156.7 96.7,165.9 99.2,168.8 "/> <polygon class="st12" points="143.4,167.3 146,170.4 141.5,169.4 127.8,166.5 128.3,199 123.7,202.9 120,198.3 114.7,202.9 110.2,198.2 111.4,166.4 99.2,168.8 93.1,169.9 96.7,165.9 102.4,159.7 104.1,157.8 110.9,150.3 100.3,152.3 93.7,153.6 97.5,148.3 99.6,145.4 101.9,142.2 104.4,138.8 107.3,134.7 101.3,135.1 92.3,135.8 97.2,130.2 101.8,125 104.2,122.2 108.4,117.5 101,118.1 93.6,118.7 97.6,113.7 103.1,106.9 104.8,104.9 109.4,99.2 100.6,99.9 94.1,100.4 97.7,96.3 103.6,89.5 103.8,89.3 110.3,81.7 99.1,82.6 97.3,82.7 98.3,81.4 119.9,51.6 120.9,50.2 120.9,53.4 121,50 122,51.5 143.6,82.8 143.8,83.2 143.4,83.1 130.9,81.8 138,90.5 138.8,91.4 144,97.7 146.6,100.9 141.7,100.4 131.4,99.3 136.7,106.2 138.8,108.9 143.6,115.1 146.7,119.2 140.8,118.6 132,117.7 136.8,123.4 139.8,127 143.6,131.6 147.6,136.4 140.1,135.6 132.6,134.9 136.2,140.1 139,144.1 142.8,149.7 143.4,150.5 145.8,154.1 140.5,152.9 128.7,150.4 136.1,159 138.3,161.5 "/> <polygon class="st7" points="73.1,170.3 54.9,166.5 55.5,203.3 46.9,202.4 37.1,203.2 38.6,166.4 20.3,169.8 38.1,150.2 20.8,153.6 34.5,134.6 19.4,135.8 35.5,117.4 20.7,118.6 36.5,99.1 21.2,100.3 37.4,81.7 24.5,82.7 47,51.5 48,50.1 48.1,53.3 48.2,50 49.1,51.4 71,83.1 58,81.8 73.8,100.8 58.5,99.3 73.9,119.1 59.1,117.6 74.8,136.3 59.8,134.8 73,154.1 55.8,150.3 "/> <polygon class="st7" points="289.1,185.2 270.9,181.3 271.5,218.1 262.9,217.2 253,218 254.5,181.2 236.2,184.7 254,165 236.8,168.4 250.4,149.4 235.4,150.6 251.4,132.3 236.7,133.4 252.4,114 237.2,115.2 253.4,96.5 240.4,97.5 263,66.3 264,64.9 264,68.2 264.1,64.8 265.1,66.3 286.9,97.9 274,96.6 289.7,115.7 274.5,114.1 289.8,133.9 275,132.4 290.7,151.1 275.7,149.6 288.9,168.9 271.7,165.1 "/> <polygon class="st11" points="306.8,181.7 318.1,194.8 311.7,193.4 310.5,193.2 299.9,190.9 300,195.2 300.5,225.5 300.5,227.8 291.9,226.9 283.5,227.5 282.1,227.6 283.6,190.9 271.1,193.2 265.3,194.3 271,188 276,182.4 281.5,176.4 283,174.7 280.4,175.2 265.8,178 273.6,167.2 274.6,165.8 279.5,159.1 264.4,160.3 280.5,141.9 265.7,143.1 281.5,123.6 266.2,124.8 275,114.8 275.4,114.2 282.1,106.5 282.4,106.1 281.9,106.2 269.4,107.1 275.6,98.6 276.8,96.9 281.6,90.3 292,76 293,74.6 293,77.8 293.1,74.5 294.1,75.9 307.6,95.4 316,107.6 303,106.3 305,108.7 307.5,111.8 318.8,125.3 303.5,123.8 305.3,126 307.3,128.6 318.9,143.6 304.1,142.1 305.9,144.2 307.1,145.7 319.8,160.8 304.7,159.3 306.1,161.3 306.8,162.3 317.9,178.5 311,177 310.5,176.9 300.8,174.8 303.8,178.2 "/> <path class="st12" d="M346.3,196.9l-18.2-3.9l0.5,31.4l-3-2.2l-5.5,6.8l-5-7.8l-4.8,5.6l1.3-33.3v-0.5l-1.2,0.2l-10.5,2l-6.5,1.2 l13.3-14.7l4.3-4.7l0.2-0.2l-0.7,0.1l-6.7,1.3l-9.8,1.9l12.8-17.8l0.8-1.1l-1.5,0.1l-13.5,1.1l14.5-16.6l1.5-1.7l-2.8,0.2l-12,0.9 l13.4-16.5l2.4-2.9l-4.4,0.3l-10.9,0.9l13.1-15.2l3-3.5l-5.6,0.4l-7.4,0.6l10-13.8l12.6-17.4l1-1.4v3.2l0.1-3.3l1,1.4l21.8,31.7 l-13-1.3l15.8,19.1l-15.2-1.6l15.4,19.8l-14.8-1.5l15.6,18.7l-15-1.5l13.2,19.3l-17.1-3.8L346.3,196.9z"/> <polygon class="st11" points="1719.5,189.4 1721.3,191.5 1719.4,191.1 1703.1,187.9 1704.1,219 1704.2,224.7 1694.5,223.9 1694.4,223.9 1685.8,224.7 1686.7,189.5 1686.7,188.1 1686.7,187.9 1686.5,187.9 1682.6,188.7 1670.1,191.2 1668.5,191.6 1670,189.8 1672.7,186.8 1679,179.6 1684.9,172.9 1686,171.7 1682.4,172.4 1674.2,174.1 1668.8,175.3 1671.6,171.2 1672.2,170.4 1678.8,160.9 1682.2,156.1 1675.9,156.7 1667.1,157.5 1678.9,143.7 1682.9,139 1675.4,139.7 1668.2,140.3 1678.8,126.8 1683.7,120.7 1674.6,121.5 1668.4,122.1 1678.8,109.7 1684.3,103.2 1674,104.1 1671.4,104.3 1672.7,102.5 1673.3,101.6 1678.6,94 1693.5,72.9 1694.5,71.4 1694.6,74.8 1694.6,71.6 1695.6,73 1708.2,90.6 1711.5,95.3 1714,98.8 1717.9,104.3 1709.9,103.6 1704.9,103.2 1707.6,106.4 1712.9,112.6 1714.8,114.7 1720.9,122 1709.8,121.1 1705.7,120.7 1707.9,123.4 1713.8,130.8 1714.7,132 1721.3,140.3 1708.7,139.2 1706.6,139 1707.7,140.3 1714.2,147.9 1714.7,148.5 1722.5,157.5 1709.2,156.3 1707.4,156.2 1708.4,157.5 1713.3,164.5 1715.4,167.4 1720.9,175.2 1710.4,173.1 1703.7,171.7 1707.7,176.2 1712,181.1 "/> <polygon class="st12" points="1686.7,188.1 1688.2,189.8 1686.7,189.5 1682.6,188.7 1672.7,186.8 1669.9,186.2 1670,189.8 1670.1,191.2 1670.8,213.2 1667.1,215.1 1661.7,210.8 1661.3,220.4 1652.8,215.1 1653.6,186.1 1650,186.9 1647.2,187.4 1635.3,189.9 1638.9,185.8 1643.9,180.1 1652.8,170 1649.8,170.6 1647,171.2 1637.7,173.1 1635.6,173.6 1636.7,172 1638.5,169.4 1643.7,162 1649,154.4 1639,155.4 1634,155.8 1643.8,144.3 1649.8,137.3 1638.6,138.3 1635,138.6 1636.9,136.3 1637.3,135.8 1643.7,127.7 1650.5,118.9 1637.7,120.1 1635.3,120.4 1636.6,118.8 1637.6,117.6 1643.7,110.4 1651.2,101.4 1638.2,102.7 1639.8,100.3 1643.5,95.1 1660.3,71.2 1661.3,69.7 1661.4,73.1 1661.4,69.8 1662.4,71.3 1678.6,94 1684.8,102.6 1673.3,101.6 1671.8,101.5 1672.7,102.5 1674,104.1 1678.8,109.7 1687.8,120.3 1672.6,119 1674.6,121.5 1678.8,126.8 1688.2,138.6 1673.4,137.3 1675.4,139.7 1678.9,143.7 1689.3,155.8 1674.3,154.5 1675.9,156.7 1678.8,160.9 1687.8,173.5 1684.9,172.9 1682.4,172.4 1672.2,170.4 1670.6,170 1671.6,171.2 1674.2,174.1 1679,179.6 1686.5,187.9 "/> <polygon class="st7" points="1754.3,183.1 1736.1,179.5 1737.2,215.9 1737.2,216.4 1727.4,215.5 1718.8,216.3 1718.9,211.4 1719.4,191.1 1719.5,189.4 1719.7,179.5 1712,181.1 1701.5,183.2 1707.7,176.2 1710.4,173.1 1715.4,167.4 1719,163.3 1713.3,164.5 1701.8,166.9 1708.4,157.5 1709.2,156.3 1714.7,148.5 1715.2,147.8 1714.2,147.9 1700.2,149.2 1707.7,140.3 1708.7,139.2 1714.7,132 1715.9,130.6 1713.8,130.8 1701.2,132 1707.9,123.4 1709.8,121.1 1714.8,114.7 1716.7,112.3 1712.9,112.6 1701.4,113.7 1707.6,106.4 1709.9,103.6 1714,98.8 1717.4,94.8 1711.5,95.3 1704.4,96 1708.2,90.6 1726.5,64.5 1727.5,63.1 1727.6,66.4 1727.6,63.2 1728.6,64.6 1744.6,87.1 1744.9,87.4 1750.1,94.9 1750.9,95.9 1749.3,95.8 1737.9,94.8 1744.1,102.1 1746.4,104.8 1751.3,110.6 1754,113.7 1749.2,113.2 1738.7,112.3 1744.4,119.4 1747.2,122.9 1751.1,127.8 1754.3,131.9 1748.1,131.4 1739.6,130.6 1744.2,136 1747.6,140 1751.5,144.5 1755.5,149.1 1748.7,148.5 1740.4,147.8 1744.9,154 1747.2,157.3 1751.4,163.4 1753.9,166.9 1749.2,165.9 1736.7,163.4 1744.1,171.7 1746,173.8 "/> <polygon class="st11" points="1781.3,181.4 1799.6,177.7 1798.6,214.5 1807.3,213.7 1817.1,214.6 1815.9,177.8 1834.2,181.4 1816.6,161.6 1833.8,165.1 1820.3,146 1835.3,147.3 1819.4,128.9 1834.2,130.1 1818.6,110.5 1833.8,111.9 1817.8,93 1830.8,94.2 1808.5,62.8 1807.5,61.4 1807.4,64.6 1807.3,61.3 1806.3,62.7 1784.2,94.2 1797.2,93 1781.3,111.9 1796.5,110.5 1781,130.2 1795.8,128.8 1780,147.4 1795,146 1781.7,165.1 1798.8,161.5 "/> <path class="st12" d="M1790.8,170.7l3.6,4l-6-1.2l-12.3-2.4l1.2,36.8l-4.3-0.4l-5.1-5.1l-5.7,5.2l-3.3,0.3l0.9-36.8l-13.7,2.8 l-4.5,0.9l2.7-3l5.1-5.8l2.2-2.5l7.5-8.6l-11.8,2.5l-5.4,1.1l3.1-4.4l3.8-5.5l2.8-4l3.7-5.2l-7.6,0.7l-7.5,0.7l4-4.7l3.9-4.6 l3-3.5l4.9-5.7l-8.8,0.8l-6,0.6l3.2-4.1l4.9-6.2l2.1-2.7l5.3-6.8l-10.3,1l-5,0.5l2.7-3.2l5.2-6.2l0.8-0.9l7.2-8.6l-12.5,1.2h-0.5 l0.3-0.4l21.9-31.1l1-1.4l0.1,3.3v-3.2l1,1.4l21.3,30l1,1.4l-1.8-0.2l-11.2-1l6.5,7.6l0.2,0.2l5.8,6.9l3.5,4.1l-6.5-0.6l-8.8-0.8 l4.6,5.7l1.6,2l5.4,6.8l4,5l-7.4-0.7l-7.3-0.6l4.1,4.8l2.4,2.8l4.5,5.2l4.9,5.7l-9-0.8l-6-0.5l2.9,4.1l2.4,3.4l4.3,6.2l3.8,5.4 l-6.6-1.4l-10.6-2.2l6.8,7.6l1.7,1.9L1790.8,170.7z"/> <polygon class="st7" points="1814.3,175.3 1832.6,171.6 1831.6,208.4 1840.3,207.6 1850.1,208.4 1848.9,171.6 1867.2,175.2 1849.6,155.4 1866.8,158.9 1853.3,139.9 1868.3,141.2 1852.4,122.7 1867.2,124 1851.6,104.4 1866.8,105.7 1850.8,86.9 1863.8,88 1841.5,56.7 1840.4,55.2 1840.4,58.5 1840.3,55.1 1839.3,56.6 1817.2,88.1 1830.2,86.8 1814.3,105.8 1829.5,104.3 1814,124 1828.8,122.7 1813,141.2 1828,139.8 1814.7,159 1831.8,155.4 "/> <polygon class="st7" points="1650,186.9 1651.2,188.2 1647.2,187.4 1638.9,185.8 1632.9,184.6 1634,221.4 1631.4,221.2 1628.1,220.9 1624.2,220.6 1615.6,221.4 1616.2,196.5 1616.3,191.2 1616.5,184.6 1611.3,185.6 1598.3,188.3 1605.9,179.6 1607,178.4 1613.9,170.5 1615.8,168.4 1612.9,169 1598.6,172 1612,152.8 1596.9,154.2 1612.8,135.7 1598,137 1613,118 1613.5,117.3 1612.5,117.4 1598.2,118.8 1605.9,109.7 1606.2,109.3 1612.5,101.8 1614.2,99.8 1611.3,100.1 1601.2,101.1 1606.5,93.5 1623.3,69.6 1624.3,68.1 1624.4,71.5 1624.4,68.2 1625.4,69.7 1643.5,95.1 1647.7,101 1639.8,100.3 1634.7,99.9 1643.7,110.4 1650.8,118.7 1637.6,117.6 1635.5,117.4 1636.6,118.8 1637.7,120.1 1643.7,127.7 1651.1,137 1637.3,135.8 1636.4,135.7 1636.9,136.3 1638.6,138.3 1643.8,144.3 1652.3,154.2 1637.2,152.9 1639,155.4 1643.7,162 1649.8,170.6 1650.7,171.9 1647,171.2 1638.5,169.4 1633.5,168.4 1636.7,172 1637.7,173.1 1643.9,180.1 "/> <polygon class="st11" points="1616.3,191.2 1622,197.6 1616.2,196.5 1603.7,194 1604.6,219.3 1604.9,230.8 1595.1,230 1587.5,230.7 1586.4,230.8 1587.3,198.2 1587.4,193.9 1576.8,196.1 1575.6,196.4 1569.1,197.7 1580.6,184.6 1583.6,181.2 1586.7,177.8 1576.9,179.8 1576.4,179.9 1569.5,181.4 1580.7,165.2 1581.4,164.2 1582.8,162.2 1567.8,163.6 1580.5,148.7 1581.8,147.2 1583.6,145.1 1568.9,146.4 1580.6,131.6 1582.6,129 1584.4,126.7 1569.1,128.2 1580.4,114.7 1583,111.6 1585,109.2 1572.1,110.4 1580.5,98.4 1594.2,79 1595.2,77.5 1595.2,80.9 1595.3,77.6 1596.3,79.1 1606.5,93.5 1611.3,100.1 1612.5,101.8 1618.6,110.4 1606.2,109.3 1605.6,109.3 1605.9,109.7 1612.5,117.4 1613,118 1621.6,128.1 1606.4,126.8 1622,146.4 1607.2,145.1 1623.1,163.6 1608.1,162.3 1612.9,169 1613.9,170.5 1621.6,181.3 1607,178.4 1604.4,177.8 1605.9,179.6 1611.3,185.6 "/> <polygon class="st12" points="1580.6,184.6 1593.8,199.4 1587.3,198.2 1576.8,196.1 1575.6,195.9 1575.6,196.4 1576.5,226.8 1571.9,221.3 1566.9,230.1 1561.5,221.3 1558.5,224.8 1559.2,195.8 1540.9,199.5 1558.5,179.6 1541.3,183.2 1554.7,164.1 1539.6,165.5 1555.4,146.9 1540.7,148.3 1556.2,128.6 1540.9,130 1556.8,111.1 1543.9,112.3 1566,80.8 1567,79.4 1567,82.7 1567.1,79.5 1568.1,80.9 1580.5,98.4 1590.4,112.3 1583,111.6 1577.4,111.1 1580.4,114.7 1593.4,130 1582.6,129 1578.2,128.6 1580.6,131.6 1593.8,148.2 1581.8,147.2 1579,146.9 1580.5,148.7 1594.9,165.4 1581.4,164.2 1579.9,164.1 1580.7,165.2 1593.4,183.2 1583.6,181.2 1576.9,179.8 1576.2,179.7 1576.4,179.9 "/> <polygon class="st13" points="1005.6,53.4 1019.7,44.2 1026.5,48.8 1033.2,44.2 1045.6,53.4 1033.7,48.8 1026.5,53.4 1019.7,46.6 "/> <polygon class="st13" points="927,53 940.2,44.6 946.5,48.8 952.8,44.6 964.2,53 953.2,48.8 946.5,53 940.2,46.8 "/> <polygon class="st13" points="1081.6,63.7 1088.1,59.5 1091.3,61.6 1094.4,59.5 1100.2,63.7 1094.7,61.6 1091.3,63.7 1088.1,60.6 "/> <polygon class="st13" points="960.6,84.9 979.7,72.6 988.8,78.8 997.9,72.6 1014.5,84.9 998.6,78.8 988.8,84.9 979.7,75.9 "/> <polygon class="st14" points="928.7,216.8 941.8,225.2 948.1,221 954.4,225.2 965.8,216.8 954.8,221 948.1,216.8 941.8,223 "/> <polygon class="st15" points="962.3,232.9 981.3,245.1 990.5,239 999.6,245.1 1016.2,232.9 1000.2,239 990.5,232.9 981.3,241.9 "/> <path class="st7" d="M653.5,258.5c-0.3-1-7.5-151.4-7.5-151.4l2,11.2l7.3,137.5L653.5,258.5z"/> <path class="st7" d="M651.5,222.1l17.9-19.6l2.7-3l8.8-7.2l3-2.5l14.5-7l-10.1,5.9l-4.9,3.2l-6.4,4.7l-5.6,5l-7.3,8l-9.4,10.4 l-2.4,3L651.5,222.1z"/> <path class="st7" d="M652.3,221.2c-0.1,0.1-15.8-10.8-15.8-10.8l-2.5-6.6l-1.6-2.8v1.4l1.1,1.8l2.3,5.9l-10.5-8.3l-14.9-9.4 l-1-0.8l-6.5-5.3l-3.5-5.6v2.1c1.1,1.3,2.1,2.6,3.1,4c0,0.3,6,4.9,6,4.9h-3.7l-5.4,1.8c-1.9,0.7-3.8,1.4-5.6,2.3 c-0.6,0.6-1.3,1.2-2,1.8v0.7l3.3-2.2l6.1-2.2l4.7-1.2l3.4,0.2l15.6,9.6l9,7.5l11.1,7.7l7.5,5.4L652.3,221.2z"/> <path class="st7" d="M651.1,193.4c-0.4-1.5-0.7-3-0.8-4.5l4.9-13.6l-3.7-5.3v-0.7l1.8,1.5l1.8,3l3.3-9.5v1.9l-2.4,8h5.3l4,0.2v1 l-9-0.2l-2.1,5.5c-1.1,3.1-2.2,6.2-3.3,9.4C651.2,191.2,651.2,192.3,651.1,193.4z"/> <path class="st7" d="M650,190.4c0-0.3-8.4-23.2-8.4-23.2l1.4-9.2l-0.9,1.3l-1.1,6.6l-4.4-6.4v1.8l3.8,5.1l1.2,3.6l8.9,25.3 L650,190.4z"/> <path class="st7" d="M651.5,206l-7.9-22.4l-0.1-0.8l-0.1-0.8l-0.7-6.1H642l1,7.8c0,0-7-4.6-7.3-4.8l0,0c-0.6-0.2-1.3-0.3-2-0.3 l9.1,5.9l4,10.7l4.8,14.9L651.5,206z"/> <path class="st7" d="M650.2,162.6l7.6-15.1l9.1-8.6l2.3-2.2l12.1-5.7l-12.3,6.9l-9.4,9.2L650.2,162.6z"/> <path class="st7" d="M647.7,135.8l3.1-2.8l3.3-3l11.3-4.3l-10,5c-6.2,3.8-7.5,5.7-7.4,6.7c0,0.1,0.1,0.7,0.1,0.7L647.7,135.8z"/> <path class="st7" d="M648.3,140.8l-3.1-2.8l-3.3-3l-11.3-4.3l10,5c6.2,3.8,7.5,5.7,7.4,6.7c0,0.1-0.1,0.7-0.1,0.7L648.3,140.8z"/> <path class="st7" d="M664.8,129.3l-0.6-0.3v-0.1l0-0.1l-0.2,0.1l-0.1-0.2l-0.2,0.1v-0.2l-0.2,0.1l0.2-0.3l-0.3,0.1l0.1-0.3 l-0.3,0.1l0.3-0.3h-0.3l0.4-0.3l0.1-0.4l-0.3,0.3l-0.5,0.3h-0.1l-0.2,0.2h-0.2l-0.2,0.2h-0.2l-0.5,0.2l0.4-0.2l0.3-0.2l-0.2-0.1 l0.5-0.2h-0.1l0.5-0.2l0.3-0.1h-0.1l0.5-0.1l0.3-0.2l0,0l-3.6,0.8l0,0l0.1-0.1l3.6-0.8l0,0l-0.3-0.1l-0.5,0.1l0.1-0.1h-0.4h-0.5 l0.1-0.1h-0.5l0.1-0.1l-0.3-0.1h-0.4l0.6-0.1l0.2-0.1l0.2,0.1l0.2-0.1l0.2,0.1l0.1-0.1l0.5,0.1l0.3,0.2l-0.2-0.3l-0.4-0.2l0.3-0.1 l-0.3-0.2h0.3l-0.1-0.3h0.4l-0.2-0.2h0.2l-0.1-0.2h0.2v-0.3h0.2v-0.1v-0.1l0.5-0.6l0.2,0.4l0.4-0.1l-0.4,0.3l0.4-0.2l-0.2,0.2 l0.2-0.1l-0.2,0.3l0.2-0.1l-0.2,0.2l0.3-0.1l-0.5,0.4h0.3l-0.2,0.2l-0.4,0.4l0.2-0.1l-0.2,0.2c-0.1,0.2-0.1,0.4-0.2,0.6l0.4-0.5 l0.2-0.3h0.3v-0.3l0.2,0.1l0.2-0.5l0,0l0.1,0.2l0.4-0.4c0,0.1,0.1,0.1,0.1,0.1l0.3-0.5l0.1,0.2l0.5-0.5v0.2l0.6-0.5l0.1,0.2 l0.6-0.4l0.1,0.1l0.5-0.5l0.2,0.2l0.7-0.4v0.2l1-0.5l-0.8,0.5l0.3-0.1l-0.6,0.3l0.6-0.1l-0.8,0.3h0.5l-0.9,0.3h0.4l-0.8,0.3h0.3 l-0.8,0.3h0.4l-0.9,0.2h0.2l-0.6,0.2v0.1l-0.6,0.2h0.5l-1.2,0.3h0.3l-1.1,0.3l-0.4,0.2l-0.2,0.4l1.2-0.6l0.5-0.2l0.8-0.4l0.1,0.1 l0.8-0.4l-0.2,0.2l0.9-0.5l-0.1,0.2l1-0.4l-0.2,0.2l1.1-0.4l-0.3,0.2l1-0.4l-0.3,0.3l1-0.4l-0.2,0.2l1.1-0.3l-0.2,0.2l0.9-0.2 l-0.4,0.2l1.1-0.2l-0.4,0.2l1-0.3l-0.3,0.2l0.7-0.2l-0.1,0.1l1.4-0.1l0,0h-0.1l-1.3,0.5h0.1l-0.7,0.1l0.3,0.1l-1,0.2h0.5l-1.1,0.2 h0.4l-0.9,0.2l0.3,0.1l-1.1,0.2l0.3,0.1l-1,0.1l0.4,0.1l-1.1,0.1l0.3,0.1l-1.1,0.2l0.2,0.1h-1l0.1,0.2h-1l0.2,0.1h-0.8l0,0.1h-0.8 h-0.5h-1.3l0.3,0.3h0.4l1.1-0.2l-0.3,0.2l1.2-0.2l-0.4,0.2l0.6-0.1V127l0.6-0.1l-0.2,0.1l0.9-0.2l-0.3,0.1l0.9-0.1l-0.3,0.1 l0.9-0.1l-0.4,0.2l1-0.1l-0.4,0.2h0.8l-0.6,0.2h0.6l-0.3,0.1l0.9,0.1h-1.1v0.2l-0.8-0.1l-0.2,0.3l-0.6-0.2l-0.1,0.2l-0.6-0.1v0.2 l-0.7-0.2l0.1,0.2l-0.6-0.2l-0.1,0.2l-0.4-0.3c0,0,0,0.1,0,0.1l-0.5-0.2c0,0-0.1,0.2-0.1,0.2l-0.3-0.3l-0.1,0.2l-0.1-0.3l-0.2,0.1 l-0.2-0.3l-0.5-0.3l0.3,0.5l0.2,0.1h-0.2l0.5,0.2l0.3,0.1l-0.3,0.1l0.5,0.1h-0.3l0.2,0.2l-0.2,0.1l0.3,0.2h-0.2l0.2,0.1h-0.4 l0.4,0.2h-0.4L664.8,129.3z"/> <path class="st7" d="M641.8,157.9l-0.6,0.8l-0.1,0.1l-0.2,0.1l0.2,0.1l-0.4,0.3l0.2,0.1l-0.4,0.2l0.2,0.1l-0.5,0.1l0.2,0.1 l-0.6,0.3l0.2,0.1l-0.6,0.1l0.1,0.2h-0.6l-0.6,0.3h0.5l0.5,0.1L639,161h0.3v0.2h0.3v0.1l0.2,0.3l-0.4-0.1l-0.3-0.1l-0.1,0.2 l-0.3-0.2l-0.1,0.1l-0.3-0.2l-0.2-0.1l-0.1,0.1l-0.2-0.3h-0.3l0,0l1,2l0,0h-0.1l-1.2-2l0,0l-0.1,0.3l0.1,0.3h-0.1v0.6H637v0.4 h-0.2l-0.1,0.3l-0.1,0.4l-0.1-0.3h-0.1l0.2-0.2l-0.2-0.1l0.2-0.3h-0.2c0-0.1,0.1-0.3,0.1-0.5l0.3-0.4l-0.6,0.4l-0.3,0.5l-0.1-0.1 l-0.3,0.4v-0.2l-0.5,0.4v-0.3l-0.3,0.3v-0.2l-0.3,0.2v-0.2l-0.5,0.2v-0.2l-0.2,0.1l-0.2,0.1l-1,0.1l0.7-0.5l-0.2-0.2h0.6l-0.2-0.2 l0.4-0.1l-0.1-0.1l0.5-0.1l-0.1-0.1l0.4-0.1l-0.2-0.1h0.6v-0.2h0.3h0.6l-0.1-0.1h0.2l1-0.4l-0.9,0.2l-0.6,0.2v-0.2l-0.5,0.2 l0.2-0.2l-0.8,0.2l0,0c0.1-0.1,0.2-0.1,0.3-0.2H634c0.1,0,0.1-0.1,0.1-0.1l-0.8,0.2l0.3-0.2h-0.8l0.3-0.2h-0.9l0.3-0.2l-0.6-0.1 l0.2-0.2h-0.8l0.4-0.4l-0.6-0.2l0.3-0.1l-0.8-0.4l0.8,0.2l-0.1-0.2l0.5,0.2l-0.1-0.4l0.5,0.3l0.1-0.4l0.5,0.4V159l0.5,0.4v-0.2 l0.5,0.4v-0.3l0.4,0.4l0.1-0.2l0.2,0.3l0.2-0.1l0.2,0.3v-0.3l0.5,0.6c0-0.1,0-0.2,0.1-0.3l0.5,0.6l0.3,0.1l0.7-0.2l-0.9-0.4 l-0.3-0.2l-0.7-0.2l0.2-0.2l-0.6-0.2h0.3l-0.8-0.3l0.4-0.1l-0.7-0.4h0.3l-0.6-0.5h0.3l-0.6-0.4h0.5l-0.6-0.4h0.4l-0.5-0.6h0.4 l-0.3-0.5l0.3,0.1l-0.3-0.6l0.4,0.1l-0.4-0.5h0.4l-0.3-0.4h0.2l-0.1-0.9l0,0l0,0l0.8,0.6l0.1-0.1l0.2,0.5l0.2-0.3l0.2,0.6l0.1-0.4 l0.4,0.6v-0.3l0.3,0.6l0.2-0.3l0.2,0.7l0.2-0.3l0.1,0.7l0.2-0.4l0.1,0.8l0.2-0.3l0.2,0.8l0.2-0.2v0.8l0.3-0.3l-0.1,0.8l0.2-0.2 l-0.1,0.7l0.2-0.1l-0.1,0.7v0.4c0,0.3,0,0.6,0,1l0.5-0.5v-0.3c-0.1-0.2-0.2-0.5-0.2-0.7l0.3,0.1c-0.1-0.2-0.2-0.5-0.3-0.7l0.3,0.2 l-0.1-0.4l0.2-0.1l-0.2-0.4h0.2l-0.2-0.5l0.2,0.1l-0.1-0.6l0.2,0.1v-0.6l0.2,0.2l-0.1-0.6l0.3,0.1v-0.6l0.2,0.3l0.1-0.6l0.1,0.2 l0.3-0.8l-0.1,0.8l0.3-0.2l-0.2,0.6l0.6-0.2l-0.4,0.7l0.3-0.1l-0.2,0.6l0.4-0.2l-0.5,0.8l0.3-0.2l-0.4,0.7l0.4-0.1l-0.5,0.6 l0.2-0.1c-0.1,0.2-0.3,0.5-0.3,0.5c0.1,0,0.2-0.1,0.3-0.1c0.1,0-0.6,0.6-0.6,0.6l0.3-0.1l-0.5,0.3l0.2,0.1l-0.5,0.4l-0.6,0.7 l0.9-0.7l0.1-0.2v0.1l0.3-0.5l0.2-0.3l0.2,0.1l0.3-0.5v0.2l0.3-0.3l0.1,0.1l0.3-0.4v0.2l0.2-0.3l0.1,0.3l0.3-0.5v0.3L641.8,157.9z "/> <path class="st7" d="M595.8,199.1l0.6,0.8l-0.8-0.4l-0.1,0.3l-0.3-0.5l-0.1,0.4l-0.2-0.3l-0.1,0.2l-0.3-0.4l-0.1,0.2l-0.3-0.4v0.3 l-0.2-0.6l-0.2,0.2l-0.2-0.3l-0.3-0.6v0.2l-0.1-0.2c-0.3-0.2-0.6-0.5-0.9-0.7l0.6,0.8l0.5,0.4l-0.2,0.1l0.4,0.3l-0.3-0.1l0.6,0.6 l0,0c-0.1-0.1-0.2-0.1-0.3-0.1l0.3,0.6c0,0-0.1,0-0.2-0.1l0.5,0.7l-0.4-0.1l0.4,0.8l-0.3-0.2l0.4,0.8l-0.4-0.1l0.2,0.7l-0.3-0.1 l0.4,0.7l-0.6-0.1l0.1,0.8l-0.2-0.2v1l-0.2-0.9l-0.1,0.2l-0.1-0.6l-0.3,0.4l0.1-0.7l-0.4,0.2l0.2-0.8l-0.3,0.2l0.1-0.7l-0.2,0.2 l0.2-0.7l-0.3,0.2l0.3-0.7l-0.2,0.1l0.2-0.4l-0.2-0.1l0.2-0.4l-0.3,0.2l0.4-0.9l-0.3,0.1l0.3-0.9c0-0.1,0-0.2,0-0.4 c-0.2-0.2-0.3-0.3-0.5-0.5c0,0.4,0,0.8-0.1,1.1c0,0.1,0,0.3,0,0.4l0.1,0.8l-0.2-0.1v0.8l-0.2-0.3l0.1,0.9l-0.3-0.3l-0.1,0.9 l-0.1-0.3l-0.3,0.9l-0.2-0.4l-0.2,0.9l-0.2-0.4l-0.1,0.9l-0.2-0.4l-0.3,0.9l-0.2-0.4l-0.3,0.7v-0.4l-0.5,0.8v-0.4l-0.3,0.8 l-0.2-0.4l-0.2,0.6L588,205l-0.9,0.8l0,0v-0.1l0.3-1.1h-0.2l0.4-0.5h-0.4l0.5-0.7l-0.4,0.2l0.4-0.8l-0.3,0.2l0.4-0.6h-0.4l0.6-0.7 h-0.4l0.7-0.6h-0.5l0.7-0.6h-0.4l0.7-0.7h-0.3l0.7-0.6l-0.4-0.1l0.8-0.4h-0.3l0.7-0.4l-0.2-0.2l0.7-0.4l0.3-0.2 c0.3-0.2,0.6-0.4,1-0.6l0.7-0.4l0,0l0.3-0.1l0.3-0.2l0.2-0.2l0.3-0.3v0.1l0.3-0.3l0.1,0.2l0.3-0.1l0.4-0.2l-0.3,0.4v0.2h-0.3v0.2 h-0.3l0.1,0.2l-0.5,0.2H593l0.6,0.3l0.6-0.1l-0.1,0.2h0.6l-0.2,0.1l0.6,0.2l-0.2,0.2l0.5,0.1l-0.2,0.1l0.4,0.2l-0.2,0.1l0.4,0.3 l-0.2,0.1l0.2,0.1L595.8,199.1z"/> <path class="st7" d="M641,106.4l-0.9,0.5l0.5-0.8l-0.3-0.1l0.6-0.2l-0.3-0.2l0.3-0.2l-0.2-0.1l0.5-0.2l-0.2-0.1l0.4-0.2l-0.3-0.1 l0.6-0.1l-0.1-0.2l0.3-0.1l0.6-0.2l-0.2-0.1l0.2-0.1l0.8-0.8l-0.8,0.5L642,104l-0.1-0.2l-0.4,0.4l0.1-0.3l-0.7,0.5l0,0 c0.1-0.1,0.1-0.2,0.2-0.3l-0.6,0.2c0,0,0.1-0.1,0.1-0.2l-0.7,0.4l0.2-0.3l-0.8,0.3l0.2-0.3l-0.9,0.3l0.2-0.3l-0.7,0.1l0.1-0.3 l-0.8,0.3l0.2-0.6h-0.8l0.2-0.2l-1-0.1l0.9-0.1l-0.2-0.2h0.6l-0.3-0.3l0.7,0.2l-0.2-0.4l0.8,0.3l-0.2-0.3l0.7,0.2l-0.2-0.2 l0.7,0.2l-0.2-0.3l0.6,0.3v-0.2l0.4,0.3l0.1-0.2l0.4,0.2l-0.2-0.3l0.8,0.5l-0.1-0.3l0.8,0.4h0.4l0.5-0.4l-1.1-0.2l-0.4-0.1h-0.8 l0.1-0.2l-0.8-0.1l0.3-0.1h-0.9l0.3-0.3l-0.9-0.2l0.3-0.1l-0.9-0.4l0.4-0.2l-0.9-0.3l0.5-0.2l-0.8-0.2l0.4-0.1l-0.8-0.4l0.4-0.1 l-0.7-0.4h0.4l-0.7-0.5h0.5l-0.7-0.4l0.4-0.1l-0.5-0.3h0.2l-0.7-1h0.1l1.1,0.4v-0.2l0.4,0.4v-0.4l0.6,0.6l-0.1-0.4l0.7,0.5 l-0.2-0.4l0.6,0.5v-0.4l0.6,0.7v-0.4l0.5,0.7V98l0.5,0.8v-0.4l0.6,0.7v-0.3l0.5,0.8l0.2-0.4l0.3,0.9v-0.3l0.3,0.7l0.2-0.2l0.2,0.8 l0.2,0.4c0.2,0.3,0.3,0.7,0.5,1l0.3,0.7l0,0c0,0.1,0,0.2,0,0.3l0.2,0.3l0.2,0.3l0.2,0.4h-0.1l0.2,0.4l-0.2,0.1l0.1,0.3l0.1,0.4 l-0.3-0.3h0V105h-0.2v-0.3l-0.2,0.1c0-0.2-0.1-0.4-0.1-0.5s0-0.3,0-0.5l-0.3,0.6v0.7l-0.2-0.1l-0.1,0.6l-0.1-0.2l-0.3,0.5 l-0.2-0.3l-0.2,0.5l-0.1-0.2l-0.2,0.3l-0.1-0.2l-0.3,0.4l-0.1-0.2l-0.2,0.2L641,106.4z"/> <path class="st7" d="M638.1,149.5l-0.3,1l-0.2-0.9l-0.3,0.2l0.2-0.5l-0.3,0.1l0.1-0.4l-0.2,0.1l0.2-0.5H637l0.1-0.4l-0.2,0.1 l0.3-0.5l-0.2-0.1l0.2-0.3l0.3-0.6l-0.2,0.1l0.1-0.2c0-0.4,0-0.7,0-1.1c-0.1,0.3-0.2,0.6-0.2,0.9l-0.1,0.6l-0.2-0.1v0.6l-0.2-0.3 c0,0-0.1,0.8-0.1,0.8l0,0c0-0.1-0.1-0.2-0.1-0.3c0,0-0.2,0.4-0.3,0.6c0-0.1,0-0.1-0.1-0.2l-0.2,0.8l-0.2-0.4l-0.4,0.8v-0.4 l-0.4,0.9l-0.1-0.4l-0.4,0.5l-0.1-0.3l-0.3,0.7l-0.2-0.5l-0.5,0.5v-0.3l-0.8,0.6l0.6-0.7l-0.3,0.1l0.4-0.5h-0.5l0.6-0.4l-0.4-0.2 l0.7-0.4l-0.4-0.1l0.6-0.4l-0.3-0.1l0.7-0.3l-0.3-0.1l0.7-0.2l-0.2-0.1l0.5-0.1v-0.2l0.5-0.1l-0.4-0.1l0.9-0.3l-0.3-0.1l0.9-0.3 l0.3-0.2c0-0.2,0-0.5,0.1-0.7c-0.3,0.2-0.6,0.4-0.9,0.7l-0.3,0.2l-0.6,0.6l-0.1-0.2l-0.6,0.5l0.1-0.3l-0.7,0.6v-0.4l-0.8,0.5 l0.1-0.3l-0.9,0.4l0.2-0.4l-0.8,0.4l0.2-0.4l-0.8,0.4l0.2-0.4l-0.9,0.3l0.2-0.4l-0.8,0.2l0.3-0.2l-0.9,0.1l0.3-0.3l-0.8,0.2 l0.2-0.4l-0.6,0.2l0.1-0.1l-1.2-0.2l0,0l0,0l1-0.5l-0.1-0.1h0.6l-0.3-0.3h0.8l-0.4-0.2l0.9-0.1l-0.4-0.1l0.8-0.1l-0.2-0.3h0.9 l-0.3-0.3l0.8,0.2l-0.3-0.4l0.9,0.2l-0.3-0.3l0.9,0.1l-0.2-0.2l0.9,0.2l-0.1-0.4l0.8,0.4l-0.2-0.2l0.7,0.3v-0.2l0.7,0.3l0.4,0.1 l1.1,0.3l0.7,0.2l0,0l0.3,0.2l0.4,0.1l0.3,0.1l0.4,0.1v0.1l0.4,0.1l-0.1,0.2l0.3,0.2l0.4,0.2h-0.5l-0.1,0.1l-0.2-0.2l-0.1,0.1 l-0.2-0.2l-0.1,0.2l-0.5-0.3c-0.1-0.1-0.2-0.2-0.3-0.4l0.2,0.6l0.4,0.4l-0.2,0.1l0.3,0.5l-0.2-0.1l0.2,0.6l-0.3-0.1l0.2,0.4h-0.2 l0.1,0.4l-0.2-0.1v0.5H638v0.4L638.1,149.5z"/> <path class="st7" d="M627.2,120.3l-0.1,1l-0.4-0.8l-0.3,0.2l0.1-0.6l-0.3,0.2V120l-0.2,0.1v-0.5l-0.2,0.1v-0.4l-0.2,0.2l0.2-0.6 h-0.3l0.1-0.4l0.1-0.6l-0.2,0.1v-0.2c-0.1-0.4-0.1-0.7-0.2-1.1c0,0.3,0,0.6,0,0.9l0.1,0.6h-0.2l0.1,0.5l-0.2-0.2 c0,0,0.1,0.8,0.1,0.8l0,0c-0.1-0.1-0.1-0.2-0.2-0.3l-0.2,0.6c0-0.1-0.1-0.1-0.1-0.1v0.8l-0.2-0.3l-0.2,0.8l-0.1-0.4l-0.2,0.9 l-0.2-0.3l-0.3,0.6l-0.2-0.2l-0.2,0.8l-0.4-0.5l-0.4,0.7l-0.1-0.3l-0.6,0.8l0.4-0.8l-0.2,0.1l0.3-0.6l-0.4,0.1l0.5-0.5l-0.4-0.1 l0.6-0.5h-0.4l0.5-0.5h-0.3l0.6-0.4h-0.3l0.6-0.3l-0.2-0.1l0.5-0.2l-0.1-0.2l0.4-0.2c-0.1,0-0.3,0-0.4,0l0.8-0.5l-0.3-0.1l0.8-0.4 l0.2-0.3c0-0.2,0-0.4-0.1-0.7c-0.2,0.3-0.5,0.6-0.8,0.8l-0.3,0.3l-0.4,0.7l-0.1-0.2l-0.4,0.6v-0.3l-0.5,0.8l-0.1-0.4l-0.6,0.7 l0.1-0.3l-0.8,0.5l0.1-0.4l-0.7,0.6l0.1-0.5l-0.7,0.6l0.1-0.4l-0.8,0.5l0.1-0.4l-0.7,0.3l0.2-0.3l-0.8,0.3l0.2-0.4l-0.7,0.4 l0.1-0.4l-0.5,0.3V120l-1.2,0.1l0,0l0,0l0.9-0.7l-0.1-0.1l0.6-0.1l-0.3-0.2l0.8-0.2l-0.4-0.1l0.8-0.3h-0.4l0.7-0.2l-0.3-0.2 l0.9-0.2l-0.3-0.2h0.9l-0.4-0.3h0.9l-0.3-0.2l0.9-0.1l-0.3-0.2h0.9l-0.2-0.3l0.9,0.2l-0.2-0.2l0.7,0.1v-0.2l0.8,0.2h0.4 c0.4,0,0.8,0.1,1.1,0.1l0.8,0.1l0,0l0.3,0.1h1.1v0.1h0.4v0.2l0.3,0.1l0.4,0.1l-0.5,0.1l-0.1,0.1l-0.2-0.2l-0.1,0.2l-0.3-0.2v0.2 l-0.5-0.2l-0.4-0.3l0.3,0.6l0.5,0.3l-0.2,0.1l0.4,0.4H627l0.3,0.5H627l0.3,0.4h-0.2l0.2,0.3h-0.2l0.1,0.5H627v0.2L627.2,120.3z"/> <path class="st7" d="M603,181l0.8-0.6l-0.9,0.1v-0.3l-0.4,0.4v-0.4l-0.3,0.2v-0.2l-0.4,0.3l-0.1-0.2l-0.4,0.2v-0.3l-0.4,0.5 l-0.2-0.2l-0.3,0.3l-0.5,0.4v-0.2l-0.2,0.2l-1,0.4l0.8-0.5l0.6-0.3l-0.1-0.2l0.5-0.2l-0.3-0.1l0.8-0.4l0,0c-0.1,0-0.2,0-0.4,0 c0,0,0.3-0.3,0.4-0.5c-0.1,0-0.1,0-0.2,0l0.7-0.5h-0.4l0.6-0.6l-0.4,0.1l0.7-0.7h-0.4l0.4-0.6h-0.3l0.6-0.6l-0.6-0.1l0.3-0.7 l-0.3,0.1l0.3-0.9l-0.5,0.8l-0.1-0.3l-0.3,0.6l-0.1-0.4l-0.1,0.7l-0.3-0.3l-0.1,0.8l-0.2-0.3l-0.1,0.7l-0.2-0.2l-0.1,0.7l-0.2-0.3 v0.7l-0.2-0.1l0.1,0.5l-0.2,0.1v0.5l-0.2-0.3l0.1,1l-0.2-0.2l0,0.9c0,0.1-0.1,0.2-0.1,0.4l-0.6,0.3c0.1-0.4,0.2-0.7,0.3-1.1 l0.1-0.4l0.3-0.7h-0.2l0.3-0.7l-0.2,0.2l0.3-0.9l-0.4,0.2l0.2-0.9l-0.2,0.2v-0.9l-0.3,0.3l0.1-0.9l-0.3,0.4l0.1-0.9l-0.3,0.3v-0.9 l-0.3,0.3l-0.1-0.8l-0.1,0.4l-0.2-0.9l-0.2,0.4l-0.1-0.8l-0.3,0.3v-0.6l-0.1,0.1l-0.6-1l0,0v0.1l-0.1,1.2l-0.1-0.1l0.2,0.6 l-0.4-0.2l0.2,0.8l-0.3-0.3l0.2,0.9l-0.3-0.3l0.2,0.7l-0.4-0.1l0.3,0.9l-0.4-0.1l0.5,0.7l-0.5-0.2l0.5,0.8L596,177l0.4,0.9 l-0.3-0.1l0.5,0.8h-0.4l0.7,0.6l-0.3-0.1l0.5,0.6l-0.2,0.1l0.6,0.6l0.2,0.4c0.2,0.3,0.5,0.6,0.7,0.9l0.5,0.6l0,0 c0.1,0.1,0.2,0.1,0.3,0.2l0.2,0.3l0.2,0.3l0.2,0.4l0.1-0.1l0.2,0.4l0.1-0.1l0.3,0.2l0.3,0.3l-0.1-0.4l0.1-0.1l-0.3-0.1l0.1-0.2 l-0.3-0.1l0.1-0.1c-0.2-0.1-0.3-0.2-0.4-0.4l-0.5-0.2h0.7l0.5,0.2v-0.2l0.5,0.1l-0.1-0.2l0.6-0.1l-0.2-0.2h0.5l-0.1-0.2h0.4 l-0.1-0.2l0.5-0.1l-0.1-0.2l0.2-0.1L603,181z"/> <path class="st7" d="M673,138.5l0,1l0.5-0.7l0.2,0.2v-0.6l0.3,0.3v-0.4l0.2,0.1v-0.5l0.2,0.1l0.1-0.4l0.2,0.2l-0.1-0.6h0.3v-0.4 l-0.1-0.6l0.1,0.1V136c0.1-0.4,0.2-0.7,0.4-1.1l-0.1,0.9l-0.2,0.6h0.2l-0.2,0.5l0.2-0.2l-0.2,0.8l0,0c0.1-0.1,0.1-0.2,0.2-0.3 c0,0,0.1,0.4,0.1,0.7c0-0.1,0.1-0.1,0.1-0.1l-0.1,0.8l0.3-0.3l0.1,0.9l0.2-0.4l0.1,0.9l0.2-0.3l0.2,0.7l0.2-0.2l0.1,0.8l0.4-0.4 l0.3,0.7l0.1-0.3l0.5,0.9l-0.3-0.9l0.2,0.1l-0.2-0.6l0.4,0.2l-0.5-0.6h0.4l-0.6-0.6l0.4,0.1l-0.5-0.6h0.3l-0.5-0.5h0.3l-0.6-0.4 h0.2l-0.4-0.3l0.1-0.2l-0.4-0.3l0.4,0.1l-0.8-0.6l0.3-0.1l-0.7-0.6l-0.2-0.3l0.2-0.7c0.2,0.3,0.4,0.6,0.7,1l0.3,0.3l0.3,0.7 l0.2-0.2l0.4,0.7v-0.3l0.4,0.8l0.1-0.4l0.5,0.7v-0.3l0.7,0.6v-0.4l0.6,0.7v-0.5l0.6,0.7v-0.4l0.7,0.6V139l0.7,0.4l-0.2-0.3 l0.8,0.4l-0.2-0.4l0.7,0.5v-0.4l0.5,0.4v-0.1l1.2,0.2l0,0l0,0l-0.8-0.9l0.1-0.1l-0.5-0.2l0.4-0.2l-0.8-0.3l0.4-0.1l-0.8-0.4h0.4 l-0.7-0.3l0.3-0.2l-0.9-0.3l0.4-0.2l-0.9-0.1l0.4-0.2l-0.9-0.1l0.4-0.2l-0.9-0.2l0.3-0.1l-0.9-0.1l0.3-0.3l-0.9,0.1l0.3-0.2h-0.8 l0.1-0.2l-0.8,0.1H677c-0.4,0-0.8,0-1.2-0.1h-0.8l0,0l-0.3,0.1l-0.4-0.1h-0.3h-0.4v0.1l-0.4-0.1v0.2l-0.3,0.1l-0.4,0.1l0.4,0.2 l0.1,0.1l0.3-0.1l0.1,0.2l0.3-0.1v0.2l0.5-0.1c0.1-0.1,0.3-0.2,0.4-0.2l-0.4,0.6l-0.5,0.2l0.2,0.1l-0.5,0.3h0.2l-0.4,0.5h0.3 l-0.3,0.3h0.2l-0.2,0.3h0.2l-0.2,0.4h0.2l-0.1,0.2L673,138.5z"/> <path class="st7" d="M648,176.4l-0.9,0.4h-0.2h-0.2l0.1,0.2h-0.5l0.1,0.2h-0.4l0.1,0.2l-0.5-0.1l0.1,0.2l-0.6-0.1l0.1,0.2 l-0.5-0.2v0.2l-0.5-0.3l-0.7-0.1l0.4,0.2l0.3,0.3l-0.2,0.1l0.3,0.2l-0.1,0.1l0.2,0.1l-0.1,0.1l0,0.4l-0.3-0.3l-0.2-0.2l-0.2,0.1 l-0.2-0.3l-0.1,0.1l-0.2-0.3l-0.1-0.2h-0.1v-0.3l-0.3-0.2l0,0l-0.1,2.4l0,0l-0.1-0.1v-2.3l0,0l-0.3,0.2l-0.1,0.3l-0.1-0.1 l-0.1,0.2l-0.2,0.3l-0.1-0.1l-0.2,0.3l-0.2-0.1l-0.2,0.2l-0.3,0.3v-0.4l-0.1-0.1l0.2-0.1l-0.1-0.1l0.3-0.1l-0.2-0.1l0.3-0.3 l0.5-0.2l-0.7,0.1l-0.5,0.3v-0.2l-0.5,0.2l0.1-0.2l-0.6,0.1l0.1-0.2l-0.5,0.1l0.1-0.1h-0.4l0.1-0.1l-0.5-0.1l0.1-0.1h-0.2h-0.2 l-0.9-0.4l0.9-0.1l-0.1-0.3l0.5,0.3l-0.1-0.3l0.3,0.1v-0.2l0.5,0.2v-0.2l0.4,0.1l-0.1-0.2l0.5,0.3l0.1-0.2l0.3,0.2l0.5,0.3v-0.1 l0.2,0.1l1.1,0.2l-0.9-0.3l-0.6-0.1l0.1-0.1l-0.6-0.1l0.3-0.1l-0.8-0.2l0,0c0.1,0,0.2,0,0.4,0c0,0-0.3-0.2-0.5-0.3h0.2l-0.8-0.3 l0.4-0.1l-0.7-0.4h0.4l-0.8-0.4h0.4l-0.5-0.4l0.3-0.1l-0.7-0.4l0.6-0.1l-0.5-0.5h0.3L638,172l0.6,0.6v-0.2l0.4,0.4v-0.4l0.3,0.6 l0.2-0.3l0.2,0.6l0.1-0.3l0.3,0.6l0.1-0.2l0.2,0.6l0.1-0.2l0.1,0.6l0.2-0.1v0.4h0.2l0.1,0.4l0.2-0.3l0.1,0.8l0.2-0.2l0.1,0.7 l0.2,0.3l0.7,0.2l-0.5-0.8l-0.2-0.3l-0.5-0.5h0.2l-0.4-0.5l0.3,0.1l-0.5-0.6l0.4,0.1L641,173l0.3,0.1l-0.2-0.7l0.3,0.2l-0.3-0.7 l0.4,0.2l-0.3-0.6l0.3,0.2l-0.2-0.7l0.3,0.2v-0.6l0.2,0.3v-0.7l0.3,0.3l-0.1-0.7l0.3,0.2l-0.1-0.5l0.1,0.1l0.4-0.9l0,0l0,0 l0.3,0.9l0.1-0.1l-0.1,0.5l0.3-0.2l-0.1,0.7l0.3-0.3v0.7l0.2-0.3l0,0.6l0.3-0.2l-0.2,0.7l0.3-0.2l-0.3,0.6l0.4-0.2l-0.3,0.7 l0.3-0.2l-0.2,0.7l0.3-0.1l-0.4,0.7l0.4-0.1l-0.5,0.6l0.3-0.1l-0.4,0.5l0.2,0.1l-0.5,0.5l-0.2,0.3c-0.2,0.3-0.4,0.5-0.5,0.8 l0.7-0.1l0.2-0.2c0-0.2,0.1-0.5,0.1-0.7l0.2,0.2c0-0.3,0.1-0.5,0.1-0.8l0.1,0.3l0.1-0.4h0.2v-0.4l0.2,0.1l0.1-0.6l0.1,0.2l0.2-0.6 l0.1,0.2l0.3-0.6l0.1,0.3l0.2-0.6l0.2,0.3l0.3-0.5v0.4l0.4-0.4v0.2l0.7-0.6l-0.5,0.7h0.3l-0.5,0.5l0.6,0.1l-0.7,0.4l0.3,0.1 l-0.5,0.4h0.4l-0.8,0.4h0.4l-0.7,0.4l0.4,0.1l-0.8,0.2c0.1,0,0.1,0,0.2,0c-0.2,0.1-0.5,0.3-0.5,0.3c0.1,0,0.2,0.1,0.4,0.1 l-0.8,0.2l0.3,0.1l-0.6,0.1l0.1,0.1l-0.6,0.1l-0.9,0.3l1.1-0.1l0.2-0.1v0.1l0.5-0.3l0.3-0.2l0.1,0.2l0.5-0.3l-0.1,0.2l0.4-0.1v0.2 l0.5-0.2v0.2l0.3-0.1l-0.1,0.3l0.5-0.3l-0.1,0.3L648,176.4z"/> <path class="st7" d="M638.2,201.2l-0.8,0.6l-0.2,0.1l-0.2,0.1l0.1,0.1l-0.4,0.2l0.1,0.1l-0.4,0.1l0.1,0.1l-0.5,0.1l0.2,0.1 l-0.6,0.2l0.1,0.1l-0.5,0.1v0.1h-0.5l-0.6,0.2h0.5l0.4,0.1l-0.1,0.1h0.3l-0.1,0.1h0.2l-0.1,0.1l0.1,0.2l-0.3-0.1h-0.2l-0.1,0.1 l-0.2-0.1l-0.1,0.1l-0.2-0.1l-0.2-0.1l-0.1,0.1l-0.1-0.2h-0.3l0,0c0.2,0.5,0.3,1,0.5,1.5h-0.1l-0.6-1.4l0,0l-0.2,0.2v0.2h-0.1 l-0.1,0.2l-0.1,0.2h-0.1l-0.1,0.3h-0.2l-0.2,0.2l-0.2,0.3v-0.2h-0.1l0.2-0.2h-0.1l0.2-0.2h-0.2l0.2-0.3l0.4-0.3l-0.6,0.3l-0.4,0.3 l-0.1-0.1l-0.4,0.3v-0.1l-0.5,0.3v-0.2l-0.4,0.2v-0.1l-0.4,0.2v-0.1l-0.5,0.1v-0.1l-0.2,0.1l-0.2,0.1l-0.9,0.1l0.8-0.4l-0.2-0.1 h0.5l-0.2-0.1l0.3-0.1l-0.1-0.1l0.5-0.1v-0.1l0.4-0.1l-0.1-0.1h0.5v-0.2h0.9l-0.1-0.1h0.2l1-0.3l-0.8,0.1l-0.6,0.1l0-0.1l-0.5,0.2 l0.2-0.2l-0.8,0.2l0,0c0.1,0,0.2-0.1,0.3-0.2h-0.6l0.2-0.1l-0.8,0.1l0.3-0.2h-0.7l0.3-0.1h-0.8l0.3-0.2l-0.5-0.1l0.4-0.2h-0.7 l0.5-0.3l-0.5-0.1l0.3-0.1l-0.6-0.2l0.7,0.1l-0.1-0.1l0.5,0.1v-0.2l0.4,0.2l0.1-0.2l0.3,0.3l0-0.2l0.4,0.2l0.1-0.2l0.3,0.3 l0.1-0.2l0.2,0.3l0.1-0.1l0.1,0.2l0.2-0.1l0.1,0.2l0.1-0.2l0.3,0.4c0-0.1,0.1-0.1,0.1-0.2l0.3,0.4l0.2,0.1l0.6-0.1l-0.7-0.3 l-0.2-0.1l-0.5-0.1l0.2-0.1l-0.5-0.2h0.3l-0.6-0.2l0.4-0.1l-0.5-0.3h0.3l-0.4-0.4h0.3l-0.4-0.3h0.4l-0.4-0.3h0.3l-0.3-0.4h0.3 L631,200l0.2,0.1l-0.2-0.4l0.3,0.1l-0.2-0.4h0.3l-0.2-0.3h0.1l0.1-0.7l0,0l0,0l0.5,0.4l0.1-0.1v0.3l0.3-0.2l0.1,0.4l0.2-0.3 l0.2,0.4l0.1-0.2l0.1,0.4l0.2-0.2v0.5l0.3-0.2l-0.1,0.5l0.3-0.3l-0.1,0.5l0.3-0.2v0.5l0.2-0.2L634,201l0.3-0.2l-0.3,0.6l0.2-0.2 l-0.3,0.5l0.2-0.1l-0.3,0.5l-0.1,0.2c-0.1,0.2-0.2,0.5-0.3,0.7l0.6-0.3l0.1-0.2V202l0.2,0.1l-0.1-0.5l0.2,0.1v-0.3l0.2-0.1 l-0.1-0.2h0.2v-0.4l0.2,0.1l0.1-0.4l0.2,0.1l0.1-0.4l0.2,0.1l0.1-0.5l0.3,0.1l0.1-0.4l0.1,0.2l0.3-0.4v0.1l0.5-0.6l-0.3,0.6 l0.3-0.1l-0.3,0.5l0.5-0.1l-0.5,0.5l0.3-0.1l-0.3,0.4l0.4-0.1l-0.6,0.5l0.3-0.1l-0.6,0.5l0.4-0.1l-0.6,0.4l0.2-0.1l-0.4,0.4 c0.1,0,0.2-0.1,0.3-0.1l-0.7,0.4h0.3l-0.5,0.2l0.1,0.1l-0.5,0.3l-0.7,0.5l1-0.5l0.2-0.1v0.1l0.4-0.4l0.2-0.2l0.1,0.1l0.4-0.4v0.1 l0.3-0.2l0,0.1l0.4-0.3v0.1l0.3-0.2v0.2l0.4-0.3v0.2L638.2,201.2z"/> <path class="st7" d="M671.3,138.2l-0.9,0.4l-0.2,0.1l-0.2,0.1v-0.1l-0.5,0.3v-0.1l-0.4,0.2V139l-0.4,0.3l0.1-0.1l-0.5,0.4v-0.1 l-0.4,0.4h-0.1l-0.4,0.4l-0.6,0.4l0.3-0.3l0.2-0.3l-0.2,0.1l0.2-0.2h-0.1l0.2-0.2h-0.1v-0.1l-0.2,0.2l-0.2,0.2l-0.2,0.1l-0.1,0.2 h-0.1l-0.1,0.2l-0.1,0.1h-0.1v0.1l-0.2,0.2l0,0l-0.6-0.7l0,0l-0.1,0.1l0.5,0.8l0,0l-0.3,0.1l-0.1-0.1l-0.1,0.1h-0.4l-0.1,0.1H665 l-0.1,0.1l-0.2,0.1l-0.3,0.1l0.1,0.1v0.1l0.2-0.1l-0.1,0.1l0.3-0.1l-0.1,0.1l0.4-0.1l0.5-0.2l-0.6,0.4l-0.5,0.2v0.1l-0.5,0.2h0.1 l-0.6,0.3h0.2l-0.5,0.2h0.1l-0.4,0.2h0.1l-0.4,0.3h0.1l-0.2,0.1l-0.2,0.1l-0.7,0.6l0.8-0.5v0.1l0.4-0.4v0.1l0.3-0.2v0.1l0.4-0.3 h0.1l0.3-0.3v0.1l0.3-0.4h0.1l0.2-0.2l0.4-0.4v0.2l0.2-0.1l1-0.7l-0.7,0.6l-0.5,0.4h0.1l-0.5,0.3l0.3-0.1l-0.7,0.5l0,0l0.3-0.2 l-0.4,0.4c0.1,0,0.1-0.1,0.2-0.1l-0.6,0.5l0.3-0.2l-0.5,0.5l0.3-0.2l-0.6,0.6l0.4-0.2l-0.3,0.4l0.3-0.1l-0.5,0.5l0.5-0.2l-0.3,0.4 l0.3-0.2l-0.3,0.5l0.4-0.5v0.1l0.2-0.4l0.1,0.1l0.1-0.3h0.3l0.1-0.3h0.2l0.1-0.3h0.1l0.1-0.3h0.2l-0.1-0.2l0.2-0.1l-0.1-0.1 l0.2-0.1v-0.2h0.2l-0.1-0.3l0.2-0.1l-0.1-0.3l0.1-0.2l0.5-0.4l-0.3,0.6L666,142l-0.3,0.4l0.2-0.1l-0.2,0.4l0.2-0.2l-0.3,0.5 l0.3-0.2l-0.2,0.4l0.2-0.2v0.4l0.3-0.2l-0.1,0.4l0.3-0.3l-0.1,0.4l0.3-0.2v0.3l0.2-0.2l0.1,0.2l0.1-0.2l0.2,0.2l0.2-0.2l0.1,0.3 l0.3-0.2v0.2l0.1-0.1l0.5,0.1l0,0l0,0l0.1-0.5h0.1l-0.2-0.1l0.3-0.1l-0.2-0.2l0.3-0.1l-0.2-0.2h0.3l-0.2-0.2l0.3-0.1l-0.3-0.1 l0.3-0.1h-0.4l0.4-0.1l-0.5-0.1l0.3-0.1l-0.4-0.1l0.3-0.1h-0.5l0.4-0.2l-0.6,0.1l0.3-0.1l-0.5,0.1l0.2-0.1l-0.5,0.1h-0.2h-0.7 l0.6-0.3h0.2l0.3,0.2l0.1-0.2l0.3,0.2l0.1-0.2l0.2,0.1l0.2-0.1l0.1,0.1l0.1-0.1l0.2,0.1l0-0.1l0.3,0.1l0-0.1h0.4v-0.1l0.4,0.1 l0.1-0.2h0.4v-0.1l0.5-0.1l-0.1-0.1l0.7-0.2l-0.6,0.1l0.3-0.2l-0.5,0.1l0.5-0.4l-0.7,0.3l0.2-0.2l-0.5,0.1l0.3-0.2l-0.8,0.3 l0.3-0.2l-0.7,0.3l0.3-0.2l-0.7,0.3l0.2-0.1l-0.5,0.2c0,0,0.2-0.2,0.3-0.2l-0.8,0.4l0.2-0.2l-0.5,0.3l0-0.1l-0.6,0.3l-0.8,0.4 l1-0.6l0.2-0.1H668l0.5-0.2l0.3-0.1l0-0.1l0.5-0.1h-0.1l0.4-0.2v-0.1l0.5-0.2H670l0.3-0.1h-0.2l0.5-0.2h-0.2L671.3,138.2z"/> <path class="st7" d="M635.3,175.5l0.1,0.6v0.1v0.1h0.2l-0.1,0.3h0.2l-0.1,0.2h0.2l-0.2,0.2h0.2l-0.2,0.3h0.2l-0.3,0.2l0.2,0.1 l-0.4,0.2l-0.2,0.4l0.3-0.2l0.4-0.1v0.1l0.2-0.1l0.1,0.1l0.2-0.1l0.1,0.1l0.4,0.1h-0.3l-0.2,0.1l0,0.1h-0.3v0.1h-0.6v0.1l-0.3-0.1 l-0.2,0.1l0,0l2.2,0.8l0,0l-0.1,0.1l-2.2-0.8l0,0l0.1,0.2l0.3,0.1h-0.1l0.2,0.1l0.3,0.2h-0.1l0.3,0.2l-0.1,0.1l0.1,0.2l0.2,0.2 l-0.3-0.1h-0.1l-0.1-0.2H635l-0.1-0.2l-0.1,0.1l-0.2-0.3c0-0.1-0.1-0.2-0.1-0.3l-0.1,0.4l0.1,0.4h-0.2l0.1,0.4l-0.1-0.1l-0.1,0.4 l-0.2-0.1v0.3l-0.1-0.1l-0.1,0.2l-0.1-0.1l-0.2,0.3l-0.1-0.1l-0.1,0.1l-0.1,0.1l-0.5,0.4l0.1-0.5h-0.3l0.4-0.2h-0.3l0.2-0.1h-0.2 l0.3-0.2l-0.2-0.1l0.2-0.2h-0.2l0.4-0.2l-0.2-0.1l0.2-0.1l0.4-0.2h-0.2l0.2-0.1l0.4-0.6l-0.5,0.4l-0.3,0.3l-0.1-0.1l-0.2,0.3v-0.2 l-0.4,0.4l0,0c0-0.1,0-0.1,0-0.2c-0.1,0.1-0.3,0.1-0.4,0.2c0,0,0-0.1,0-0.1L632,180v-0.2l-0.5,0.3l0.1-0.2l-0.6,0.3l0.1-0.2 l-0.5,0.1v-0.2l-0.5,0.3v-0.4l-0.6,0.1l0.1-0.2h-0.8l0.7-0.2l-0.2-0.1l0.5-0.1l-0.3-0.1h0.6l-0.2-0.2l0.6,0.1l-0.2-0.2h0.6 l-0.2-0.1l0.6,0.1l-0.2-0.1l0.6,0.1l-0.1-0.1l0.4,0.1v-0.1l0.4,0.1l-0.2-0.2l0.8,0.2l-0.1-0.2l0.7,0.2h0.3l0.3-0.3h-1.2l-0.6,0.1 v-0.1h-0.6l0.2-0.1l-0.7,0.1l0.2-0.2h-0.7l0.2-0.1l-0.7-0.1l0.2-0.1l-0.7-0.1l0.3-0.2l-0.7-0.1l0.2-0.1l-0.7-0.2l0.2-0.1l-0.6-0.2 h0.3l-0.7-0.2l0.3-0.1l-0.6-0.2l0.2-0.1l-0.5-0.1h0.1l-0.8-0.5l0,0l0.9,0.1v-0.1l0.4,0.2l-0.1-0.2l0.6,0.3l-0.2-0.2l0.7,0.2 l-0.2-0.2l0.6,0.2l-0.1-0.2l0.6,0.3l-0.1-0.2l0.5,0.4l-0.1-0.3l0.6,0.4l-0.1-0.2l0.6,0.4l-0.1-0.2l0.5,0.4v-0.2l0.5,0.5v-0.2 l0.4,0.4l0.1-0.1l0.4,0.4l0.3,0.2l0.6,0.6c0-0.1,0-0.3,0-0.4l-0.2-0.2l-0.7-0.3h0.2l-0.7-0.3h0.3l-0.3-0.2v-0.1l-0.4-0.1h0.2 l-0.5-0.2h0.2l-0.5-0.3h0.2l-0.5-0.3h0.3l-0.5-0.4h0.3l-0.5-0.3l0.4,0.1l-0.3-0.4l0.2,0.1l-0.4-0.5l0.5,0.5l0-0.2l0.4,0.4l0.3-0.3 l0.2,0.5l0.1-0.1l0.3,0.4l0.1-0.2l0.2,0.6l0.1-0.2l0.2,0.5l0.2-0.2l0.1,0.5c0,0,0.1-0.1,0.1-0.1l0.2,0.4c0.1-0.1,0.1-0.1,0.1-0.2 v0.5l0.2-0.1l-0.1,0.3h0.2v0.4c0,0.2,0,0.4,0.1,0.6c0-0.2,0.1-0.4,0.1-0.7l0-0.1l0.1,0.1l-0.2-0.4l-0.1-0.2h0.2l-0.2-0.4l0.2,0.1 v-0.3l0.2,0.1l-0.1-0.3l0.2,0.1l0-0.2l0.2,0.1l-0.1-0.4l0.2,0.1L635.3,175.5z"/> <path class="st7" d="M646.2,159.7h-0.7h-0.1h-0.2v0.2l-0.3-0.1v0.2l-0.2-0.2v0.2l-0.2-0.3v0.2l-0.3-0.3v0.2l-0.2-0.4l-0.1,0.1 l-0.2-0.4l-0.4-0.3l0.2,0.3c0,0.1,0,0.3,0.1,0.4h-0.1l0.1,0.2l-0.1,0.1l0.1,0.2l-0.1,0.1l-0.1,0.4v-0.3l-0.1-0.2h-0.1v-0.4h-0.1 v-0.3v-0.2h-0.1l0.1-0.3l-0.1-0.3l0,0c-0.3,0.7-0.7,1.4-1,2.1l0,0l0-0.1l1-2.1l0,0l-0.2,0.1l-0.2,0.3v-0.1L642,159l-0.2,0.2v-0.1 l-0.2,0.2l-0.1-0.1l-0.2,0.1l-0.3,0.2l0.2-0.3v-0.1h0.2v-0.1l0.2-0.1l-0.1-0.1l0.4-0.2l0.4-0.1l-0.5-0.1l-0.4,0.1l0.1-0.2H641 l0.1-0.1l-0.4-0.1l0.2-0.2l-0.3-0.1l0.1-0.1l-0.3-0.1l0.1-0.1l-0.3-0.2l0.1-0.1l-0.1-0.1l-0.1-0.1l-0.4-0.6l0.6,0.2v-0.3l0.2,0.4 l0.1-0.3l0.2,0.2v-0.2l0.2,0.3l0.1-0.1l0.2,0.2v-0.2l0.2,0.4l0.2-0.1l0.1,0.2l0.2,0.4v-0.1l0.1,0.2l0.6,0.5l-0.4-0.5l-0.3-0.3 l0.1-0.1l-0.3-0.2h0.2c0,0-0.4-0.4-0.4-0.4l0,0c0.1,0,0.2,0.1,0.2,0.1l-0.2-0.4c0,0,0.1,0,0.1,0l-0.4-0.5l0.3,0.1l-0.3-0.6 l0.2,0.1l-0.3-0.6l0.2,0.1l-0.1-0.5h0.2l-0.3-0.6h0.4l-0.1-0.6l0.2,0.1v-0.8l0.2,0.7l0.1-0.2l0.1,0.5l0.2-0.3l-0.1,0.6l0.2-0.2 l-0.1,0.6l0.2-0.2l-0.1,0.6l0.2-0.1l-0.1,0.6l0.2-0.2l-0.2,0.5l0.2-0.1l-0.2,0.4l0.1,0.1l-0.1,0.4l0.2-0.2l-0.3,0.7l0.2-0.1 l-0.2,0.7c0,0.1,0,0.2,0,0.3l0.3,0.4V157v-0.3l-0.1-0.6h0.2v-0.6l0.1,0.2v-0.7l0.2,0.2l0.1-0.7l0.1,0.2l0.2-0.7l0.1,0.3l0.1-0.7 l0.2,0.3l0.1-0.7l0.1,0.3l0.2-0.7l0.1,0.3l0.2-0.6v0.3l0.3-0.6v0.3l0.2-0.6l0.1,0.3l0.1-0.4v0.1l0.6-0.7l0,0v0.1l-0.2,0.9h0.1 l-0.3,0.4l0.3-0.1l-0.3,0.6l0.3-0.2l-0.3,0.6l0.2-0.2l-0.3,0.5l0.3-0.1l-0.4,0.6l0.3-0.1l-0.5,0.5l0.3-0.1l-0.5,0.5l0.3-0.1 l-0.5,0.6h0.2l-0.5,0.5l0.3,0.1l-0.6,0.4h0.2l-0.5,0.3l0.1,0.1l-0.5,0.3l-0.2,0.2l-0.7,0.6l0.5,0.1l0.2-0.2l0.4-0.6 c0,0.1,0,0.2,0,0.2l0.4-0.7c0,0.1,0,0.2,0,0.3l0.2-0.3l0.1,0.1l0.2-0.4v0.2l0.3-0.5v0.2l0.4-0.4v0.2l0.4-0.4v0.3l0.4-0.5v0.3 l0.4-0.4l-0.1,0.4l0.4-0.2l-0.1,0.2l0.6-0.3l-0.6,0.4l0.2,0.1l-0.5,0.3l0.3,0.3l-0.6,0.1l0.2,0.1l-0.5,0.2l0.2,0.2l-0.7,0.1 l0.2,0.1l-0.6,0.1l0.2,0.2H645c0,0,0.1,0.1,0.1,0.1c-0.2,0-0.5,0.1-0.5,0.1c0.1,0.1,0.1,0.1,0.2,0.2l-0.6-0.1l0.1,0.2l-0.4-0.1 v0.2l-0.4-0.1H643l0.8,0.2h0.2l-0.1,0.1l0.5-0.1l0.3-0.1v0.2l0.4-0.1l-0.1,0.1h0.3l-0.1,0.1h0.4l-0.1,0.1h0.3l-0.2,0.2l0.4-0.1 l-0.2,0.2L646.2,159.7z"/> <path class="st7" d="M663.6,167.8h-1l-0.2-0.1l-0.2-0.1v0.2l-0.5-0.1v0.2l-0.4-0.2v0.2l-0.4-0.3v0.3l-0.6-0.3v0.2l-0.4-0.4 l-0.1,0.2l-0.4-0.4l-0.7-0.3l0.3,0.4c0.1,0.1,0.2,0.3,0.2,0.5h-0.2l0.2,0.3l-0.2,0.1l0.2,0.2l-0.1,0.1l-0.1,0.4l-0.2-0.4l-0.2-0.3 h-0.2l0-0.4h-0.1l0-0.4V167h-0.1l0.1-0.4l-0.2-0.3l0,0c-0.3,0.8-0.6,1.5-0.9,2.3l0,0l-0.1-0.1l0.8-2.3l0,0l-0.3,0.1l-0.2,0.3 l-0.1-0.1l-0.2,0.2L657,167l-0.1-0.1l-0.3,0.3l-0.1-0.2l-0.3,0.1l-0.4,0.2l0.2-0.4l-0.1-0.1l0.3-0.1l-0.1-0.2h0.3l-0.1-0.1 l0.5-0.2h0.5l-0.7-0.2l-0.6,0.1V166h-0.6l0.2-0.1l-0.6-0.2l0.2-0.2l-0.5-0.1l0.1-0.1l-0.4-0.1l0.1-0.1l-0.5-0.2l0.1-0.1l-0.2-0.1 l-0.2-0.1l-0.8-0.7l0.9,0.3v-0.3l0.4,0.4v-0.3l0.3,0.3V164l0.4,0.4l0.1-0.2l0.4,0.3v-0.2l0.3,0.5l0.2-0.1l0.2,0.3l0.4,0.5v-0.2 l0.2,0.2l1,0.6l-0.8-0.6l-0.6-0.4l0.1-0.1l-0.5-0.3h0.3l-0.7-0.5l0,0c0.1,0,0.3,0.1,0.4,0.1c0,0-0.3-0.3-0.4-0.5 c0.1,0,0.1,0,0.2,0l-0.7-0.6l0.4,0.1l-0.6-0.7l0.4,0.2l-0.6-0.7l0.4,0.1l-0.3-0.6l0.3,0.1l-0.5-0.6l0.6,0.1l-0.3-0.6l0.3,0.1 l-0.2-0.9l0.4,0.8l0.1-0.2l0.2,0.6l0.2-0.4l0.1,0.6l0.3-0.2v0.7l0.2-0.2l0.1,0.6l0.2-0.2v0.6l0.2-0.2l-0.1,0.6l0.2-0.1l-0.1,0.4 l0.2,0.1l-0.1,0.4l0.2-0.2l-0.2,0.8l0.3-0.1l-0.1,0.8l0.1,0.3l0.6,0.4l-0.2-1l0-0.4l-0.3-0.7h0.2l-0.2-0.7l0.2,0.2l-0.3-0.8 l0.4,0.2l-0.1-0.8l0.2,0.2v-0.8l0.3,0.3l-0.1-0.8l0.3,0.4l-0.1-0.8l0.3,0.3l0.1-0.8l0.2,0.3l0.2-0.6l0.1,0.4l0.3-0.7l0.2,0.4 l0.2-0.7l0.3,0.3l0.1-0.5l0.1,0.1l0.7-0.8l0,0v0.1v1h0.2l-0.3,0.4h0.4l-0.3,0.6l0.4-0.2l-0.3,0.7l0.3-0.2l-0.3,0.6h0.4l-0.4,0.6 h0.4l-0.5,0.5l0.5-0.1l-0.6,0.6h0.4l-0.5,0.6h0.3l-0.6,0.5l0.4,0.1l-0.7,0.4h0.3l-0.6,0.4l0.2,0.1l-0.7,0.3l-0.3,0.2l-0.8,0.6 l0.7,0.1l0.3-0.2c0.1-0.2,0.3-0.4,0.4-0.7l0.1,0.3c0.1-0.2,0.3-0.5,0.4-0.7v0.3l0.2-0.4l0.2,0.1l0.2-0.4l0.1,0.2l0.3-0.5v0.3 l0.4-0.5v0.2l0.5-0.4v0.2l0.5-0.5l0.1,0.4l0.5-0.4l-0.1,0.4l0.5-0.2l-0.1,0.2l0.8-0.3l-0.8,0.5l0.3,0.1l-0.6,0.3l0.5,0.4l-0.8,0.1 l0.3,0.2l-0.6,0.2l0.4,0.2l-0.9,0.1l0.4,0.1l-0.9,0.1l0.3,0.2h-0.9c0.1,0,0.1,0.1,0.2,0.1c-0.2,0-0.7,0.1-0.7,0.1 c0.1,0.1,0.2,0.1,0.3,0.2l-0.9-0.1l0.2,0.2l-0.6-0.2v0.2l-0.7-0.1h-1l1.2,0.3h0.2l-0.1,0.1l0.6-0.1h0.4v0.2l0.6-0.1l-0.2,0.2h0.5 v0.2h0.5l-0.1,0.1h0.4l-0.2,0.2l0.6-0.1l-0.2,0.2L663.6,167.8z"/> <path class="st7" d="M655.8,168.6l-0.4,0.5l-0.1,0.1l-0.1,0.1h0.1l-0.3,0.2h0.1l-0.2,0.2h0.1l-0.3,0.2h0.1l-0.3,0.3h0.1l-0.3,0.2 v0.1l-0.3,0.1l-0.4,0.3l0.3-0.1h0.3l-0.1,0.1l0.2-0.1v0.1l0.2-0.1v0.1l0.1,0.1h-0.2h-0.2l-0.1,0.1h-0.2v0.1h-0.2h-0.1v0.1 l-0.1-0.1l-0.2,0.1l0,0l0.6,0.8l0,0h-0.1l-0.6-0.8l0,0l-0.1,0.2v0.1h-0.1v0.4h-0.1v0.2l-0.1,0.1l-0.1,0.2l-0.1,0.2l-0.1-0.1h-0.1 l0.1-0.2h-0.1l0.1-0.2h-0.1l0.1-0.3l0.2-0.3l-0.4,0.3l-0.2,0.3h-0.1l-0.2,0.3v-0.1l-0.3,0.3v-0.1l-0.2,0.3v-0.1l-0.2,0.2v-0.1 l-0.3,0.2V173l-0.1,0.1l-0.1,0.1l-0.6,0.3l0.5-0.4l-0.1-0.1l0.3-0.1l-0.1-0.1l0.2-0.1h-0.1l0.3-0.1v-0.1l0.3-0.1h-0.1l0.3-0.1 v-0.1l0.2-0.1l0.4-0.1H652l0.2-0.1l0.7-0.5l-0.5,0.3l-0.4,0.2v-0.1l-0.3,0.2l0.1-0.2l-0.5,0.3l0,0l0.2-0.2l-0.4,0.1l0.1-0.1 l-0.5,0.3l0.2-0.2l-0.5,0.2l0.2-0.2l-0.5,0.2l0.2-0.2l-0.4,0.1l0.2-0.2l-0.5,0.2l0.3-0.3h-0.4l0.2-0.1h-0.5l0.5-0.1l-0.1-0.1h0.3 l-0.1-0.1l0.3,0.1l0-0.2l0.3,0.1v-0.2l0.3,0.1v-0.1l0.3,0.1v-0.1l0.2,0.1l0-0.1l0.1,0.1l0.1-0.1l0.1,0.1v-0.2l0.3,0.2l0.1-0.2 l0.2,0.2h0.2l0.4-0.2h-0.5h-0.2h-0.4l0.1-0.1h-0.4l0.2-0.1h-0.4l0.2-0.2l-0.4-0.1l0.2-0.1l-0.3-0.1l0.2-0.1l-0.4-0.1l0.3-0.1 l-0.3-0.1l0.2-0.2l-0.3-0.2l0.2-0.1l-0.2-0.2h0.2l-0.2-0.2h0.2l-0.2-0.2l0.2-0.1l-0.2-0.1h0.1v-0.5l0,0l0.4,0.1l0-0.1l0.1,0.2 l0.1-0.2l0.1,0.3l0.1-0.2l0.2,0.2v-0.2l0.1,0.2l0.1-0.2l0.1,0.3l0.1-0.2v0.4l0.2-0.3v0.4l0.1-0.2l0.1,0.4l0.1-0.2v0.4l0.2-0.2 l-0.1,0.4l0.1-0.2l-0.1,0.4l0.2-0.1l-0.1,0.4v0.2L653,171l0.3-0.4v-0.2l-0.1-0.3h0.2c0-0.1-0.1-0.2-0.1-0.3h0.2l-0.1-0.2l0.1-0.1 l-0.1-0.1h0.1l-0.1-0.2h0.1v-0.3h0.1v-0.3h0.1v-0.3h0.2V168l0.1,0.1l0.1-0.3l0.1,0.1l0.2-0.5l-0.1,0.5l0.2-0.1l-0.1,0.4l0.3-0.2 l-0.3,0.4l0.2-0.1l-0.2,0.4l0.2-0.2l-0.3,0.5l0.2-0.2l-0.3,0.5l0.2-0.1l-0.4,0.4c0,0,0.1,0,0.1-0.1l-0.2,0.4l0.2-0.1l-0.4,0.4 l0.2-0.1l-0.3,0.3h0.1l-0.3,0.3l-0.4,0.5l0.6-0.6l0.1-0.1v0.1l0.2-0.4l0.1-0.2h0.1l0.2-0.3v0.1l0.2-0.2v0.1l0.2-0.3v0.1l0.2-0.2 v0.1l0.2-0.3v0.1L655.8,168.6z"/> <path class="st7" d="M664.4,179.3l-0.4-0.8v-0.2v-0.2l-0.2,0.1v-0.4l-0.2,0.1l0.1-0.4l-0.2,0.1l0.2-0.4l-0.3,0.1l0.1-0.6l-0.2,0.1 l0.3-0.5h-0.2l0.4-0.4l0.2-0.6l-0.3,0.4l-0.5,0.3l-0.1-0.1l-0.2,0.2l-0.2-0.1l-0.2,0.2l-0.1-0.1h-0.5l0.4-0.2l0.2-0.2l-0.1-0.2 l0.4-0.1l-0.1-0.1l0.4-0.1l0.3-0.1l-0.1-0.1h0.5l0.3-0.2l0,0l-3.1-0.2l0,0l0.1-0.1l3.1,0.1l0,0l-0.2-0.2l-0.4-0.1l0.1-0.1 l-0.3-0.1l-0.4-0.2l0.1-0.1l-0.4-0.2l0.1-0.1l-0.2-0.2l-0.3-0.3l0.5,0.1l0.1-0.1l0.2,0.2l0.2-0.2l0.2,0.3l0.1-0.1l0.4,0.3 c0.1,0.1,0.2,0.3,0.3,0.4l-0.1-0.6l-0.3-0.4h0.2l-0.2-0.5l0.2,0.1v-0.6l0.3,0.1l-0.1-0.4l0.2,0.1v-0.4l0.2,0.1l0.1-0.4l0.2,0.1 v-0.2v-0.2l0.5-0.8v0.8l0.4-0.1l-0.4,0.4l0.4-0.1l-0.2,0.3h0.2l-0.3,0.4h0.2l-0.2,0.4l0.3-0.1l-0.5,0.4l0.2,0.1l-0.2,0.3l-0.4,0.5 h0.2l-0.2,0.2l-0.3,1l0.4-0.8l0.2-0.5l0.2,0.1l0.1-0.5l0.1,0.3c0,0,0.3-0.7,0.3-0.7l0,0c0,0.1,0,0.2,0,0.3c0,0,0.3-0.3,0.4-0.5 c0,0.1,0,0.1,0,0.2l0.4-0.7l0.1,0.3l0.6-0.6l-0.1,0.3l0.6-0.7v0.4l0.6-0.4l0.1,0.3l0.5-0.6l0.2,0.5l0.7-0.4v0.3l0.9-0.4L670,171 h0.3l-0.6,0.3l0.5,0.1l-0.7,0.2l0.3,0.2L669,172l0.3,0.1l-0.8,0.2l0.3,0.1l-0.8,0.2l0.3,0.1l-0.8,0.1l0.2,0.2h-0.5v0.2h-0.5 l0.4,0.1l-1,0.1l0.3,0.2l-1,0.1l-0.3,0.1l-0.2,0.6l1.2-0.3l0.4-0.1l0.7-0.4v0.2l0.7-0.3l-0.2,0.2l0.8-0.4l-0.1,0.4l0.9-0.3 l-0.2,0.2l1-0.2l-0.3,0.3l0.9-0.2l-0.3,0.4l0.9-0.2l-0.3,0.3l1-0.1l-0.2,0.3h0.8l-0.4,0.2h0.9l-0.4,0.2h0.9l-0.3,0.3l0.6-0.1 l-0.1,0.1l1.1,0.3l0,0h-0.1l-1.2,0.3l0.1,0.1l-0.6-0.1l0.2,0.3l-0.9-0.1l0.4,0.3H672l0.3,0.2l-0.8-0.1l0.2,0.3l-0.9-0.2l0.2,0.3 l-0.8-0.3l0.2,0.4l-0.9-0.3l0.2,0.3l-1-0.2l0.2,0.2l-0.8-0.4l0.1,0.4l-0.8-0.5l0.1,0.3l-0.7-0.4l-0.1,0.2l-0.6-0.4l-0.4-0.2 l-1-0.5c0.1,0.2,0.1,0.4,0.2,0.6l0.3,0.2l0.9,0.1l-0.3,0.2l1,0.1l-0.4,0.1l0.5,0.1v0.2h0.5l-0.2,0.1l0.7,0.1l-0.3,0.1l0.7,0.2 l-0.3,0.1l0.7,0.3l-0.4,0.1l0.8,0.2l-0.4,0.2l0.7,0.3h-0.5l0.5,0.4h-0.3l0.7,0.6l-0.9-0.5v0.3l-0.6-0.4l-0.2,0.5l-0.4-0.6 l-0.1,0.3l-0.5-0.4l-0.1,0.4l-0.5-0.7v0.3l-0.5-0.7l-0.1,0.3l-0.3-0.7c0,0,0,0.1,0,0.2l-0.4-0.5c0,0.1-0.1,0.2-0.1,0.3 c0,0.1-0.2-0.7-0.2-0.7l-0.1,0.2v-0.5l-0.2,0.1l-0.1-0.6c-0.1-0.3-0.2-0.5-0.3-0.8l0.1,1l0.1,0.2h-0.2l0.3,0.5l0.2,0.3l-0.3,0.1 l0.4,0.4l-0.2-0.1l0.1,0.4h-0.2l0.2,0.4h-0.2l0.2,0.3l-0.4-0.1l0.3,0.5l-0.3-0.1L664.4,179.3z"/> <path class="st7" d="M695.6,190l-0.7-0.6l-0.1-0.1l-0.1-0.2l-0.2,0.1l-0.2-0.4l-0.2,0.1l-0.1-0.4l-0.2,0.1v-0.4l-0.2,0.2l-0.1-0.6 l-0.2,0.2l0.1-0.6l-0.2,0.1l0.2-0.5l-0.2-0.6l-0.1,0.5l-0.3,0.5l-0.2-0.1l-0.1,0.3h-0.2l-0.1,0.3h-0.2l-0.4,0.2l0.2-0.4l0.1-0.3 l-0.2-0.1l0.3-0.3l-0.1-0.1l0.3-0.3l0.2-0.2h-0.1l0.4-0.2l0.1-0.3l0,0l-2.8,1.2l0,0c0,0,0-0.1,0-0.1l2.8-1.3l0,0l-0.3-0.1 l-0.4,0.1v-0.1H692h-0.4v-0.1h-0.5v-0.2l-0.3-0.1l-0.4-0.1l0.5-0.2l0.1-0.1l0.2,0.1l0.1-0.2l0.3,0.1V185l0.5,0.1l0.4,0.2l-0.3-0.5 l-0.5-0.2l0.2-0.1l-0.4-0.3h0.2l-0.3-0.5h0.3l-0.3-0.3h0.2l-0.2-0.3h0.2l-0.1-0.4h0.2l0-0.2v-0.1l0.1-0.9l0.4,0.7l0.3-0.2 l-0.1,0.6l0.3-0.2v0.4l0.2-0.1l0,0.5l0.2-0.1v0.3l0.2-0.2l-0.2,0.6h0.3l-0.1,0.3l-0.2,0.6l0.2-0.1l-0.1,0.2l0.2,1 c0-0.3,0-0.6,0-0.9l-0.1-0.6h0.2l-0.1-0.5l0.2,0.2c0,0-0.1-0.8-0.1-0.8l0,0c0,0.1,0.1,0.2,0.2,0.3c0,0,0.1-0.4,0.2-0.6 c0,0,0.1,0.1,0.1,0.1v-0.8l0.2,0.3l0.2-0.8l0.1,0.3l0.2-0.9l0.2,0.3l0.3-0.6l0.2,0.2l0.2-0.8l0.4,0.4l0.4-0.6l0.1,0.3l0.6-0.8 l-0.5,0.8l0.3-0.1l-0.3,0.6l0.5-0.2l-0.5,0.5h0.4l-0.7,0.5l0.4-0.1l-0.6,0.5h0.3l-0.6,0.5h0.3l-0.6,0.4l0.2,0.1l-0.5,0.2l0.1,0.2 l-0.4,0.3h0.4l-0.9,0.5l0.3,0.1l-0.8,0.5l-0.2,0.3v0.6l0.8-0.9l0.3-0.3l0.5-0.7l0.1,0.2l0.5-0.6v0.3l0.5-0.8l0.1,0.4l0.7-0.7 l-0.1,0.3l0.8-0.6l-0.1,0.4l0.7-0.6l-0.1,0.5l0.7-0.6l-0.1,0.4l0.8-0.5l-0.1,0.4l0.7-0.4l-0.3,0.3l0.8-0.4l-0.3,0.4l0.8-0.4 l-0.1,0.4l0.5-0.3v0.1l1.2-0.2l0,0h-0.1l-0.9,0.8l0.1,0.1l-0.6,0.2l0.3,0.2l-0.8,0.3l0.4,0.1l-0.8,0.4h0.4l-0.8,0.3l0.3,0.2 l-0.9,0.3l0.3,0.2l-0.9,0.1l0.4,0.2l-0.9,0.1l0.3,0.2l-1,0.2l0.2,0.1l-0.9,0.1l0.2,0.3l-0.9-0.1l0.2,0.2l-0.8-0.1v0.2l-0.8-0.1 h-0.4h-1.2c0.1,0.2,0.3,0.3,0.4,0.5h0.4l0.9-0.3l-0.2,0.3l1-0.3l-0.3,0.3l0.5-0.1l0.1,0.1l0.5-0.2l-0.1,0.2l0.7-0.2l-0.2,0.2 l0.7-0.1l-0.2,0.2l0.8-0.1l-0.3,0.2l0.8-0.1l-0.3,0.3l0.8-0.1l-0.4,0.2l0.6,0.1l-0.3,0.1l0.9,0.2h-1l0.1,0.2l-0.7-0.1v0.5 l-0.7-0.4v0.3l-0.6-0.2l0.1,0.4l-0.8-0.4l0.2,0.3l-0.7-0.4v0.4l-0.6-0.5c0,0.1,0,0.1,0,0.2c-0.2-0.1-0.6-0.3-0.6-0.3 c0,0.1,0,0.2,0.1,0.3L695,187v0.3l-0.3-0.4l-0.1,0.2l-0.4-0.4l-0.7-0.6c0.2,0.3,0.4,0.6,0.6,0.8l0.2,0.1l-0.2,0.1l0.5,0.3l0.3,0.2 l-0.2,0.2l0.6,0.2h-0.3l0.3,0.3l-0.2,0.1l0.4,0.3l-0.2,0.1l0.3,0.2l-0.4,0.1l0.5,0.3l-0.4,0.1L695.6,190z"/> <path class="st7" d="M631.9,126.9l0.4,0.9v0.2v0.2h0.3l-0.1,0.4h0.3l-0.2,0.3h0.3l-0.3,0.3h0.4l-0.3,0.5h0.3l-0.5,0.3l0.3,0.1 l-0.6,0.2l-0.3,0.5l0.5-0.2l0.7-0.1l0.1,0.2l0.4-0.1l0.2,0.1l0.3-0.1l0.2,0.1l0.7,0.2l-0.6,0.1l-0.4,0.1l0.1,0.2h-0.6l0.1,0.1 h-0.6h-0.4l0.1,0.1l-0.6-0.1l-0.4,0.1l0,0l4.1,1.3l0,0l-0.1,0.1l-4.1-1.2l0,0l0.3,0.3l0.6,0.2l-0.1,0.1l0.4,0.2l0.5,0.3h-0.1 l0.5,0.3L633,133l0.2,0.3l0.4,0.4l-0.6-0.2h-0.2l-0.2-0.3h-0.2l-0.2-0.3L632,133l-0.5-0.4l-0.2-0.5l-0.1,0.6l0.3,0.5l-0.3-0.1 l0.2,0.5l-0.3-0.2l-0.1,0.5l-0.4-0.2l0.1,0.4l-0.2-0.1l-0.1,0.3l-0.2-0.1l-0.2,0.4l-0.2-0.1l-0.1,0.2l-0.1,0.1l-0.9,0.5l0.1-0.8 l-0.5-0.1l0.6-0.3l-0.5-0.1l0.3-0.2l-0.3-0.1l0.5-0.3l-0.3-0.1l0.3-0.3h-0.4l0.7-0.2l-0.3-0.2l0.4-0.2l0.7-0.3h-0.3l0.3-0.1 l0.6-0.8l-0.8,0.5l-0.4,0.4l-0.2-0.1l-0.3,0.4l-0.1-0.3c0,0-0.5,0.5-0.6,0.6l0,0c0-0.1,0-0.2,0-0.3c0,0-0.5,0.2-0.7,0.3 c0-0.1,0-0.1,0-0.2l-0.7,0.5V133l-0.9,0.4l0.2-0.3l-1,0.4l0-0.3l-0.8,0.2v-0.3l-0.8,0.4l-0.1-0.5l-1,0.1l0.1-0.2h-1.3l1.2-0.2 l-0.4-0.1l0.8-0.1l-0.6-0.2l1,0.1l-0.4-0.3l1.3,0.1l-0.5-0.2l1.1,0.1l-0.3-0.2l1,0.1l-0.4-0.2l1,0.2l-0.2-0.2l0.7,0.2l0.1-0.1 l0.7,0.1l-0.5-0.3l1.4,0.3l-0.3-0.3l1.3,0.3h0.5l0.5-0.4h-1.6h-0.6l-1,0.1v-0.2l-1,0.1l0.3-0.2l-1.2,0.1l0.2-0.3h-1.3l0.3-0.1 l-1.3-0.2l0.4-0.2l-1.3-0.1l0.5-0.2l-1.2-0.1l0.4-0.2l-1.3-0.2l0.4-0.2l-1.1-0.3h0.5l-1.2-0.4l0.6-0.1l-1.2-0.3l0.4-0.2l-0.8-0.2 l0.2-0.1l-1.5-0.8h0.1l1.7,0.2l-0.1-0.1l0.8,0.3l-0.2-0.4l1.1,0.4l-0.4-0.4l1.2,0.4l-0.4-0.3l1.1,0.3l-0.2-0.3l1.2,0.5l-0.2-0.4 l1,0.6l-0.3-0.4l1.1,0.6l-0.2-0.4l1.2,0.6L625,128l1.1,0.6v-0.4l0.9,0.7l-0.1-0.3l0.8,0.6l0.1-0.2l0.8,0.6l0.5,0.3l1.3,0.8 c0-0.2,0-0.4-0.1-0.6l-0.4-0.3l-1.2-0.5l0.4-0.1l-1.3-0.5h0.5l-0.7-0.2v-0.2l-0.7-0.2l0.3-0.1l-1-0.4h0.4l-0.9-0.5h0.4l-0.9-0.5 l0.5,0.1l-1-0.5h0.5l-0.9-0.5l0.7,0.2l-0.6-0.5l0.4,0.1l-0.8-0.8l1,0.8l0.1-0.2l0.7,0.6l0.4-0.4l0.4,0.7l0.2-0.2l0.6,0.6l0.2-0.3 l0.5,0.8l0.1-0.3l0.5,0.8l0.2-0.3l0.2,0.8c0,0,0.1-0.1,0.1-0.1c0.1,0.2,0.4,0.6,0.4,0.6s0.2-0.2,0.2-0.3s0.1,0.7,0.1,0.7l0.2-0.2 l-0.1,0.5h0.3v0.6c0.1,0.3,0.2,0.6,0.2,0.8c0-0.3,0-0.6,0.1-1l-0.1-0.2l0.2,0.1l-0.3-0.6l-0.2-0.3h0.4l-0.4-0.6l0.3,0.2l-0.1-0.4 l0.3,0.1l-0.2-0.5l0.3,0.1l-0.1-0.3l0.5,0.2l-0.3-0.5l0.4,0.2L631.9,126.9z"/> <path class="st7" d="M638.9,90.5v0.8l-0.1,0.1l-0.1,0.2l0.2,0.1l-0.2,0.3l0.2,0.1l-0.2,0.2l0.2,0.1l-0.4,0.2l0.3,0.1l-0.4,0.3 l0.2,0.1l-0.5,0.1l0.2,0.2H638l-0.4,0.3h0.5l0.6,0.1v0.2h0.3l0.1,0.2h0.3l0.1,0.1l0.5,0.3l-0.5-0.1l-0.3-0.1v0.2l-0.5-0.2v0.1 l-0.4-0.2l-0.3-0.2v0.1l-0.4-0.3H637l0,0l2.7,2.2l0,0h-0.1l-2.8-2.1l0,0l0.1,0.3l0.4,0.3h-0.1l0.2,0.3l0.3,0.4h-0.1l0.3,0.4h-0.2 l0.1,0.3l0.2,0.4l-0.4-0.4h-0.2v-0.3l-0.2-0.1l0-0.3H637c-0.1-0.2-0.1-0.3-0.2-0.5v-0.4l-0.2,0.4l0.1,0.5l-0.2-0.1v0.5l-0.2-0.2 l-0.2,0.4l-0.2-0.3l-0.1,0.4l-0.1-0.2l-0.2,0.2l-0.1-0.2L635,96l-0.1-0.2l-0.1,0.1l-0.1,0.1l-0.9,0.2l0.3-0.5l-0.4-0.2h0.5 l-0.4-0.2l0.3-0.1L634,95l0.4-0.1l-0.2-0.2l0.3-0.1l-0.3-0.1h0.6l-0.2-0.2h0.3h0.6l-0.2-0.1h0.2l0.7-0.4l-0.8,0.2l-0.4,0.2 l-0.1-0.2l-0.3,0.2v-0.2l-0.6,0.3l0,0l0.1-0.2c0,0-0.4,0-0.6,0c0,0,0-0.1,0-0.1l-0.7,0.2l0.1-0.3h-0.8l0.2-0.2h-0.9l0.1-0.2 l-0.7-0.1l0.1-0.2h-0.8l0.1-0.4l-0.8-0.2l0.2-0.2l-1-0.4l1,0.2l-0.3-0.2l0.7,0.2l-0.4-0.4l0.8,0.4l-0.2-0.4l0.8,0.4l-0.3-0.3 l0.8,0.4l-0.2-0.2l0.8,0.4l-0.2-0.3l0.7,0.5l-0.1-0.2l0.5,0.4l0.1-0.1l0.5,0.3l-0.3-0.3l1,0.7l-0.1-0.3l0.9,0.6l0.4,0.1l0.5-0.2 L635,93l-0.5-0.2l-0.8-0.2l0.1-0.2l-0.8-0.3h0.3l-1-0.3l0.3-0.2l-1-0.4h0.3l-1-0.6h0.4l-1-0.5h0.5l-0.9-0.4h0.4l-0.9-0.6h0.3 l-0.7-0.5l0.4,0.2l-0.8-0.7l0.5,0.1l-0.8-0.6h0.4l-0.6-0.4h0.2l-0.9-1l0,0h0.1l1.2,0.6v-0.1l0.5,0.5V87l0.7,0.7l-0.2-0.4l0.8,0.7 l-0.2-0.4l0.7,0.6v-0.3l0.8,0.8v-0.4l0.6,0.8l0-0.4l0.6,0.8V89l0.8,0.8v-0.3l0.6,0.8l0.1-0.3l0.5,0.8v-0.3l0.4,0.7l0.2-0.1 l0.4,0.7l0.3,0.4l0.7,1c0-0.2,0.1-0.3,0.1-0.5l-0.2-0.3l-0.8-0.7l0.3,0.1l-0.8-0.8l0.4,0.2l-0.4-0.4l0.1-0.1l-0.5-0.4h0.2 l-0.6-0.6l0.3,0.2l-0.5-0.6l0.3,0.1l-0.5-0.7l0.4,0.2l-0.6-0.7l0.4,0.1l-0.5-0.7l0.5,0.3l-0.3-0.6l0.2,0.2l-0.3-0.8l0.5,0.9 l0.1-0.2l0.3,0.7l0.4-0.2l0.1,0.7l0.2-0.1l0.2,0.6l0.2-0.2l0.1,0.8l0.2-0.2l0.1,0.7l0.3-0.1l-0.1,0.7c0,0,0.1,0,0.1-0.1 c0,0.2,0.1,0.6,0.1,0.6s0.2-0.1,0.2-0.2S637,92,637,92l0.2-0.1l-0.2,0.4l0.2,0.1l-0.1,0.4l-0.1,0.7c0.1-0.2,0.2-0.5,0.4-0.7v-0.2 l0.2,0.2l-0.1-0.6v-0.3l0.3,0.1l-0.2-0.6l0.2,0.2v-0.3l0.2,0.1v-0.4l0.2,0.2v-0.3l0.3,0.3l-0.1-0.5l0.3,0.3L638.9,90.5z"/> <path class="st7" d="M681.2,133.6l-0.6-0.1l0,0l-0.1-0.1l-0.2,0.1l-0.1-0.1l-0.2,0.1v-0.1l-0.2,0.1l0.1-0.2l-0.3,0.2v-0.2 l-0.2,0.1l0.2-0.3l-0.2,0.1l0.3-0.3v-0.3l-0.2,0.3l-0.4,0.3H679l-0.2,0.2h-0.2l-0.2,0.2h-0.1l-0.5,0.2l0.3-0.3l0.2-0.2h-0.1 l0.4-0.3h-0.1l0.4-0.2l0.3-0.2h-0.1l0.5-0.2l0.2-0.2l0,0l-3.2,1.4l0,0v-0.1l3.2-1.5l0,0h-0.3l-0.5,0.2l0.1-0.1l-0.3,0.1l-0.4,0.1 l0.1-0.1l-0.5,0.1l0.1-0.1h-0.3l-0.4,0.1l0.5-0.2l0.1-0.1h0.2l0.2-0.1h0.2l0.1-0.1l0.5-0.1h0.3l-0.2-0.2h-0.4l0.2-0.1H679l0.2-0.1 l-0.1-0.2l0.3-0.1l-0.2-0.1l0.2-0.1l-0.1-0.1l0.2-0.1v-0.2l0.2-0.1v-0.1v-0.1l0.4-0.5l0.2,0.2l0.3-0.2l-0.3,0.3l0.4-0.2l-0.2,0.2 l0.2-0.1l-0.2,0.3l0.2-0.1l-0.1,0.2l0.2-0.1l-0.4,0.4l0.3-0.1l-0.2,0.2l-0.3,0.4l0.2-0.1l-0.1,0.1l-0.1,0.5 c0.1-0.1,0.2-0.3,0.3-0.5l0.1-0.3l0.2,0v-0.2h0.2c0,0,0.2-0.4,0.2-0.4l0,0l0.1,0.1l0.4-0.4h0.1l0.3-0.4l0.1,0.1l0.5-0.5v0.1 l0.5-0.5l0.1,0.1l0.5-0.4l0.1,0.1l0.4-0.5l0.2,0.1l0.6-0.4v0.1l0.9-0.6l-0.7,0.6l0.3-0.1l-0.5,0.4l0.5-0.2l-0.7,0.4l0.4-0.1 l-0.8,0.5l0.4-0.1l-0.7,0.4l0.3-0.1l-0.7,0.4l0.3-0.1l-0.8,0.4h0.2L683,130v0.1l-0.5,0.3l0.4-0.1l-1,0.5l0.3-0.1l-1,0.5l-0.3,0.2 l-0.2,0.3l1.1-0.7l0.4-0.3l0.7-0.5l0.1,0.1l0.7-0.5l-0.2,0.2l0.8-0.6l-0.1,0.2l0.9-0.5l-0.2,0.2l1-0.5l-0.2,0.2l0.9-0.5l-0.3,0.3 l0.9-0.5l-0.2,0.2l1-0.5l-0.2,0.2l0.8-0.4l-0.4,0.2l1-0.4l-0.4,0.3l0.9-0.4l-0.2,0.2l0.6-0.3l-0.1,0.1l1.2-0.4l0,0h-0.1l-1.2,0.7 h0.1l-0.6,0.3h0.3l-0.9,0.4l0.4-0.1l-1,0.4l0.4-0.1l-0.8,0.4h0.3l-1,0.4h0.3l-0.9,0.3h0.3l-1,0.3h0.3l-1,0.4h0.2l-0.9,0.3l0.1,0.1 l-0.9,0.2h0.2l-0.7,0.2v0.1l-0.7,0.2l-0.4,0.1l-1.2,0.3l0.3,0.1l0.4-0.1l1-0.4l-0.3,0.2l1.1-0.4l-0.4,0.2l0.5-0.2v0.1l0.5-0.2 l-0.2,0.1l0.8-0.3l-0.3,0.2l0.8-0.3l-0.3,0.2l0.8-0.3l-0.4,0.2l0.9-0.3l-0.3,0.2l0.8-0.2l-0.5,0.2l0.6-0.1l-0.3,0.1l0.8-0.1 l-1,0.3v0.1l-0.7,0.2l-0.2,0.3h-0.5l-0.1,0.1l-0.6,0.1v0.1h-0.6l0.1,0.1h-0.6l-0.1,0.2l-0.4-0.1c0,0,0,0.1,0,0.1 c-0.2,0-0.5,0-0.5,0s0,0.1,0,0.1s-0.3-0.1-0.3-0.1l-0.1,0.1l-0.1-0.1l-0.2,0.1l-0.2-0.1l-0.5-0.1l0.3,0.3h0.2l-0.2,0.1h0.7 l-0.2,0.1l0.5-0.1l-0.3,0.1l0.2,0.1l-0.2,0.1l0.3,0.1l-0.2,0.1h0.2l-0.4,0.1h0.4l-0.4,0.1L681.2,133.6z"/> <path class="st7" d="M663.5,113.8l-0.6-0.4l-0.1-0.1l-0.1-0.1v0.1l-0.2-0.3v0.1l-0.2-0.2v0.1l-0.2-0.3v0.2l-0.3-0.4v0.1l-0.1-0.4 h-0.1l-0.1-0.4l-0.3-0.4l0.1,0.3c0,0.1,0,0.2,0,0.3l-0.1-0.1l0,0.2H661v0.2h-0.1l-0.2,0.2v-0.2v-0.2l-0.1-0.1l0.1-0.2h-0.1 l0.1-0.2v-0.2h-0.1l0.1-0.2v-0.2l0,0l-1.1,0.8l0,0V112l1.1-0.9l0,0l-0.2-0.1l-0.2,0.1V111h-0.2H660v-0.1h-0.2v-0.1h-0.2l-0.2-0.1 l0.2-0.1v-0.1l0.2,0.1v-0.1l0.2,0.1v-0.1l0.3,0.1l0.3,0.2l-0.4-0.3l-0.3-0.2l0.1-0.1l-0.3-0.2h0.1l-0.3-0.3h0.2l-0.3-0.2h0.1 l-0.2-0.2h0.1l-0.2-0.3h0.1l-0.1-0.1l-0.1-0.1l-0.3-0.6l0.4,0.5l0.1-0.2l0.1,0.4l0.1-0.2l0.1,0.2l0.1-0.1l0.1,0.3l0.1-0.1l0.1,0.3 l0-0.1l0.1,0.4h0.1l0.1,0.2l0.1,0.4v-0.1l0,0.2l0.4,0.7c-0.1-0.2-0.2-0.4-0.3-0.6l-0.2-0.4h0.1l-0.2-0.3l0.2,0.1l-0.3-0.5l0,0 c0.1,0.1,0.1,0.1,0.2,0.2l-0.1-0.4c0,0,0.1,0.1,0.1,0.1l-0.2-0.5l0.2,0.2l-0.2-0.5l0.2,0.2l-0.2-0.6l0.2,0.2v-0.4l0.2,0.1 l-0.1-0.5l0.3,0.2v-0.4l0.1,0.2l0.1-0.5v0.6l0.1-0.1v0.4l0.2-0.1l-0.1,0.3h0.2l-0.2,0.4h0.2l-0.1,0.4h0.2l-0.2,0.3h0.2l-0.2,0.3 h0.1l-0.2,0.2l0.1,0.1l-0.1,0.2h0.2l-0.3,0.3h0.2l-0.3,0.3v0.2l0.2,0.4c0-0.2,0.1-0.4,0.1-0.6l0.1-0.2v-0.4l0.1,0.1v-0.4l0.1,0.2 l0-0.5l0.2,0.2l0.1-0.5l0.1,0.2l0.2-0.4l0.1,0.3l0.2-0.4l0.1,0.3l0.2-0.4l0.1,0.2l0.3-0.3l0.1,0.2l0.3-0.2v0.2l0.3-0.3v0.2 l0.3-0.3l0.1,0.3l0.1-0.3v0.1l0.6-0.1l0,0l0,0l-0.2,0.5h0.1l-0.3,0.1l0.2,0.1l-0.3,0.2h0.2l-0.3,0.3h0.2l-0.3,0.2l0.2,0.1 l-0.4,0.2l0.2,0.1l-0.4,0.1l0.3,0.1l-0.5,0.1l0.2,0.1l-0.4,0.2l0.2,0.1h-0.5l0.2,0.2h-0.5l0.2,0.1h-0.4l0.1,0.2L662,111h-0.2h-0.6 l0.4,0.3h0.2l0.4-0.2v0.2l0.4-0.2c0,0.1,0,0.1-0.1,0.2l0.2-0.1l0.1,0.1l0.2-0.1v0.1l0.3-0.2v0.2l0.4-0.1v0.1l0.4-0.1l-0.1,0.2 l0.4-0.1v0.2l0.4-0.1l-0.2,0.2l0.4,0.1l-0.1,0.1l0.5,0.1h-0.5l0.2,0.2l-0.4-0.1l0.2,0.4l-0.5-0.2l0.1,0.2l-0.4-0.1l0.2,0.2 l-0.5-0.3l0.2,0.2l-0.5-0.2l0.2,0.2l-0.5-0.3c0,0,0,0.1,0.1,0.1l-0.4-0.2c0,0.1,0.1,0.2,0.2,0.2l-0.5-0.4l0.1,0.2l-0.3-0.3v0.1 l-0.3-0.3l-0.5-0.4l0.6,0.6l0.1,0.1h-0.1l0.4,0.2l0.2,0.1v0.1l0.4,0.1h-0.1l0.2,0.2l-0.1,0.1l0.3,0.2h-0.1l0.2,0.1h-0.2l0.3,0.2 h-0.2L663.5,113.8z"/> <path class="st7" d="M659.1,106.4l-1-0.3l-0.2-0.1l-0.2-0.1v0.2l-0.5-0.3v0.2l-0.4-0.3v0.2l-0.4-0.4v0.3l-0.5-0.4v0.2l-0.4-0.5 l-0.1,0.1l-0.3-0.5l-0.6-0.5l0.3,0.4c0,0.2,0.1,0.3,0.1,0.5h-0.2l0.2,0.3h-0.2l0.2,0.3h-0.2l-0.2,0.3l-0.1-0.4l-0.1-0.3h-0.2v-0.4 h-0.1v-0.3v-0.3H654l0.1-0.3l-0.1-0.3l0,0l-1.4,1.9l0,0l-0.1-0.1l1.3-1.9h-0.4l-0.2,0.2l-0.1-0.1l-0.2,0.1l-0.3,0.2l-0.1-0.1 l-0.3,0.2l-0.1-0.2h-0.3h-0.4l0.2-0.3v-0.1h0.3v-0.2h0.3l-0.1-0.2l0.5-0.1l0.5,0.1l-0.7-0.4l-0.6-0.1l0.1-0.2l-0.6-0.2l0.2-0.1 L651,102l0.2-0.1l-0.5-0.2l0.2-0.1l-0.4-0.2l0.2-0.1l-0.4-0.3l0.2-0.1l-0.2-0.2l-0.2-0.1l-0.6-0.9l0.8,0.5V100l0.3,0.5l0.1-0.3 l0.2,0.3l0.1-0.2l0.3,0.4l0.1-0.1l0.3,0.4v-0.2l0.3,0.6l0.2-0.1l0.2,0.3l0.3,0.6V102l0.1,0.2l0.9,0.8l-0.6-0.8l-0.5-0.5l0.2-0.1 l-0.5-0.4l0.3,0.1l-0.6-0.7l0,0c0.1,0.1,0.2,0.1,0.4,0.2c0,0-0.2-0.4-0.3-0.6c0.1,0,0.1,0.1,0.2,0.1l-0.5-0.7l0.4,0.2l-0.4-0.8 l0.3,0.3l-0.5-0.8l0.4,0.2l-0.2-0.6l0.3,0.1l-0.4-0.7l0.6,0.2l-0.1-0.7l0.3,0.2l-0.1-0.9l0.3,0.8l0.1-0.2l0.1,0.6l0.2-0.3v0.6 l0.4-0.1l-0.1,0.7l0.3-0.2l-0.1,0.6l0.2-0.1l-0.1,0.6l0.2-0.1l-0.2,0.5h0.2l-0.2,0.3l0.2,0.1l-0.2,0.3l0.3-0.1l-0.3,0.7h0.3 l-0.3,0.7v0.3l0.5,0.5c0-0.3,0-0.7,0-1v-0.4l-0.1-0.7l0.2,0.1l-0.1-0.7l0.2,0.3l-0.1-0.8l0.3,0.3v-0.8l0.2,0.3l0.2-0.7l0.2,0.4 l0.1-0.8l0.3,0.4l0.1-0.7l0.2,0.4l0.3-0.7l0.2,0.3l0.3-0.5V98l0.4-0.6l0.1,0.4l0.3-0.6l0.2,0.4l0.2-0.4l0.1,0.1l0.8-0.5l0,0l0,0 l-0.2,1h0.2l-0.3,0.3l0.4,0.1l-0.5,0.5l0.4-0.1l-0.4,0.6l0.3-0.1l-0.4,0.5l0.4,0.1l-0.5,0.5l0.4,0.1l-0.6,0.3l0.5,0.1l-0.7,0.4 l0.4,0.1l-0.6,0.5h0.3l-0.7,0.3l0.4,0.2l-0.8,0.2l0.3,0.1l-0.7,0.2l0.2,0.2l-0.7,0.1l-0.3,0.2l-0.9,0.3l0.7,0.3l0.3-0.1l0.5-0.5 c0,0.1,0,0.2,0.1,0.3l0.5-0.6v0.3l0.3-0.3l0.2,0.1l0.2-0.3l0.1,0.2l0.4-0.4v0.3l0.5-0.3v0.2l0.6-0.3v0.3l0.6-0.3v0.4l0.6-0.3 l-0.2,0.3l0.6-0.1l-0.1,0.2l0.9-0.1l-0.8,0.2l0.3,0.2l-0.7,0.1l0.4,0.5l-0.8-0.1l0.2,0.2H659l0.3,0.3l-1-0.2l0.4,0.2l-0.9-0.1 l0.3,0.3l-0.8-0.3c0,0.1,0.1,0.1,0.2,0.1l-0.7-0.1c0.1,0.1,0.2,0.2,0.3,0.3l-0.8-0.3l0.2,0.2l-0.5-0.3v0.2l-0.6-0.3l-1-0.3 l1.1,0.6h0.3l-0.1,0.1l0.7,0.1l0.4,0.1v0.2h0.6l-0.2,0.1l0.5,0.2l-0.1,0.1l0.5,0.2l-0.1,0.1l0.4,0.1l-0.2,0.2l0.6,0.1l-0.2,0.2 L659.1,106.4z"/> <path class="st7" d="M656.5,95.8l-0.9-0.5l-0.2-0.1l-0.2-0.2v0.1l-0.4-0.3v0.1l-0.3-0.3v0.1l-0.3-0.4v0.2l-0.5-0.5v0.1l-0.4-0.4 h-0.1l-0.2-0.4l-0.5-0.5l0.3,0.4c0,0.1,0.1,0.2,0.2,0.4l-0.2-0.1l0.2,0.3h-0.1L653,94h-0.1l-0.1,0.2l-0.1-0.3l-0.1-0.2l-0.2-0.1 v-0.2h-0.1v-0.2v-0.2h-0.1l0.1-0.2l-0.1-0.3l0,0l-0.9,0.8l0,0L651,93l0.8-0.9l0,0l-0.3-0.1l-0.2,0.1l-0.1-0.1h-0.4l-0.1-0.1h-0.3 l-0.1-0.2l-0.2-0.1l-0.3-0.1l0.2-0.1v-0.1l0.3,0.1v-0.1l0.3,0.1l-0.1-0.1l0.4,0.1l0.5,0.2l-0.6-0.5l-0.5-0.2v-0.1l-0.5-0.3h0.1 l-0.5-0.4h0.2l-0.4-0.3h0.1l-0.3-0.3h0.1l-0.4-0.4h0.1l-0.2-0.2l-0.1-0.1l-0.6-0.8l0.8,0.6v-0.2l0.3,0.5v-0.2l0.2,0.3v-0.1 l0.3,0.4l0.1-0.1l0.3,0.3v-0.1l0.3,0.5h0.2l0.2,0.3l0.3,0.5v-0.1l0.1,0.2l0.9,0.9l-0.6-0.7l-0.5-0.5h0.1l-0.5-0.4l0.3,0.2 l-0.6-0.7l0,0l0.3,0.2l-0.3-0.5l0.2,0.1l-0.5-0.7l0.3,0.2l-0.5-0.7l0.3,0.3l-0.5-0.7l0.3,0.3l-0.2-0.5l0.3,0.2l-0.5-0.6l0.5,0.4 l-0.2-0.5l0.3,0.2l-0.2-0.6l0.3,0.7l0.1-0.1l0.2,0.4l0.2-0.1v0.4l0.3,0.1v0.4h0.2V89h0.2v0.4h0.2l-0.1,0.3l0.2,0.1l-0.1,0.2 l0.2,0.2l-0.1,0.2h0.2l-0.2,0.4l0.2,0.1l-0.2,0.4l0.1,0.2l0.5,0.5c0-0.2-0.1-0.4-0.1-0.7v-0.2l-0.2-0.5l0.2,0.2l-0.2-0.5l0.2,0.2 l-0.2-0.6l0.3,0.3l-0.1-0.5l0.2,0.2l0.1-0.4l0.2,0.3v-0.5l0.3,0.4V89l0.2,0.3l0.1-0.4l0.2,0.3l0.2-0.2l0.1,0.2l0.3-0.2l0.1,0.3 l0.2-0.3l0.2,0.3l0.1-0.2l0.1,0.1l0.6-0.1l0,0l0,0v0.6l0.1,0.1l-0.2,0.1l0.4,0.2l-0.3,0.2l0.3,0.1l-0.3,0.3h0.3l-0.3,0.2l0.3,0.2 l-0.4,0.2l0.3,0.2h-0.5l0.4,0.2h-0.5l0.3,0.2l-0.5,0.1l0.3,0.1h-0.5l0.4,0.3L654,92l0.3,0.2l-0.5-0.1l0.2,0.2l-0.6-0.1H653 l-0.7-0.1l0.6,0.4h0.2l0.4-0.2l0.1,0.2l0.4-0.2c0,0.1,0,0.1,0,0.2l0.2-0.1l0.2,0.1l0.2-0.1l0.1,0.2l0.3-0.1v0.2h0.4v0.2h0.4V93 h0.4l0.1,0.3h0.4l-0.1,0.2l0.5,0.1l-0.1,0.1l0.7,0.3l-0.6-0.1l0.3,0.2l-0.6-0.1l0.4,0.4l-0.7-0.4l0.2,0.2l-0.5-0.2l0.3,0.3 l-0.8-0.4l0.3,0.3l-0.7-0.4l0.3,0.3l-0.7-0.5l0.1,0.1l-0.6-0.3l0.3,0.3l-0.7-0.5l0.2,0.2l-0.5-0.4v0.1l-0.6-0.4l-0.8-0.5l1,0.7 l0.2,0.1h-0.1l0.5,0.3l0.3,0.2v0.2l0.5,0.2h-0.2l0.4,0.3v0.1l0.5,0.3h-0.1l0.3,0.2h-0.2L656,95h-0.2L656.5,95.8z"/> <path class="st7" d="M649.1,153.8l-6.8-5.4l-6-3.4c1.6,0.4,3.2,1.1,4.7,1.9c0.7,0.4,0.2,0.2,4.2,3c1.1,1,2.3,1.9,3.5,2.7 c0.1,0.1,0.3,0.2,0.3,0.3C649.1,153.2,649.1,153.5,649.1,153.8z"/> <path class="st7" d="M648.3,133.3c0.3-0.9,3.3-9.9,3.3-9.9l5.8-9.3l5.4-5.2l-5.6,6.5l-3.4,5.7l-2.6,5.5l-3.2,8.8L648.3,133.3z"/> <path class="st7" d="M647.6,116.7c0-0.2,1.6-4.4,2.5-6.5l0.5-1.2l2.5-5.2l2.4-1.4l-1.6,1.9l-1.8,2.4l-3.1,8.2l-1.4,4V116.7z"/> <polygon class="st7" points="647.7,129.3 640.6,123.2 633.7,118.3 627.4,116.4 623.9,116.4 628,117.4 631.5,118.3 633.7,119.5 638.5,122.7 642.6,125.7 648,130.7 "/> <path class="st7" d="M646.1,111.9l-2.4-8.2c0,0-3.6-6.9-4.2-7.2s-5.1-5.1-5.1-5.1l3.6,2.2l3,3.6l1.7,3.1l2.2,4.1l1.4,4.5l0.9,4.9 L646.1,111.9z"/> <path class="st7" d="M646.1,111.9v-8.4l1.5-5.3l1.8-4.3l3.8-4l-1.7,2.7l-1.3,2l-1.2,2.6l-1.1,3.1l-0.9,3c0,0,0.2,3.1,0,3.1 c-0.3,1.2-0.5,2.5-0.6,3.8L646.1,111.9z"/> <path class="st7" d="M1160.3,215l-5.5-2.1l-0.9-0.6l-1.2-0.9l-0.3,1l-2.3-1.8l-0.3,1l-1.7-1.8l-0.3,1l-1.7-2.5l-0.4,1.5l-2.5-2.8 l-0.3,1.1l-1.5-3.1l-0.8,0.7l-1-3.2l-2.8-3.1l1.1,2.8c0.1,1,0.1,1.9,0.2,2.9l-1-0.3l0.6,1.8l-1,0.1l0.5,1.6l-0.8,0.1l-1.3,1.8 l-0.1-2.3l-0.2-1.7l-1.1-0.3l0.6-2.1l-0.6-0.2l0.5-2l0.4-1.5l-0.6-0.2l1.1-1.7c-0.1-0.6-0.2-1.3-0.4-1.9c0,0,0-0.1,0-0.1 l-9.8,10.2l0,0l-0.3-0.7l9.3-10.6h-0.1l-2-0.2l-1.6,1.3l-0.2-0.6l-1.5,0.5l-2,0.7l-0.2-0.6l-2.1,0.8l-0.4-1.1l-1.7-0.1l-2.3,0.1 l1.7-1.4v-0.8l1.7,0.4l0.1-1l1.9,0.4l-0.3-1l2.9-0.1l2.8,0.9l-3.4-2.5l-3.2-0.8l0.6-0.9l-3.2-1.2l1.1-0.4l-3-2.2l1.5-0.5l-2.6-1.4 l1-0.4l-1.9-1.5l1-0.4l-2-2.2l1-0.4l-0.9-1.1l-0.7-0.8l-2.6-5.3l4.2,3.3l0.6-1.6l1.1,3.2l0.7-1.6l1,2l0.5-0.9l1.4,2.7l0.7-0.7 l1.4,2.3l0.4-1.2l0.8,3.4l1.2-0.4l0.7,2l1.2,3.4l0.4-0.8l0.5,1.4l4.3,5.2l-2.7-4.8l-2.2-3.1l1-0.3l-2.3-2.6l1.7,0.8 c0,0-2.8-4-2.9-4.1l0,0c0.6,0.5,1.2,0.9,1.8,1.3c0,0-0.7-2.4-1.2-3.6c0.3,0.2,0.6,0.4,0.9,0.6l-2.4-4.3l2,1.2l-1.7-4.7l1.4,1.6 l-1.8-5l1.9,1.4l-0.5-3.7l1.6,1l-1.6-4.4l3.1,1.7v-4l1.3,1.3l0.6-5l0.6,5.1l0.9-1l0.1,3.4l1.7-1.4l-1,3.5l2.1-0.3l-1.4,3.7 l1.7-0.7l-1.1,3.6l1.3-0.5l-1.3,3.4l1.5-0.5l-1.9,2.9l1.3,0.1l-1.6,1.8l0.8,0.8l-1.2,2l1.8-0.7l-2.6,3.9l1.7-0.3l-2.4,3.7 c-0.1,0.6-0.1,1.3-0.2,1.9l2.3,3.4l1-5.7c0.2-0.7,0.3-1.4,0.5-2.1V180l1.3,0.8l0.2-4l0.7,1.7l0.2-4.8l1.5,2l1-4.5l0.6,1.7l2-4.2 l0.8,2.2l1.3-4.4l1,2.6l1.3-4.1l0.8,2.2l2.2-3.8l0.8,2.1l2.3-2.9l-0.2,2l2.9-3.1v2.4l2.3-3.3l0.8,2.2l1.5-2.5l0.3,0.9l5.2-2.5h0.1 l-0.1,0.3l-2,5.4l0.9,0.2l-2.3,1.7l2.3,0.6l-3.1,2.6l2.3-0.2l-2.9,3.2l2-0.4l-2.7,2.5l2.2,0.6l-3.6,2.6l2.3,0.6l-4,1.6l2.7,0.7 l-4.2,1.7l2.3,0.6l-4,2.3l1.7,0.4l-4.4,1.4l2.1,1.4l-4.8,0.6l1.7,0.6l-3.9,0.6l0.9,1.2l-4.2,0.4l-2,0.7l-5.6,1.5l3.6,2l1.9-0.3 l3.5-2.7c0,0.6,0,1.2,0.1,1.7l3.7-2.9c-0.2,0.6-0.4,1.2-0.5,1.9l1.8-1.4l0.9,0.8l1.7-1.7l0.2,1.3l2.7-2.1l-0.4,1.5l3.2-1.6 l-0.4,1.4l3.5-1.4l-0.6,1.7l3.6-1.8l-0.2,2.1l3.4-1.3l-1.3,1.8l3.4-0.2l-0.9,1l5.1,0.1l-5,1l1.4,1.2l-4,0.3l1.9,2.9l-4.5-1.2 l1.1,1.5l-3.7-0.2l1.6,1.8l-5.3-1.4l1.8,1.4l-4.8-1.3l1.4,1.9l-4.5-2c0.2,0.3,0.4,0.6,0.7,0.9c-1.2-0.3-3.7-0.8-3.7-0.8 c0.4,0.6,0.9,1.2,1.4,1.7c0.3,0.2-4.3-2.5-4.3-2.5l0.9,1.6l-2.8-2.1l-0.2,1l-3.3-1.9l-5-2.2l5.6,3.9l1.4,0.4l-0.8,0.5l3.5,0.9 l2,0.5l-0.3,1.3l3.5,0.5l-1.2,0.5l2.4,1.2l-0.6,0.8l2.8,1.1l-0.8,0.6l2.1,0.8l-1.6,0.9l3.3,0.9l-1.5,0.7L1160.3,215z"/> <path class="st7" d="M1414.5,210.6l-2.7-23.6l0.1-0.8l0.1-0.8l0.8-6.1l-0.8-0.2l-0.8,7.8c0,0-5.8-6.1-6.1-6.4l0,0 c-0.6-0.4-1.2-0.6-1.9-0.8l7.5,7.8l1.5,11.4l1.3,15.6L1414.5,210.6z"/> <path class="st7" d="M1417.7,181l-1,0.1h-0.2h-0.2v0.2l-0.5-0.1v0.2l-0.4-0.1v0.2l-0.4-0.2l0.1,0.2l-0.6-0.2l0.1,0.2l-0.5-0.3 l-0.1,0.2l-0.4-0.4l-0.7-0.2l0.4,0.3c0.1,0.1,0.2,0.3,0.3,0.4h-0.2l0.2,0.2l-0.1,0.1l0.2,0.2l-0.1,0.1v0.4l-0.2-0.3l-0.2-0.2h-0.2 l-0.1-0.4h-0.1l-0.1-0.3l-0.1-0.2h-0.1v-0.4l-0.2-0.2l0,0c-0.2,0.8-0.4,1.5-0.6,2.3l0,0l-0.1-0.1l0.5-2.3l0,0l-0.3,0.1l-0.1,0.3 l-0.1-0.1l-0.2,0.2l-0.2,0.3l-0.1-0.1l-0.2,0.3l-0.2-0.1l-0.2,0.1l-0.3,0.2l0.1-0.4l-0.1-0.1l0.3-0.1l-0.1-0.1l0.3-0.1l-0.1-0.1 l0.4-0.2l0.5-0.1l-0.7-0.1l-0.5,0.1V180l-0.6,0.1l0.1-0.1l-0.6-0.1l0.2-0.2h-0.4l0.1-0.1l-0.4-0.1l0.1-0.1l-0.5-0.2l0.1-0.1 l-0.2-0.1l-0.2-0.1l-0.8-0.6l0.9,0.1v-0.3l0.4,0.4v-0.3l0.3,0.2v-0.2l0.4,0.3l0.1-0.2l0.4,0.2v-0.2l0.4,0.4l0.2-0.2l0.3,0.2 l0.4,0.4v-0.1l0.2,0.2l1.1,0.4l-0.8-0.5l-0.6-0.3l0.1-0.1l-0.6-0.2h0.3l-0.8-0.4l0,0c0.1,0,0.3,0,0.4,0l-0.5-0.4 c0.1,0,0.1,0,0.2,0l-0.7-0.4h0.4l-0.6-0.6l0.4,0.1l-0.7-0.6h0.4l-0.4-0.5h0.3l-0.6-0.5h0.6l-0.3-0.6l0.3,0.1l-0.3-0.8l0.5,0.7 v-0.2l0.3,0.5l0.1-0.4l0.2,0.6l0.3-0.2l0.1,0.7l0.2-0.2l0.1,0.6l0.2-0.2l0.1,0.6l0.2-0.2v0.6l0.2-0.1l-0.1,0.4h0.2v0.4l0.2-0.2 l-0.1,0.8l0.2-0.1v0.7l0.1,0.3l0.6,0.3l-0.3-0.9l-0.1-0.4l-0.3-0.6h0.2l-0.3-0.6l0.2,0.2l-0.4-0.7l0.4,0.2l-0.2-0.7l0.2,0.2v-0.8 l0.3,0.3l-0.2-0.8l0.3,0.3l-0.1-0.7l0.3,0.3v-0.7l0.3,0.2l0.1-0.6l0.1,0.3l0.2-0.7l0.2,0.4l0.1-0.7l0.3,0.3v-0.5l0.1,0.1l0.6-0.8 l0,0l0,0l0.1,1h0.1l-0.2,0.4l0.4-0.1l-0.2,0.6l0.3-0.2l-0.2,0.7l0.2-0.2l-0.2,0.6l0.4-0.1l-0.3,0.7l0.4-0.1l-0.5,0.6l0.5-0.1 l-0.5,0.6l0.4-0.1l-0.4,0.7l0.3-0.1l-0.5,0.6h0.4l-0.7,0.5l0.3-0.1l-0.5,0.4l0.2,0.1l-0.6,0.4l-0.2,0.3l-0.7,0.7h0.7l0.2-0.2 c0.1-0.2,0.2-0.4,0.3-0.7l0.2,0.2l0.3-0.7l0.1,0.3l0.2-0.4h0.2l0.1-0.4l0.1,0.2l0.2-0.5l0.1,0.3l0.3-0.5l0.1,0.2l0.4-0.5v0.3 l0.4-0.6l0.2,0.3l0.4-0.5v0.4l0.5-0.3v0.2l0.8-0.4l-0.7,0.5l0.3,0.1l-0.6,0.4l0.5,0.3l-0.8,0.2l0.3,0.1l-0.6,0.3l0.4,0.1l-0.9,0.2 l0.4,0.1l-0.8,0.2l0.3,0.2l-0.8,0.1c0.1,0,0.1,0.1,0.2,0.1l-0.6,0.2c0.1,0.1,0.2,0.1,0.3,0.1h-0.8l0.3,0.2l-0.6-0.1v0.2h-0.6 l-0.9,0.1l1.1,0.1l0.2-0.1l-0.1,0.1l0.6-0.1l0.3-0.1l0.1,0.2l0.6-0.2l-0.1,0.2h0.4v0.2h0.5l-0.1,0.1h0.4l-0.2,0.2l0.6-0.1 l-0.2,0.2L1417.7,181z"/> <path class="st7" d="M1405.6,177.2v0.6v0.1l-0.1,0.1h0.2l-0.1,0.3h0.2l-0.2,0.2h0.2l-0.3,0.2l0.2,0.1l-0.3,0.3l0.2,0.1l-0.4,0.1 l0.1,0.1l-0.4,0.1l-0.3,0.3l0.3-0.1h0.4v0.1h0.2l0.1,0.1h0.2v0.1l0.3,0.2h-0.6v0.1l-0.3-0.1v0.1l-0.3-0.1l-0.2-0.1v0.1l-0.3-0.2 h-0.3l0,0l2,1.3l0,0h-0.1l-2-1.2l0,0c0,0.1,0,0.2,0.1,0.2l0.3,0.2h-0.1l0.2,0.2l0.2,0.2h-0.1l0.2,0.3h-0.1l0.1,0.2l0.1,0.3 l-0.3-0.2h-0.1v-0.2h-0.1v-0.2h-0.1c0-0.1-0.1-0.2-0.2-0.4s0-0.2,0-0.3l-0.2,0.4l0.1,0.4l-0.2-0.1v0.4l-0.1-0.1l-0.2,0.3l-0.2-0.2 l-0.1,0.3l-0.1-0.1l-0.1,0.2l-0.1-0.1l-0.2,0.2l-0.1-0.1l-0.1,0.1l-0.1,0.1l-0.6,0.2l0.3-0.5l-0.3-0.1l0.4-0.1l-0.3-0.1l0.2-0.1 l-0.2-0.1l0.3-0.1l-0.1-0.1l0.2-0.1l-0.2-0.1l0.4-0.1l-0.1-0.2l0.2-0.1l0.4-0.1l-0.1-0.1h0.2l0.5-0.5l-0.5,0.3l-0.3,0.2l-0.1-0.1 l-0.2,0.2v-0.2l-0.4,0.3l0,0c0-0.1,0.1-0.1,0.1-0.2l-0.4,0.1c0,0,0-0.1,0-0.1l-0.5,0.2l0.1-0.2l-0.6,0.1l0.2-0.2l-0.6,0.2l0.1-0.2 h-0.5v-0.2l-0.5,0.1l0.1-0.4l-0.6-0.1l0.1-0.1l-0.8-0.1h0.7l-0.2-0.1h0.5l-0.3-0.2l0.6,0.2l-0.2-0.3l0.6,0.2l-0.2-0.2l0.6,0.2 l-0.1-0.2l0.6,0.2l-0.2-0.2l0.5,0.3l-0.1-0.1l0.3,0.2l0.1-0.1l0.3,0.2l-0.2-0.2l0.7,0.4c0-0.1-0.1-0.1-0.1-0.2l0.7,0.3h0.3 l0.4-0.2l-0.9-0.2l-0.3-0.1l-0.6-0.1v-0.1l-0.6-0.1l0.2-0.1l-0.7-0.1l0.2-0.2l-0.7-0.2l0.2-0.1l-0.7-0.3l0.3-0.1l-0.7-0.2l0.3-0.1 l-0.7-0.2l0.3-0.1l-0.7-0.3l0.3-0.1l-0.5-0.3l0.3,0.1l-0.6-0.4h0.3l-0.6-0.3l0.3-0.1l-0.4-0.2h0.1l-0.6-0.7l0,0l0,0l0.9,0.3v-0.1 l0.3,0.3v-0.3l0.5,0.4l-0.2-0.3l0.6,0.4l-0.2-0.2l0.5,0.4V176l0.6,0.5v-0.3l0.4,0.5v-0.3l0.5,0.5v-0.3l0.5,0.5v-0.2l0.4,0.6 l0.1-0.2l0.3,0.6v-0.2l0.3,0.5l0.1-0.1l0.3,0.5l0.2,0.2l0.5,0.7c0-0.1,0.1-0.3,0.1-0.4l-0.1-0.2l-0.6-0.5h0.2l-0.6-0.5l0.3,0.1 l-0.3-0.2l0.1-0.1l-0.3-0.2h0.2l-0.4-0.4l0.2,0.1l-0.4-0.4l0.2,0.1l-0.4-0.4l0.3,0.1l-0.4-0.5l0.3,0.1l-0.4-0.4l0.3,0.2l-0.2-0.4 l0.2,0.1l-0.2-0.6l0.4,0.6l0.1-0.2l0.2,0.5l0.3-0.2l0.1,0.5l0.2-0.1l0.2,0.4l0.2-0.2l0.1,0.6l0.1-0.2l0.1,0.6l0.2-0.1v0.5 c0,0,0.1,0,0.1-0.1c0,0.1,0.1,0.4,0.1,0.4c0.1,0,0.1-0.1,0.2-0.1l-0.1,0.5l0.2-0.1l-0.2,0.3h0.2l-0.1,0.4l-0.1,0.6 c0.1-0.2,0.2-0.4,0.3-0.6v-0.2l0.1,0.1v-0.4v-0.2l0.2,0.1l-0.1-0.4l0.1,0.2v-0.3l0.1,0.1v-0.3l0.1,0.1v-0.2l0.2,0.2v-0.4l0.2,0.2 L1405.6,177.2z"/> <path class="st7" d="M442,249.1c-0.2-0.1,3.3-18.9,3.3-18.9l5-5l1.9-2.7l-1.3,0.6l-1.1,1.7l-4.5,4.5l3.3-13l2.4-17.5l0.3-1.2 l2.1-8.1l3.6-5.5l-1.9,0.9c-0.7,1.5-1.5,3-2.4,4.4c-0.3,0.1-2,7.5-2,7.5l-1.5-3.4l-3.8-4.2c-1.4-1.5-2.9-2.8-4.4-4.1 c-0.8-0.3-1.6-0.7-2.4-1.1l-0.6,0.3l3.4,1.9l4.6,4.7l3,3.8l1.2,3.2l-2.4,18.1l-3.1,11.3l-2.4,13.2l-1.8,9L442,249.1z"/> <path class="st7" d="M436.8,187l-0.5,0.9V187l-0.3,0.1l0.4-0.4l-0.4,0.1l0.2-0.3h-0.2l0.3-0.4h-0.2l0.2-0.4l-0.3,0.1l0.5-0.4 l-0.2-0.1l0.2-0.3l0.4-0.5h-0.2l0.1-0.2c0.1-0.4,0.2-0.7,0.3-1.1c-0.1,0.3-0.3,0.6-0.5,0.8l-0.2,0.6l-0.2-0.1l-0.1,0.5l-0.1-0.3 l-0.3,0.8l0,0c0-0.1,0-0.2,0-0.4c0,0-0.3,0.3-0.4,0.5c0-0.1,0-0.1,0-0.2l-0.4,0.7l-0.1-0.4l-0.5,0.7l0.1-0.4l-0.6,0.7v-0.4 l-0.5,0.4v-0.3l-0.5,0.6l-0.1-0.6l-0.7,0.4l0-0.3l-0.9,0.4l0.8-0.6h-0.3l0.5-0.4l-0.5-0.1l0.7-0.2l-0.3-0.2l0.8-0.2l-0.3-0.2 l0.7-0.2l-0.2-0.1l0.7-0.1l-0.3-0.1h0.7l-0.2-0.2h0.5v-0.2h0.5l-0.4-0.2h1l-0.2-0.2h0.9l0.3-0.2c0.1-0.2,0.2-0.4,0.3-0.6 c-0.4,0.1-0.7,0.3-1.1,0.4l-0.4,0.1l-0.7,0.4v-0.2l-0.7,0.4l0.2-0.3l-0.8,0.4l0.1-0.4l-0.9,0.3l0.2-0.2l-0.9,0.1l0.2-0.3l-0.9,0.2 l0.3-0.4l-0.8,0.2l0.3-0.3l-0.9,0.1l0.2-0.3h-0.8l0.4-0.2l-0.9-0.1l0.4-0.2h-0.8l0.3-0.3h-0.6l0.1-0.1l-1.2-0.6h0.1l1.1-0.2 l-0.1-0.1l0.6,0.1l-0.2-0.4l0.8,0.2L429,181l0.9,0.1l-0.3-0.2l0.8,0.1l-0.2-0.3l0.9,0.2l-0.2-0.4l0.8,0.4l-0.2-0.4l0.8,0.4 l-0.2-0.4l0.9,0.3l-0.1-0.3l0.8,0.4v-0.4l0.7,0.6l-0.1-0.3l0.6,0.5l0.1-0.2l0.6,0.5l0.4,0.2l1,0.6l0.6,0.4l0,0 c0.1,0.1,0.1,0.2,0.2,0.3l0.4,0.2l0.3,0.1l0.4,0.2l-0.1,0.1l0.4,0.2l-0.1,0.2l0.2,0.2l0.3,0.3l-0.5-0.1l-0.1,0.1l-0.2-0.2 l-0.2,0.1l-0.2-0.3l-0.1,0.1l-0.4-0.4l-0.2-0.4v0.7l0.3,0.5h-0.2l0.2,0.5l-0.2-0.1v0.6l-0.3-0.1l0.1,0.5l-0.2-0.1v0.4l-0.2-0.1 l-0.1,0.5l-0.2-0.1l-0.1,0.2L436.8,187z"/> <path class="st7" d="M458.4,187.6l0.9,0.5l-0.5-0.8l0.3-0.1l-0.5-0.2l0.3-0.1l-0.3-0.2l0.2-0.1l-0.5-0.2l0.2-0.1l-0.4-0.2l0.3-0.1 l-0.6-0.1l0.1-0.2l-0.3-0.1l-0.6-0.2l0.2-0.1l-0.2-0.1l-0.8-0.8c0.3,0.2,0.5,0.3,0.8,0.5l0.5,0.4l0.1-0.2l0.4,0.4l-0.1-0.3 l0.7,0.5l0,0c-0.1-0.1-0.1-0.2-0.2-0.3c0,0,0.4,0.1,0.6,0.2c0,0-0.1-0.1-0.1-0.2l0.7,0.4l-0.1-0.4l0.8,0.3l-0.3-0.3l0.9,0.3 l-0.2-0.4l0.7,0.1l-0.1-0.3l0.8,0.3l-0.2-0.6h0.8l-0.2-0.2l1-0.1l-0.9-0.1l0.2-0.2h-0.6l0.4-0.3l-0.7,0.2l0.2-0.4l-0.8,0.3 l0.2-0.3l-0.7,0.2l0.1-0.2l-0.7,0.2l0.2-0.3l-0.6,0.3l0-0.2l-0.4,0.3l-0.1-0.1l-0.4,0.2c0.1-0.1,0.1-0.2,0.2-0.3l-0.9,0.5l0.1-0.3 l-0.8,0.4h-0.4l-0.5-0.4l1.1-0.2l0.4-0.1h0.8l-0.1-0.2h0.8l-0.3-0.1h0.9l-0.3-0.3l0.9-0.2l-0.3-0.1l0.9-0.4l-0.4-0.1l0.9-0.2 l-0.5-0.2l0.9-0.2l-0.4-0.1l0.8-0.4l-0.4-0.1l0.7-0.4h-0.4l0.7-0.5h-0.5l0.7-0.4l-0.4-0.1l0.5-0.3h-0.1l0.7-0.9l0,0h-0.1l-1.1,0.4 v-0.2l-0.4,0.4v-0.4l-0.6,0.6l0.1-0.4l-0.7,0.5l0.2-0.4l-0.6,0.5v-0.4l-0.6,0.6V179l-0.5,0.7v-0.5l-0.5,0.8v-0.4l-0.6,0.7V180 l-0.5,0.8l-0.2-0.4l-0.3,0.9V181l-0.3,0.7l-0.2-0.2l-0.3,0.8l-0.2,0.4c-0.2,0.3-0.4,0.7-0.5,1l-0.4,0.7l0,0c0,0.1,0,0.2,0,0.4 l-0.2,0.3l-0.2,0.3l-0.2,0.4h0.1L455,186l0.2,0.1l-0.1,0.3l-0.1,0.4l0.4-0.3h0.2v-0.3h0.2v-0.3l0.2,0.1c0-0.2,0.1-0.4,0.1-0.5 s0-0.3,0-0.5l0.3,0.6v0.6l0.2-0.1l0.1,0.6l0.1-0.2l0.3,0.5l0.2-0.3l0.2,0.5l0.1-0.2l0.2,0.4l0.1-0.2l0.3,0.4l0.1-0.2l0.2,0.2 L458.4,187.6z"/> <path class="st7" d="M457.4,174.9l-1,0.2H456l0.1,0.2h-0.5l0.1,0.2l-0.4-0.1l0.1,0.2l-0.5-0.2l0.1,0.2l-0.6-0.1l0.1,0.2l-0.5-0.3 v0.2l-0.5-0.3l-0.7-0.2l0.4,0.3l0.3,0.4l-0.2,0.1l0.3,0.2l-0.1,0.1l0.2,0.2l-0.1,0.1v0.4l-0.2-0.3l-0.2-0.2l-0.2,0.1l-0.1-0.4 h-0.1l-0.1-0.3l-0.1-0.2h-0.1V175l-0.2-0.2l0,0l-0.3,2.3l0,0l-0.1-0.1l0.2-2.3l0,0l-0.3,0.2l-0.1,0.3l-0.1-0.1l-0.1,0.2l-0.2,0.3 l-0.1-0.1l-0.2,0.3l-0.2-0.1l-0.2,0.1l-0.3,0.2l0.1-0.4l-0.1-0.1l0.3-0.1l-0.1-0.1l0.3-0.1l-0.1-0.1l0.4-0.3l0.5-0.2h-0.7 l-0.5,0.2v-0.2l-0.5,0.1l0.1-0.2H449l0.1-0.2l-0.5,0.1l0.1-0.1h-0.4l0.1-0.1l-0.5-0.1l0.1-0.1h-0.2h-0.2l-0.9-0.5h0.9l-0.1-0.3 l0.5,0.3l-0.1-0.3l0.3,0.2v-0.2l0.5,0.2v-0.2l0.4,0.2l-0.1-0.2l0.4,0.4l0.1-0.2l0.3,0.2l0.5,0.3v-0.1l0.2,0.1l1.1,0.3l-0.8-0.4 l-0.6-0.2l0.1-0.1l-0.6-0.1h0.3l-0.8-0.3l0,0c0.1,0,0.2,0,0.4,0c0,0-0.3-0.2-0.5-0.4h0.2l-0.7-0.4h0.4l-0.7-0.5l0.4,0.1l-0.7-0.5 h0.4l-0.4-0.4h0.3l-0.6-0.4l0.6-0.1l-0.4-0.5l0.3,0.1l-0.4-0.7l0.6,0.6V170l0.4,0.4l0.1-0.4l0.2,0.6l0.2-0.2l0.2,0.6l0.2-0.3 l0.2,0.6l0.1-0.2l0.2,0.6l0.1-0.2v0.6l0.2-0.1v0.4h0.2v0.4l0.2-0.3v0.8l0.2-0.3v0.7c0.1,0.1,0.1,0.2,0.2,0.3l0.6,0.2l-0.4-0.9 l-0.1-0.3l-0.4-0.6h0.2l-0.4-0.6l0.3,0.2l-0.4-0.7l0.4,0.1l-0.3-0.7l0.2,0.2l-0.1-0.8l0.3,0.2l-0.2-0.7l0.4,0.3l-0.2-0.7l0.3,0.2 l-0.1-0.7l0.3,0.2v-0.6l0.2,0.3l0.1-0.7l0.2,0.3v-0.7l0.3,0.2v-0.5l0.1,0.1l0.5-0.9l0,0v0.1l0.2,0.9l0.1-0.1l-0.1,0.5l0.4-0.1 l-0.2,0.6l0.3-0.3l-0.1,0.7l0.2-0.3l-0.1,0.6l0.3-0.1l-0.2,0.7l0.4-0.1l-0.4,0.6l0.4-0.2l-0.4,0.6l0.4-0.1l-0.3,0.7l0.3-0.1 l-0.5,0.6h0.4l-0.6,0.6l0.3-0.1l-0.5,0.5l0.2,0.1l-0.5,0.5l-0.2,0.3l-0.6,0.8l0.7-0.1l0.2-0.2l0.2-0.7l0.2,0.2l0.2-0.8 c0,0.1,0.1,0.2,0.1,0.3l0.1-0.4h0.2v-0.4l0.1,0.2l0.2-0.6l0.1,0.2l0.3-0.5l0.1,0.2l0.3-0.5l0.1,0.3l0.3-0.6l0.2,0.3l0.3-0.5v0.4 l0.5-0.4v0.2l0.7-0.5l-0.6,0.6h0.3l-0.5,0.4l0.5,0.2l-0.7,0.3l0.3,0.1l-0.5,0.3l0.4,0.1l-0.8,0.3h0.4l-0.8,0.3l0.4,0.1l-0.8,0.2 c0.1,0,0.1,0,0.2,0l-0.6,0.2c0.1,0,0.2,0.1,0.4,0.1l-0.8,0.1l0.3,0.1h-0.6l0.1,0.2h-0.6l-0.9,0.2h1.1l0.2-0.1l-0.1,0.1l0.6-0.2 l0.3-0.1l0.1,0.2l0.5-0.3l-0.1,0.2l0.4-0.1v0.2l0.5-0.1l0,0.2l0.4-0.1l-0.1,0.3l0.5-0.2l-0.1,0.2L457.4,174.9z"/> <path class="st7" d="M449.9,208.2v-24.5l2.4-14.2c0,2.4,0,4.9,0,7.3l-1.1,7.6c0,2.4-0.1,4.8-0.1,7.1c0,1.5,0.1,2.9,0.1,4.4v6.8 c0.2,3.8,0.4,7.5,0.6,11.2L449.9,208.2z"/> <path class="st7" d="M533.8,194.3l-2,3.8l-0.9,3.7l-0.5,4v2.1l1.7,5.3l1.7,4.1l1.3,2.1v1.4l1.2,5.3l0.3,2.8l0.5,2.5l-1.4,6.2 l1.4,3.2l1.6-0.7l0.6-2l0.9-2.7l-0.4-1.4l0.4-2.1l-0.9-1.2l0.4-2.2l1.1,1.4l1.7,0.9l-0.8,1.4l-0.4,1.6l0.7,0.9l1,0.2v1.9l-0.5,1.3 l0.8,1.3h2.7l1-0.2l-0.4-2.4l0.4-2.4v-1.8l1.3,0.9l0.9-0.2c-0.2,0.3-2.1,4.8-0.2,6.9c2.5,2.7,9-1,9.8-1.4 c3.8-2.1,8.4-6.7,7.1-10.1c-0.5-1.2-1.6-2.2-2.9-2.6l-3.7-0.5l-1.2-2.6l-1.6-2.6l-1.2-0.7l-1.9-4.3l-1.6-4.4c0,0-2.1-3.3-2.3-3.5 c-0.8-0.6-1.5-1.2-2.3-1.7l-1.6-1.2l-0.1-1.1l1.4,0.3l1.6,0.2l1.1-0.9l1.4-1.1l0.5-0.9l-0.3-0.8l-1.5-1.1l-1.1-1.3l-0.5-0.6 l0.5-0.9l-0.3-0.7l-0.2-1.1l-0.7-1l-0.2-1.8l0.8-2.1l0.4-2l0.6-1.5l0.2-1.3l0.2-1.1l-1.4,0.7l-1.6,1.1l-1.7,1l-1.6,1l-1.3,0.7 l-1.2-1l-0.3-1.6l-0.5-1.8l-0.9-0.4l-1.8,0.9l-1.5,2.9l-0.8,1.6l-0.3,0.9l-0.8,0.6l-0.4,1.4L533.8,194.3z"/> <path class="st7" d="M1455.1,178.8l-0.5-2.4l-1.3-2.3l-1.4-1l-1.4,1.4l-1.4,1.5l-1.4,1.8l-1.2,0.2l-1.9,0.5l-1,1.6l-1.2,1.6 l-1.1,1v1.2l0.4,1.1l2,0.9l1.9,1l2.6,0.8l1.3,0.4l1.6,1.7l1.9,2.5l0.2,2.3l-0.3,2.9l-0.6,1.5l-2.5,0.5l-1.7,1.4l1,1.1h2.8l2.1-1.4 l1.6-2.1l2.3-2.5l1.1-0.9l1.8,0.2l1.8,1.5l1.9,1.4l2.1,0.7l1.8,0.6c0,0-1.6,0.8-1.9,0.9s-2,0.1-2.1,0.4s0.3,1.2,0.3,1.2l1,1h2.8 l1.3-1.2l1.3-0.7l1.8-1.6l2.4-0.6l2-1.4l1.6-0.8l3.2-2.2l3.4-3.1l2.9-1.4l3,0.4c0,0,1.8,1.7,1.6,2c-0.2,0.8-0.4,1.6-0.5,2.4 c0,0-0.7,2.6-0.7,2.9s-0.1,3.5-0.1,3.5l1.3,1.9h1.9l2.7-1.7l1.8-3.4l1-3.9v-3.5l-0.9-3.1l-1.2-2.1l-2.2-2.2l-2.1-1.4l-3.3-1.2 l-3.3,0.2l-2.6,1l-3,3.8l-2.1,3.8l-1.2,2l-1.3,1.3l-1,0.3l-0.6-3.1l-1-2.6l-2.2-3.4l-3.5-3.1l-3.3-0.7l-6.3-0.2l-3.6-0.3 L1455.1,178.8z"/> <circle class="st7" cx="731.8" cy="409.3" r="2.9"/> <circle class="st7" cx="731.8" cy="430.5" r="2.9"/> <circle class="st7" cx="731.8" cy="451.6" r="2.9"/> </g> </g> </svg>
