<svg xmlns="http://www.w3.org/2000/svg" viewBox="0 0 78.69 124"><defs><style>.cls-1,.cls-2{fill:#bcbec0;}.cls-2{font-size:8.89px;font-family:MyriadPro-Regular, Myriad Pro;letter-spacing:0.06em;}.cls-3{letter-spacing:0.03em;}.cls-4{letter-spacing:0.04em;}.cls-5{letter-spacing:0.06em;}</style></defs><g id="Слой_2" data-name="Слой 2"><g id="Слой_1-2" data-name="Слой 1"><path class="cls-1" d="M27.49,41.87h0v.05l2.11-.05V39.76H27.44v2.11Z"/><path class="cls-1" d="M25.4,26.85V29l2.08-.13c0-.78-.07-1.4-.1-2Z"/><rect class="cls-1" x="29.74" y="46.24" width="2.02" height="2.02"/><path class="cls-1" d="M40.57,54.84h2V52.68h2.16v-2h2.11c0,.66.06,1.34.1,2h2.21V48.47h2c.06.71.11,1.34.16,2h2c0-.7.07-1.29.11-1.94h2c.06.71.11,1.34.17,1.93h4.16c.06-.71.11-1.3.16-1.92H62.1v4.23l2-.1c.06-.79.1-1.37.14-2l2.11-.24v-2h0v0H64.15V44H62.07v0h0v2H55.68v-2H62v0h0V41.92h0v-.05H57.85V39.8l1.94-.14v-2H53.33v4.13L51.22,42v4.26H44.87c-.1.81-.18,1.44-.26,2.05l-2,.16c0,.69-.09,1.32-.14,2H38.4v-2l2-.16c0-.7.1-1.32.15-2l2.05-.24v-2H38.29V41.92h0v-.05h-2c-.09.73-.16,1.35-.24,2.08H34V39.83l2-.17c0-.6,0-1.22.09-1.94L34,37.47c0-.68-.07-1.35-.11-2H31.81c0,.68-.07,1.36-.11,2l-2.05.24v2h2v2.11l-2,.1v2l2.16.25v2H36v2.09l-2.07.25v4.15h0v0h6.35C40.41,53.53,40.49,54.16,40.57,54.84Z"/><path class="cls-1" d="M18.81,44.06l0,0h-.05c0,.68.07,1.36.12,2.19h4.2v2.09h.05l0,0,0,0v0l2.18-.11V44.17l2.15-.25v-2h0l0,0,0,0v-.05H25.25V33.28H23.16v2.16H21v2l2.14.26c0,.73-.06,1.35-.09,1.94l-2,.17v2l2.06.21c0,.73-.06,1.35-.09,2H18.84v0Z"/><path class="cls-1" d="M62,41.87h0v.05h4.27v-.05h0V39.76h0v0H62Z"/><path class="cls-1" d="M14.6,26.79c-.09.81-.16,1.44-.25,2.15l-1.94-.09c-.07-.77-.11-1.35-.16-2h-2V31h8.5V26.79Z"/><path class="cls-1" d="M51.13,59.29l-2-.23c-.09-.73-.17-1.35-.26-2.06H44.78v0l-.05,0h.05c0-.7,0-1.4-.05-2.11H42.62v2.16h2.11v0l.05,0h-.05c0,.68.07,1.36.1,2l2.06.23v2h0v.05h4.19Z"/><path class="cls-1" d="M12.36,37.6h0v-.05H10.2v.05h0v2.11h0v0h2.16Z"/><path class="cls-1" d="M42.56,41.87h.06V39.76h-.06v0H38.24v2.16h0v.05h4.28Z"/><path class="cls-1" d="M42.62,39.71h0v0h2.16v2.11h4.27V39.76l-2.16-.12v-4.2H44.78V37.6H42.62c0,.7,0,1.41,0,2.11Z"/><path class="cls-1" d="M12.36,37.55v.05h6.48V35.44h-.05v0H12.36v0h0v2.11Z"/><polygon class="cls-1" points="14.52 48.36 14.52 48.41 14.52 48.41 14.47 48.41 14.47 50.52 14.52 50.52 14.52 50.57 16.63 50.57 16.63 50.52 16.68 50.52 16.68 48.36 14.52 48.36"/><path class="cls-1" d="M16.68,44.08h-.05l.05,0v0h2.11v0h.05c0-.67-.07-1.35-.1-2H16.63v2h.05l-.05,0v0H14.47v2.16h0v.06h2.16Z"/><path class="cls-1" d="M57.62,33.21H53.47v2.11h4.15Z"/><rect class="cls-1" x="49.1" y="37.7" width="2.03" height="2.02"/><rect class="cls-1" x="29.75" y="33.37" width="2.02" height="2.03"/><path class="cls-1" d="M23.11,48.41h0v0H18.79v2.16h.05v0h4.27v0h.05V48.41Z"/><path class="cls-1" d="M64.18,65.79v2h0l0,0,0,0v0h2.11v0h0c0-.68-.07-1.35-.1-2Z"/><path class="cls-1" d="M23.11,29V28.9l0,0,0,0h.05V26.74H21v.05L21,26.74l.06.05H21V29Z"/><path class="cls-1" d="M59.75,52.79H53.48v6.28h6.27ZM57.6,56.93h-2V55h2Z"/><rect class="cls-1" x="44.78" y="52.73" width="2.11" height="2.11"/><rect class="cls-1" x="38.29" y="57.15" width="2.02" height="2.02"/><path class="cls-1" d="M20.83,57.13H10.28V67.77H20.83Zm-2.11,8.46H12.46V59.3h6.26Z"/><path class="cls-1" d="M5.91,5.17V72H72.78V5.17ZM70.6,35.52v2H68.65v-2Zm0-6.71h-2v-2h0v-.05h-2v-2h2v2h0v.05h2Zm-2.15,2.4v2h-2v.05l0-.05h0v-2ZM55.64,7.41H70.55V22.32H55.64ZM25.42,9.55l2-.14c.05-.68.09-1.26.15-2h2.06v4.1H31.7c.05-.65.1-1.24.15-1.94h6.39v2h0v.05h2c.09-.73.16-1.36.25-2.11l2-.14c.06-.67.1-1.25.17-2l2-.08v4.25l-2.13.16V16h.05l-.05.06V16l-6.38-.07V16l0,0,0,0h-.05v2H34V16h0v-.06H31.81V16h0v6.33H29.65V16h0l0-.06V16h2.11v-.06l0,.06,0-.06h0c0-.67-.07-1.35-.1-2H29.6v2h0l0,.06v-.06H25.42V13.87l2-.14v-2l-2-.25Zm0,8.65h1.94v4.13H25.4ZM8.09,7.41H23V22.32H8.09ZM23,69.85H8.14V55H23Zm13-4.32-2,.25v4.11H31.93V63.6H36ZM70.6,59.11H68.65v-2H70.6Zm0-4.29H66.52c-.09.73-.16,1.35-.26,2.15H62.07v4.35h2c.08-.68.15-1.31.23-2h2c.06.65.1,1.23.16,2h4.14v2.12l-2,.17v4.22H66.39v0h0v2H64.23v-2h0v0H62.07v0h0v2H59.91v-2h0v0h-2c-.09.72-.16,1.35-.25,2.08H53.43v-2h-.06v0h-2.1v.06l-.05-.06.05.06h-.05v2h-2v-2h2V67.8h.05V65.7h2.1v0h.06V63.56H46.94V61.38h0l0-.05,0,.05v-.05h-2c-.08.7-.16,1.32-.25,2.09l-2,.12v.06l0-.05,0,.05h-.06c0,.61-.06,1.24-.1,2l-2,.12v.06l-.06-.05.06.05h-.06l-.06,2h.05v.06h6.37c0,.66.06,1.28.09,2H40.46v-2h-.05v0H38.35c0-.64-.06-1.25-.1-2h2.22v-.05h.06V63.59h2.1v-.05h0c-.06-.67-.13-1.34-.2-2.16H38.35c0-.82-.07-1.49-.11-2.16h-2c-.08.67-.15,1.3-.24,2H34V57.12L36,57c0-.6,0-1.22.09-1.94L34,54.76v-2h0v0H29.78c-.09.71-.17,1.33-.26,2.07l-2,.22c0,.68-.07,1.35-.11,2h.05v0h4.18v4.19h-2c-.05-.64-.09-1.27-.14-2l-2.14-.17v0h-.06V69.9H25.44V59.25l1.92-.09V59.1h.06l.06-2.06h-.05l0,0,0,0v0H25.35V50.63l-2.19-.11v0h-.05v2H18.84v-2h-.05v0H16.68v0h-.05v2H14.52v-2h0v0h-2V48.41h2v0h0V46.25h0v-.06h-2c-.08-.67-.15-1.29-.24-2l-2-.11v0h0v8.53l-2,.1V44.08h2v0h0V39.76h0v0h-2V37.6h2v-.05h0V35.44h2.11v0h0v-2.1H8.11V24.75H18.73c0,.63.07,1.31.11,2l2.11.05v-.05H21v-2H31.68v2l-1.92.16V31h1.95c0-.62.09-1.25.15-2H36c0-.73.06-1.35.09-2.07L34,26.67v-6.3h2v4.14l2.2.12v-.05l0,.05h0v4.18H42.5c.08-.74.16-1.37.22-2l2-.16c.05-.69.09-1.32.14-2H49c.08.73.15,1.35.24,2.08h4.15v-.05h.05V24.63h-.05v-.05H51.19V18.15H49.1v4.17H46.89V18.15H44.7v4.31l-2-.1c-.06-.77-.1-1.35-.15-2H40.38v4.19H38.29v.05l0-.05h0V18.17h4.27V16.06h-.05l.05-.06v.06l2.13-.19c0-.66.08-1.27.13-2h2.07v-.06l0,0,0,0h0V11.66h4.28v-.05h.05v-2l-2.09-.24v-2h4.09v4.21h-2v.05l0,0,0,0h-.05c0,.7,0,1.41,0,2.11h0l0,.06v-.06H46.94v.06h0c0,1.42,0,2.84,0,4.27h2.11c0-.68.07-1.36.11-2l2.1-.25v-2h0l0-.06v.06h2.11V24.58h.05v.05h2.12v2.11h.05v.06h2c.09-.72.16-1.34.25-2.08h2c.06.6.12,1.23.2,2l2,.12v-.05h0v-2h2v2h-2v.05l0-.05,0,.05h0v2L60,29c0,.68-.07,1.36-.1,2h0v.05h4.16c.08.67.15,1.29.24,2.05l2,.11v-.05l0,.05h0v2.11H62.07v0h0v2.08h4.32v2.19h0l0,0,0,0v0h2v2.11h-2v.05h0v6.44h0v0h2c.08.67.16,1.3.24,2l2,.18Zm0-8.73h-2v-2h2Z"/><path class="cls-1" d="M42.62,41.92h0c0,.71,0,1.41,0,2.11h2.11V41.92l-2.11-.05v.05Z"/><path class="cls-1" d="M23.16,29h-.05v2.12h.05v0l2.08-.1c0-.74.07-1.37.1-2l-2.18-.1v0Z"/><rect class="cls-1" x="55.68" y="61.37" width="6.34" height="2.03"/><path class="cls-1" d="M57.86,20.19H68.44V9.6H57.86ZM60,11.7h6.24V18H60Z"/><path class="cls-1" d="M55.44,65.65h-2v0l-.06,0,.06,0h-.06v2.11h.06l-.06,0,.06,0v0l2-.1Z"/><path class="cls-1" d="M18.84,35.44l2.11,0V33.28H18.79v2.11h.05Z"/><path class="cls-1" d="M23.13,31.1l0,0v-.05H21v2.16h2.11c0-.71,0-1.41,0-2.12h-.05Z"/><path class="cls-1" d="M59.91,33.23v.05h0v2.16H62v0h0V33.23Z"/><path class="cls-1" d="M33.92,15.93h0V16h2.11v-.06h.05v-2l2.16-.25v-2h0v-.05H33.92Z"/><path class="cls-1" d="M44.83,29c-.06.77-.11,1.35-.17,2l-2,.15c-.08.75-.15,1.37-.21,1.94H38.34c-.06-.72-.1-1.3-.15-1.9H34v4.18h4.16c.08.73.16,1.35.25,2.16h4.19V35.39h2.16v-2h2.11c0,.66.06,1.34.1,2h4.37V31.12H57.7v-.05l0,.05h0c0,.68,0,1.37,0,2.05l2.18.11v-.05h0V31.12h0v0H57.74v.05l0-.05h0c0-.68-.06-1.36-.1-2l-2-.24v-2h-.05v-.06H53.42v.05h-.05V29Z"/><path class="cls-1" d="M10.29,20.15H20.94V9.63H10.29Zm2.12-8.42h6.26V18H12.41Z"/><path class="cls-1" d="M59.86,65.79v2h0v0H62v0h0c0-.68-.07-1.35-.1-2Z"/><path class="cls-1" d="M78.69,0H0V110H41.54l.13,0s0,0,0,0a2.6,2.6,0,0,0-.48,1s0,0,0,0h.18s0,0,0,0a9.81,9.81,0,0,0-1,2.19,9.45,9.45,0,0,0,1.86-1.52s0,0,.06,0l0,.16s0,0,0,0a3.23,3.23,0,0,0,.83-.74h0l.11.17a0,0,0,0,0,.06,0,5.2,5.2,0,0,0,.83-1s0,0,.06,0l.18.35a.06.06,0,0,0,.06,0,3.6,3.6,0,0,0,.6-.9l.09-.25a0,0,0,0,1,.06,0l.12.26h3.61a.61.61,0,0,1,0,.15s0,0,.06,0l.49-.08a0,0,0,0,1,0,.06,3.66,3.66,0,0,0-.44,2.07,0,0,0,0,0,.07,0l.38-.27s.09,0,.06.07a6.24,6.24,0,0,0-.42,2s0,.07.09,0l.45-.28s.07,0,.05,0a8.49,8.49,0,0,0-.14,2s0,.06.07,0l.58-.42s.07,0,0,0a5.59,5.59,0,0,0-.1,2.09s.05,0,.06,0l.51-.32s.06,0,.05,0a8.51,8.51,0,0,0,.23,1.92,0,0,0,0,0,.07,0l.27-.14s.06,0,.06,0a3.94,3.94,0,0,0,.4,1.59s0,0,.07,0l.21-.18a0,0,0,0,1,.07,0,13.62,13.62,0,0,0,1,3.41,16.39,16.39,0,0,0,.64-3.7.06.06,0,0,1,.08,0l.23.11s.05,0,.07,0a4.83,4.83,0,0,0,.24-1.7s0-.06.06-.06l.28,0s.05,0,.07-.05a7.78,7.78,0,0,0,0-1.95s0-.06.07-.07l.53.16a.05.05,0,0,0,0,0,5,5,0,0,0-.29-2s0-.1.06-.08l.59.24a.05.05,0,0,0,.07,0,7.45,7.45,0,0,0-.31-1.9s0-.07,0-.06l.48.12a.06.06,0,0,0,.07-.07,4.34,4.34,0,0,0-.59-1.87s0-.08.06-.07l.39.12s.07,0,.07-.06a3,3,0,0,0-.15-1h4.37l.28-.38s.08,0,.1,0a4.17,4.17,0,0,0,1.55,1.91s.08,0,.08,0l.12-.53c0-.07.08-.07.09,0a5.69,5.69,0,0,0,1.59,1.88s.07,0,.08,0l.13-.63s.08-.06.11,0a8.83,8.83,0,0,0,1.72,1.57.06.06,0,0,0,.09-.06l.08-.81c0-.07.08-.09.12,0a6,6,0,0,0,1.87,1.63s.07,0,.07,0l.16-.69c0-.05,0-.07.09,0a10,10,0,0,0,2,1.2s.06,0,.07,0l.11-.36s.07,0,.11,0a4.78,4.78,0,0,0,1.84.82.08.08,0,0,0,.07-.07v-.32a.06.06,0,0,1,.09-.05,18.48,18.48,0,0,0,4.09,1.66,18.4,18.4,0,0,0-2.92-3.32s0-.08,0-.1l.32-.11s0-.07,0-.09a5,5,0,0,0-1.36-1.47s-.06-.09,0-.1l.29-.23a.06.06,0,0,0,0-.09,10,10,0,0,0-1.11-1h6.16Zm-2,108H2V77.9H76.69Zm0-31.84H2V2H76.69Z"/><text class="cls-2" transform="translate(10.88 90.17) scale(0.99 1)">NASKENUJTE <tspan x="-3.22" y="11.29">TEN</tspan><tspan class="cls-3" x="13.02" y="11.29">T</tspan><tspan x="17.74" y="11.29">O QR </tspan><tspan class="cls-4" x="41.2" y="11.29">K</tspan><tspan class="cls-5" x="46.41" y="11.29">ÓD</tspan></text></g></g></svg>
