<svg viewBox="14.963 28.678 332.917 119.702" xmlns="http://www.w3.org/2000/svg" xmlns:xlink="http://www.w3.org/1999/xlink">
  <defs>
    <linearGradient id="Degradado_sin_nombre_4" y1="378.08" x2="756.21" y2="378.08" gradientUnits="userSpaceOnUse">
      <stop offset="0" stop-color="#e28c23"/>
      <stop offset="0.05" stop-color="#e49525"/>
      <stop offset="0.17" stop-color="#e7a528"/>
      <stop offset="0.3" stop-color="#e8af2a"/>
      <stop offset="0.47" stop-color="#e9b22b"/>
    </linearGradient>
    <linearGradient id="Nueva_muestra_de_degradado_4" x1="53.96" y1="423.79" x2="547.49" y2="354.19" gradientUnits="userSpaceOnUse">
      <stop offset="0" stop-color="#e9b22b"/>
      <stop offset="0.06" stop-color="#e28c23"/>
      <stop offset="0.13" stop-color="#e6a027"/>
      <stop offset="0.19" stop-color="#e9b22b"/>
      <stop offset="0.28" stop-color="#834613"/>
      <stop offset="0.35" stop-color="#854713"/>
      <stop offset="0.39" stop-color="#8d4b14"/>
      <stop offset="0.41" stop-color="#9b5115"/>
      <stop offset="0.44" stop-color="#ac5a17"/>
      <stop offset="0.5" stop-color="#cf8c3b"/>
      <stop offset="0.55" stop-color="#e8b156"/>
      <stop offset="0.59" stop-color="#f7c866"/>
      <stop offset="0.62" stop-color="#fdd06c"/>
      <stop offset="0.66" stop-color="#facc69"/>
      <stop offset="0.71" stop-color="#f2c061"/>
      <stop offset="0.75" stop-color="#e5ad53"/>
      <stop offset="0.79" stop-color="#d2923f"/>
      <stop offset="0.83" stop-color="#ba6f26"/>
      <stop offset="0.85" stop-color="#ac5a17"/>
      <stop offset="0.88" stop-color="#a55716"/>
      <stop offset="0.93" stop-color="#914d14"/>
      <stop offset="0.95" stop-color="#834613"/>
    </linearGradient>
    <linearGradient id="Безымянный_градиент_13" x1="57.85" y1="438.37" x2="551.39" y2="368.77" gradientUnits="userSpaceOnUse">
      <stop offset="0" stop-color="#e9b22b"/>
      <stop offset="0.06" stop-color="#e28c23"/>
      <stop offset="0.24" stop-color="#e6a027"/>
      <stop offset="0.37" stop-color="#e9b22b"/>
      <stop offset="0.68" stop-color="#fdd06c"/>
      <stop offset="0.73" stop-color="#f6c564"/>
      <stop offset="0.82" stop-color="#e2a84f"/>
      <stop offset="0.93" stop-color="#c1792d"/>
      <stop offset="1" stop-color="#ac5a17"/>
    </linearGradient>
    <linearGradient id="Безымянный_градиент_13-2" x1="75.64" y1="564.54" x2="569.18" y2="494.94" xlink:href="#Безымянный_градиент_13"/>
    <linearGradient id="Безымянный_градиент_13-3" x1="51.08" y1="390.35" x2="544.61" y2="320.74" xlink:href="#Безымянный_градиент_13"/>
    <linearGradient id="Безымянный_градиент_13-4" x1="70.49" y1="528.02" x2="564.03" y2="458.42" xlink:href="#Безымянный_градиент_13"/>
    <linearGradient id="Безымянный_градиент_13-5" x1="36.94" y1="290.12" x2="530.48" y2="220.52" xlink:href="#Безымянный_градиент_13"/>
    <linearGradient id="Безымянный_градиент_13-6" x1="260.81" y1="520.75" x2="441.16" y2="495.31" xlink:href="#Безымянный_градиент_13"/>
    <linearGradient id="Безымянный_градиент_13-7" x1="344.13" y1="509.46" x2="358.1" y2="507.49" xlink:href="#Безымянный_градиент_13"/>
    <linearGradient id="Безымянный_градиент_13-8" x1="279.09" y1="518.94" x2="423.19" y2="498.62" xlink:href="#Безымянный_градиент_13"/>
    <linearGradient id="Безымянный_градиент_13-9" x1="71.1" y1="532.32" x2="564.64" y2="462.72" xlink:href="#Безымянный_градиент_13"/>
  </defs>
  <g id="Слой_2" data-name="Слой 2" transform="matrix(0.156026, 0, 0, 0.156026, 16.130461, 30.160231)" style="">
    <g id="Слой_1-2" data-name="Слой 1">
      <path class="cls-1" d="M378.1,1C170.18,1,1,170.14,1,378.06s169.18,377.1,377.1,377.1S755.21,586,755.21,378.06,586,1,378.1,1Zm0,741.61c-201,0-364.5-163.52-364.5-364.55S177.12,13.56,378.1,13.56s364.55,163.52,364.55,364.5S579.13,742.61,378.1,742.61Z" style="fill: none; stroke: url(#Degradado_sin_nombre_4); stroke-miterlimit: 10; stroke-width: 2px;"/>
      <path class="cls-2" d="M378.1,755.18C170.17,755.18,1,586,1,378.08S170.17,1,378.1,1,755.2,170.15,755.2,378.08,586,755.18,378.1,755.18Zm0-741.62c-201,0-364.52,163.52-364.52,364.52S177.1,742.61,378.1,742.61,742.63,579.08,742.63,378.08,579.1,13.56,378.1,13.56Z" style="fill: url(#Nueva_muestra_de_degradado_4);"/>
      <path class="cls-3" d="M493,464.46l-4.11-4.64c9.41-.61,17-6.12,19.18-7.84a.67.67,0,0,0,0-1l-5.28-4.47a.66.66,0,0,1,.41-1.16A46.48,46.48,0,0,0,523.65,438a.64.64,0,0,0,.12-1L519,431.62a.68.68,0,0,1,.43-1.1c14.87-2.15,23.34-10.11,25.61-12.53a.65.65,0,0,0-.22-1.06l-5.67-2.41a.66.66,0,0,1,.14-1.25c11.17-2.21,22.12-10.33,25.19-12.72a.66.66,0,0,0-.14-1.11l-6.59-3.09a.66.66,0,0,1,.07-1.22c7.56-2.73,19-12.5,22.17-15.31a.65.65,0,0,0-.21-1.12l-9-3.07a.67.67,0,0,1,0-1.26c12-4.88,20.92-14.14,23.24-16.69a.65.65,0,0,0-.22-1l-7.29-3.4a.65.65,0,0,1-.09-1.13c8.35-6,16.79-16.52,18.82-19.14a.65.65,0,0,0-.18-1l-3.72-2.21a.65.65,0,0,1,0-1.11c6.64-4.74,12.53-15.64,14-18.57a.67.67,0,0,0-.43-.95l-3.67-.93a.66.66,0,0,1-.3-1.1c16.16-16.69,28.92-40.74,29.32-41.49-.79.29-26.2,10.05-44.75,24.08a.64.64,0,0,1-1-.42l-.5-3.77a.64.64,0,0,0-.88-.52c-3.07,1.13-14.61,5.68-20.13,11.69a.66.66,0,0,1-1.11-.14l-1.72-4a.67.67,0,0,0-1-.29c-2.83,1.71-14.34,8.82-21.25,16.38a.66.66,0,0,1-1.12-.24l-2.49-7.64a.66.66,0,0,0-1-.35c-2.82,2-13.07,9.75-19.37,21.05a.67.67,0,0,1-1.24-.15l-2-9.31a.65.65,0,0,0-1.07-.35c-3.18,2.84-14.26,13-17.89,20.19a.66.66,0,0,1-1.22-.09l-2.26-6.94a.65.65,0,0,0-1.09-.25c-2.75,2.75-12.11,12.66-15.66,23.47a.66.66,0,0,1-1.26,0l-1.7-5.9a.66.66,0,0,0-1-.36c-2.67,2-11.6,9.42-15.55,23.91a.66.66,0,0,1-1.13.29L456,360.57a.65.65,0,0,0-1,0A46.17,46.17,0,0,0,445.33,380a.68.68,0,0,1-1.22.27l-3.79-5.78a.66.66,0,0,0-1-.11c-2,1.94-10.75,12.7-12.51,22v0c22.07,38.47,34.29,61.13,41,74.06C473.32,472.14,493,464.46,493,464.46Z" style="fill: url(#Безымянный_градиент_13);"/>
      <path class="cls-4" d="M624.86,507.62s-15.87-6.75-30.45-8.4a.43.43,0,0,1-.29-.67l1.38-1.92a.41.41,0,0,0-.16-.63c-1.87-.81-9-3.75-14.06-3.39a.42.42,0,0,1-.43-.56l.92-2.55a.42.42,0,0,0-.31-.54c-2-.46-10.21-2.2-16.57-1.76a.4.4,0,0,1-.41-.57l2.15-4.6a.39.39,0,0,0-.3-.57,42.52,42.52,0,0,0-17.73,1.2.41.41,0,0,1-.48-.61l3.09-5.1a.41.41,0,0,0-.34-.64c-2.64-.08-12-.24-16.68,1.45a.41.41,0,0,1-.51-.56l1.94-4.14a.41.41,0,0,0-.37-.6c-2.41.08-10.87.52-17.1,3.92a.4.4,0,0,1-.55-.54l1.76-3.45a.42.42,0,0,0-.31-.61A27.29,27.29,0,0,0,501.83,476a.41.41,0,0,1-.64-.35l.16-4.58a.4.4,0,0,0-.45-.42,28.63,28.63,0,0,0-12.7,4.67.42.42,0,0,1-.66-.39l.77-4.29a.4.4,0,0,0-.41-.49c-1.6,0-12.25,2.41-17.49,5.57.43.84.83,1.63,1.19,2.37,10.12,18.13,15.15,35,15.65,52.89a28.87,28.87,0,0,0,11.33,4.82.41.41,0,0,0,.49-.4l.16-4.56a.42.42,0,0,1,.66-.32,27,27,0,0,0,16.88,5.38.41.41,0,0,0,.36-.57l-1.51-3.56a.41.41,0,0,1,.59-.52c6,3.84,14.37,4.9,16.77,5.14a.42.42,0,0,0,.42-.58l-1.66-4.27a.41.41,0,0,1,.56-.52c4.58,2,13.9,2.53,16.54,2.62a.41.41,0,0,0,.39-.59l-2.74-5.32a.42.42,0,0,1,.53-.57,42.68,42.68,0,0,0,17.6,2.46A.43.43,0,0,0,565,529l-1.83-4.72a.4.4,0,0,1,.45-.55c6.3.89,14.61-.26,16.64-.56a.43.43,0,0,0,.34-.54l-.72-2.6a.41.41,0,0,1,.47-.52c5,.71,12.34-1.71,14.26-2.39a.41.41,0,0,0,.21-.61l-1.24-2a.41.41,0,0,1,.33-.63C608.54,513.22,624.86,507.62,624.86,507.62Z" style="fill: url(#Безымянный_градиент_13-2);"/>
      <path class="cls-5" d="M320.49,374.72a.66.66,0,0,0-1,.1l-3.79,5.79a.67.67,0,0,1-1.22-.26,46.54,46.54,0,0,0-9.68-19.46.68.68,0,0,0-1,0L299,366.31a.68.68,0,0,1-1.15-.3c-3.94-14.49-12.86-21.94-15.54-23.9a.66.66,0,0,0-1,.34l-1.7,5.93a.66.66,0,0,1-1.26,0c-3.56-10.81-12.91-20.72-15.66-23.45a.65.65,0,0,0-1.09.25l-2.27,6.93a.66.66,0,0,1-1.22.07c-3.62-7.16-14.7-17.34-17.88-20.16a.66.66,0,0,0-1.09.34l-2,9.3a.66.66,0,0,1-1.24.16c-6.3-11.29-16.56-19.05-19.37-21a.66.66,0,0,0-1,.34l-2.5,7.65a.65.65,0,0,1-1.11.23c-6.93-7.58-18.42-14.69-21.27-16.37a.64.64,0,0,0-.94.28L188,296.86a.66.66,0,0,1-1.1.16c-5.51-6-17.05-10.55-20.14-11.7a.66.66,0,0,0-.88.54l-.49,3.75a.65.65,0,0,1-1,.43c-18.55-14-43.95-23.79-44.74-24.08.39.76,13.14,24.8,29.32,41.5a.66.66,0,0,1-.31,1.09l-3.68.94a.64.64,0,0,0-.41.93c1.51,2.93,7.4,13.84,14,18.58a.66.66,0,0,1,0,1.12l-3.71,2.19a.66.66,0,0,0-.18,1c2,2.61,10.46,13.18,18.81,19.13a.66.66,0,0,1-.09,1.15L166,357a.65.65,0,0,0-.2,1c2.32,2.55,11.26,11.8,23.22,16.7a.66.66,0,0,1,0,1.25l-9,3.06a.66.66,0,0,0-.22,1.13c3.2,2.8,14.62,12.59,22.18,15.31a.66.66,0,0,1,.07,1.23l-6.61,3.07a.66.66,0,0,0-.12,1.13c3,2.38,14,10.48,25.19,12.71a.66.66,0,0,1,.12,1.26l-5.65,2.4a.65.65,0,0,0-.22,1.06c2.26,2.42,10.74,10.38,25.61,12.53a.67.67,0,0,1,.41,1.1l-4.8,5.44a.67.67,0,0,0,.13,1,46.4,46.4,0,0,0,20.49,7.27.66.66,0,0,1,.39,1.17l-5.28,4.47a.68.68,0,0,0,0,1c2.17,1.72,9.77,7.24,19.18,7.85l-4.13,4.61s14.65,5.37,23.36,6.59c6.71-13.05,19.37-36.56,42.84-77.46C329.84,385.49,322.19,376.39,320.49,374.72Z" style="fill: url(#Безымянный_градиент_13-3);"/>
      <path class="cls-6" d="M267.84,470.58l.67,4.29a.42.42,0,0,1-.67.39,28.52,28.52,0,0,0-12.59-4.95.4.4,0,0,0-.46.41l.07,4.58a.42.42,0,0,1-.65.34,27,27,0,0,0-17.13-4.54.41.41,0,0,0-.32.59l1.69,3.48a.42.42,0,0,1-.58.54c-6.14-3.53-14.59-4.18-17-4.29a.41.41,0,0,0-.39.58l1.86,4.18a.42.42,0,0,1-.54.56c-4.65-1.8-14-1.85-16.64-1.82a.42.42,0,0,0-.34.63l3,5.15a.42.42,0,0,1-.5.62,42.93,42.93,0,0,0-17.69-1.6.41.41,0,0,0-.32.59l2.05,4.61a.43.43,0,0,1-.42.6c-6.34-.6-14.6,1-16.61,1.38a.42.42,0,0,0-.32.54l.86,2.57a.41.41,0,0,1-.43.55c-5-.48-12.24,2.3-14.15,3.07a.45.45,0,0,0-.18.63l1.35,2a.4.4,0,0,1-.31.64c-14.59,1.35-30.61,7.74-30.61,7.74s16.18,6,30.81,6.92a.4.4,0,0,1,.33.62l-1.3,2a.43.43,0,0,0,.2.63c1.92.71,9.19,3.3,14.22,2.69a.4.4,0,0,1,.45.52l-.77,2.6a.42.42,0,0,0,.32.54c2,.36,10.31,1.69,16.64.94a.41.41,0,0,1,.44.55l-1.94,4.69a.42.42,0,0,0,.34.57,43,43,0,0,0,17.65-2.06.41.41,0,0,1,.52.57l-2.86,5.25a.43.43,0,0,0,.38.62c2.64,0,12-.34,16.59-2.28a.41.41,0,0,1,.54.54l-1.74,4.24a.4.4,0,0,0,.41.57c2.39-.18,10.83-1.05,16.86-4.75a.41.41,0,0,1,.59.52l-1.59,3.53a.41.41,0,0,0,.35.58,26.94,26.94,0,0,0,17-5,.42.42,0,0,1,.66.34l.06,4.56a.42.42,0,0,0,.48.41,28.41,28.41,0,0,0,12.45-5.31.41.41,0,0,1,.66.38l-.56,4.32a.43.43,0,0,0,.45.47,17.76,17.76,0,0,0,1.94-.23c0-.36,0-.72,0-1.08,0-18.71,5-36.5,15.68-55.95l1-1.94c-6.07-3.12-18-6-19.47-6.07A.41.41,0,0,0,267.84,470.58Z" style="fill: url(#Безымянный_градиент_13-4);"/>
      <path class="cls-7" d="M327.47,341.7l-7.92-1.13a.76.76,0,0,0-.88.79c.16,3.14,1.22,13.8,7.92,22.3,0,0,3.32,4.47,7.6,9.12h-6a16.07,16.07,0,0,0,10.92,10.5q10-17.31,22.41-38.51l5.91-10.06,11.65-20.79,11.67,20.79,6.05,10.06c10,17.05,18.76,32.14,26.41,45.42a18.07,18.07,0,0,0,3.77-3.95c2.18-2.91,2.19-11.85,2.19-12.13,0,0-14.11,3.43-10,1.13s11.49-11.58,11.49-11.58c6.7-8.5,7.76-19.16,7.92-22.3a.74.74,0,0,0-.88-.79l-7.92,1.13a.76.76,0,0,1-.7-1.22,52.82,52.82,0,0,0,9.43-23,.76.76,0,0,0-.76-.86h-8.4a.76.76,0,0,1-.61-1.19c9.52-14.33,9.14-27.6,8.78-31.37a.76.76,0,0,0-1.09-.61l-6.43,3a.77.77,0,0,1-1-1.08c6.66-11.2,8-26.7,8.31-31.11a.75.75,0,0,0-1.06-.74l-7.73,3.3a.76.76,0,0,1-1-1c3.43-8.53,3.75-25.68,3.77-30.55a.78.78,0,0,0-1.15-.66L420.62,230a.76.76,0,0,1-1.08-.94c4.94-13.93,3.79-28.56,3.36-32.48a.76.76,0,0,0-1.06-.61l-8.56,3.67a.74.74,0,0,1-1-.78c1.24-11.65-1.44-26.86-2.14-30.55a.78.78,0,0,0-1-.6l-4.76,1.51a.75.75,0,0,1-1-.83c1-9.24-3.95-22.55-5.31-26a.78.78,0,0,0-1.15-.34l-3.63,2.42a.75.75,0,0,1-1.18-.57C390,117,378.66,87.38,378.66,87.38S367.29,117,365.19,143.85a.75.75,0,0,1-1.18.57L360.38,142a.76.76,0,0,0-1.13.34c-1.38,3.5-6.3,16.81-5.31,26a.76.76,0,0,1-1,.83l-4.76-1.51a.78.78,0,0,0-1,.6c-.7,3.69-3.37,18.9-2.13,30.55a.75.75,0,0,1-1.05.78L335.48,196a.75.75,0,0,0-1.06.61c-.45,3.92-1.6,18.55,3.36,32.48a.77.77,0,0,1-1.1.94l-9.57-5.37a.76.76,0,0,0-1.13.66c0,4.87.32,22,3.75,30.55a.75.75,0,0,1-1,1l-7.74-3.3a.75.75,0,0,0-1.06.74c.27,4.41,1.67,19.91,8.31,31.11a.76.76,0,0,1-1,1.08l-6.43-3a.77.77,0,0,0-1.1.61c-.34,3.77-.73,17,8.8,31.37a.76.76,0,0,1-.63,1.19h-8.38a.78.78,0,0,0-.78.86,52.82,52.82,0,0,0,9.43,23A.76.76,0,0,1,327.47,341.7Z" style="fill: url(#Безымянный_градиент_13-5);"/>
      <path class="cls-8" d="M351,508.07l0-.07h0l0,.06Z" style="fill: url(#Безымянный_градиент_13-6);"/>
      <path class="cls-9" d="M351.12,508.47h0v0Z" style="fill: url(#Безымянный_градиент_13-7);"/>
      <path class="cls-10" d="M351.17,508.9l0-.17v-.1c0,.1,0,.2,0,.3Z" style="fill: url(#Безымянный_градиент_13-8);"/>
      <path class="cls-11" d="M379.26,355.07h-.15c-48.69,83-67.36,118.37-74.32,132.47-8,14.54-13.35,29.42-13.35,46.51a87.75,87.75,0,0,0,175.5,0c0-17.09-5-31.67-13.35-46.51C446.63,473.44,428,438.11,379.26,355.07Zm-25.6,96c1.7-4.42,9.76-9.92,16.53-12.63l1.92-.95c1-.49,2.05-.95,3.2-1.4a31.26,31.26,0,0,1,3.55-1.15,29.66,29.66,0,0,1,14.74,0l.92.27.45.15.57.21a11.11,11.11,0,0,1,2.21,1.1,13.17,13.17,0,0,1,3.39,3.1,16,16,0,0,1,2.16,3.58c.27.61.52,1.23.74,1.86s.37,1.17.57,2.07a11.91,11.91,0,0,1,.23,1.24c.06.46.11.91.15,1.38a18,18,0,0,1,0,2.75,16.93,16.93,0,0,1-1.31,5.44,46.34,46.34,0,0,1-2.12,4.23c-.57,1-1.13,1.94-1.76,2.91H391c.18-1.6.9-2.22,1.51-3.23l.06-.09c.64-1.06,1.33-2.28,1.92-3.43s1.05-2.14,1.46-3.16a9.14,9.14,0,0,0,.64-2.67,8.64,8.64,0,0,0,0-2,4.4,4.4,0,0,0-.11-.74c0-.18-.12-.52-.12-.52l-.07-.34c-.06-.13-.2-.61-.33-.92a6.86,6.86,0,0,0-.46-1,8.26,8.26,0,0,0-1.13-1.72,4.93,4.93,0,0,0-1.24-1,3.56,3.56,0,0,0-.61-.25l-.16-.08-.31-.07-.57-.14a20.56,20.56,0,0,0-10,.48,16,16,0,0,0-1.71.61,15.88,15.88,0,0,1-2.39,4.16,9.45,9.45,0,0,1-4.88,1.95c-1.54.18-2.87,1.89-6.43,2.34-8.56,1.09-11-.35-11-.35C354,452.55,353.36,451.85,353.66,451.08ZM345.91,510v0h0a2.67,2.67,0,0,1-.09-.26l0-.08v-.07l0-.06,0-.25v-.47l.3-1,1.49-1.3,1.6-.08.69.28.33.22a2.85,2.85,0,0,1,.55.6c0,.05.06.11.1.16a4,4,0,0,0,.37.41,8.27,8.27,0,0,0,.61.56,11.15,11.15,0,0,0,1.41,1c.88.47,2.35,1,3.63,1.54l8.1,3c5.42,2,10.83,4,16.33,5.89l4.15,1.46a40,40,0,0,1,4.39,1.91,28.21,28.21,0,0,1,4.27,2.68c.68.52,1.31,1,2,1.64.31.28.67.64,1,1s.6.67.89,1a16.68,16.68,0,0,1,2.81,5c.16.46.3.93.43,1.45s.2.9.27,1.37a20.31,20.31,0,0,1,.25,2.64,24.79,24.79,0,0,1-1.74,10.31l0,.07a4.49,4.49,0,1,1-8.35-3.3l.07-.17a16,16,0,0,0,1.52-6.66,15.57,15.57,0,0,0-.06-1.69l-.11-.78a4.82,4.82,0,0,0-.15-.64,8.3,8.3,0,0,0-1.31-2.63,7.38,7.38,0,0,0-.5-.64,5.64,5.64,0,0,0-.53-.59c-.4-.41-.86-.84-1.31-1.22a19.6,19.6,0,0,0-3-2.1,32.59,32.59,0,0,0-3.5-1.74l-4-1.64c-5.35-2.18-10.76-4.44-16.11-6.74-2.68-1.13-5.35-2.3-8-3.55a45.52,45.52,0,0,1-4.23-2.18,16.4,16.4,0,0,1-2.11-1.56c-.33-.29-.65-.6-1-.94a10.12,10.12,0,0,1-.86-1A2.77,2.77,0,0,1,345.91,510Zm27,3.46v-6.73a5.06,5.06,0,0,1,.22-1.46c1.63.11,3.3.18,5,.18s3.34-.07,5-.18a5.05,5.05,0,0,1,.21,1.46v10.75l-1.74-.66C378.89,515.77,376,514.64,372.91,513.44Zm8.85,78.63a1.82,1.82,0,0,1-1.62-1.42l-.05-.23a6.45,6.45,0,0,0-2-3.06,4.41,4.41,0,0,0-.69-.54l-1-.72-2-1.41-2-1.35-1-.63a6.27,6.27,0,0,1-.72-.54,9.77,9.77,0,0,1-2.89-4,10.51,10.51,0,0,1-.54-1.79c-.06-.31-.12-.61-.15-.93a6.34,6.34,0,0,1-.07-1.11,4,4,0,1,1,8,0c0-.15,0,.08,0,.14l.05.32c.05.22.08.44.14.65a6,6,0,0,0,.39,1s.07.14.12.2a1.78,1.78,0,0,0,.24.28l.94,1,1.78,2c.58.66,1.16,1.31,1.7,2l.82,1a10.32,10.32,0,0,1,1,1.35,10,10,0,0,1,1.64,6.19A1.83,1.83,0,0,1,381.76,592.07Zm27.82-26.54h-63s-.61-5.35,3.67-5.35,13.3-1.4,15.74-2.91,6.88-4.27,6.88-9.47V529.47c1.1.43,2.16.86,3.18,1.28l7.2,2.83v14.24c0,5.18,4.44,7.93,6.89,9.45s11.46,2.91,15.73,2.91S409.58,565.53,409.58,565.53ZM378.1,502.88c-25,0-45.23-14.5-45.23-32.4h90.46C423.33,488.38,403.08,502.88,378.1,502.88Z" style="fill: url(#Безымянный_градиент_13-9);"/>
    </g>
  </g>
  <g id="Layer_2" data-name="Layer 2" style="" transform="matrix(0.404263, 0, 0, 0.37816, 150.751007, 58.551205)">
    <g id="Layer_1-2" data-name="Layer 1">
      <path class="cls-1" d="M0,87.46A28.14,28.14,0,0,1,9.07,66,29.54,29.54,0,0,1,31,57.38a29.84,29.84,0,0,1,15,3.83,27.86,27.86,0,0,1,10.59,10.6l-9,6.33Q41.34,68.38,31,68.38a17.94,17.94,0,0,0-13.41,5.45,18.83,18.83,0,0,0-5.32,13.72,18.54,18.54,0,0,0,5.32,13.63A18.13,18.13,0,0,0,31,106.54q10.38,0,16.62-9.76l9,6.33A27.15,27.15,0,0,1,46,113.71a30.2,30.2,0,0,1-15.12,3.82,29.46,29.46,0,0,1-21.95-8.66A27.92,27.92,0,0,1,0,87.46Z" style="fill: rgb(30, 14, 0);"/>
      <path class="cls-1" d="M111.6,99.42a15.75,15.75,0,0,1-5.36,12.27q-5.37,4.78-13.72,4.79H66.67v-58H87.24q8.1,0,13.24,4.53a14.81,14.81,0,0,1,5.14,11.65,13.66,13.66,0,0,1-4.31,10.46Q111.6,88.88,111.6,99.42ZM86.28,68.64H78.1V81.92h8.18a8.14,8.14,0,0,0,5.58-1.76,6.24,6.24,0,0,0,2-4.93,6.12,6.12,0,0,0-2-4.83A8.14,8.14,0,0,0,86.28,68.64ZM99.91,99a6.82,6.82,0,0,0-2.2-5.32,8.75,8.75,0,0,0-6.07-2H78.1v14.6H91.64a8.88,8.88,0,0,0,6.07-1.94A6.78,6.78,0,0,0,99.91,99Z" style="fill: rgb(30, 14, 0);"/>
      <path class="cls-1" d="M121.28,116.48v-58h19q13.89-.18,22.87,8t8.79,20.88a26.81,26.81,0,0,1-8.88,21q-9.06,8.36-22.78,8.18Zm11.87-10.73h7q8.81,0,14.16-5.06t5.37-13.41q0-8.44-5.28-13.28t-14.25-4.83h-7Z" style="fill: rgb(30, 14, 0);"/>
      <path class="cls-1" d="M177.21,109.09l6-7.21q5.63,5.9,12.22,5.89a7.67,7.67,0,0,0,4-.92,3,3,0,0,0,1.54-2.68,2.53,2.53,0,0,0-.92-2.07,17.32,17.32,0,0,0-3.56-1.89l-4.67-1.93q-6.24-2.55-9.05-5.59A10.85,10.85,0,0,1,179.93,85a11.52,11.52,0,0,1,4.4-9.55Q188.72,72,195.94,72q9.67,0,15.65,6.51l-6,7.3a13.92,13.92,0,0,0-9.76-4.14q-4.66,0-4.66,3.08a2.5,2.5,0,0,0,1,2,15,15,0,0,0,3.6,1.84L200,90.36Q206.49,93,209.35,96a10.63,10.63,0,0,1,2.86,7.65,12.13,12.13,0,0,1-4.84,10.2q-4.76,3.69-12.14,3.69Q183.55,117.53,177.21,109.09Z" style="fill: rgb(30, 14, 0);"/>
      <path class="cls-1" d="M250.37,73H263L241.4,117.53h-4L215.9,73h12.49l11,24.62Z" style="fill: rgb(30, 14, 0);"/>
      <path class="cls-1" d="M308.15,98.72H277.64a10.67,10.67,0,0,0,4.26,6.37,13.52,13.52,0,0,0,8,2.24A19.6,19.6,0,0,0,302,102.94l4.92,8.09a26.56,26.56,0,0,1-17.41,6.5,23,23,0,0,1-17-6.55,21.09,21.09,0,0,1-6.81-16.22A22.52,22.52,0,0,1,288.45,72a19.87,19.87,0,0,1,14.73,5.81,19.63,19.63,0,0,1,5.76,14.42A28.1,28.1,0,0,1,308.15,98.72Zm-30.51-8.36h19.78A8.46,8.46,0,0,0,294.65,84,9.56,9.56,0,0,0,288,81.57a9.9,9.9,0,0,0-6.59,2.37A11.63,11.63,0,0,0,277.64,90.36Z" style="fill: rgb(30, 14, 0);"/>
      <path class="cls-1" d="M346.14,106.54v9.94a33.81,33.81,0,0,1-8.18,1q-8.35,0-12.88-4.13t-4.53-12.22V83h-6.86V73h6.86V62h11.87V73h12.31V83H332.42v17.15c0,2.47.63,4.21,1.89,5.24s3.33,1.53,6.2,1.53C341.51,106.89,343.38,106.78,346.14,106.54Z" style="fill: rgb(30, 14, 0);"/>
      <path class="cls-1" d="M353,109.36a7.92,7.92,0,0,1,2.37-5.81,8,8,0,0,1,5.9-2.37,7.78,7.78,0,0,1,5.76,2.37,8.5,8.5,0,0,1,0,11.65,7.77,7.77,0,0,1-5.8,2.33,8.08,8.08,0,0,1-5.9-2.33A7.85,7.85,0,0,1,353,109.36Z" style="fill: rgb(30, 14, 0);"/>
      <path class="cls-1" d="M376,94.67a21.61,21.61,0,0,1,6.77-16.09A22.79,22.79,0,0,1,399.34,72q12.84,0,18.91,10.73L410,89.13q-4.39-6.33-10.46-6.33a10.85,10.85,0,0,0-8.22,3.38,12.94,12.94,0,0,0,0,17.06,10.82,10.82,0,0,0,8.22,3.39q6.06,0,10.46-6.24l8.27,6.33a21.17,21.17,0,0,1-7.78,8,21.64,21.64,0,0,1-11.13,2.85,22.16,22.16,0,0,1-16.53-6.63A21.37,21.37,0,0,1,376,94.67Z" style="fill: rgb(30, 14, 0);"/>
      <path class="cls-1" d="M440.06,106.45H460.9v10H422.65v-3.17L443.49,83H424.67V73h36.06v3.16Z" style="fill: rgb(30, 14, 0);"/>
      <path class="cls-2" d="M288.19,57a15,15,0,0,1-3.08,2.52,16.05,16.05,0,0,1-9.53,2.21,11.67,11.67,0,0,1,6.09-5.19,31.34,31.34,0,0,1-22.91-5.22,38,38,0,0,1,13.78-4.56,40.46,40.46,0,0,1-15.36-25.42,39.09,39.09,0,0,1,15.74,6.15,38.46,38.46,0,0,1,6.7,5.77,88.69,88.69,0,0,1,1.86-13.31A89.76,89.76,0,0,1,288.28.16a.38.38,0,0,1,.11-.11l.06,0,.08.06a.71.71,0,0,1,.12.13,89,89,0,0,1,8.66,33.05,37.68,37.68,0,0,1,6.7-5.77,39,39,0,0,1,15.74-6.15,40.46,40.46,0,0,1-15.36,25.42,37.2,37.2,0,0,1,5.49,1.12,37.77,37.77,0,0,1,8.28,3.44,31.68,31.68,0,0,1-13.5,5.31,31,31,0,0,1-9.4-.1,11.63,11.63,0,0,1,3.91,2.43,11.5,11.5,0,0,1,2.18,2.77,16.08,16.08,0,0,1-9.53-2.22A14.68,14.68,0,0,1,288.74,57" style="fill: rgb(0, 143, 61);"/>
    </g>
  </g>
</svg>
